<?xml version="1.0" encoding="utf-8"?>
<!-- Generator: Adobe Illustrator 24.2.1, SVG Export Plug-In . SVG Version: 6.00 Build 0)  -->
<svg version="1.1" id="katman_1" xmlns="http://www.w3.org/2000/svg" xmlns:xlink="http://www.w3.org/1999/xlink" x="0px" y="0px"
	 viewBox="0 0 1920 913.1" style="enable-background:new 0 0 1920 913.1;" xml:space="preserve">
<style type="text/css">
	.st0{clip-path:url(#SVGID_2_);}
	.st1{fill:url(#SVGID_3_);}
	.st2{fill:url(#SVGID_4_);}
	.st3{fill:url(#SVGID_5_);}
	.st4{fill:url(#SVGID_6_);}
	.st5{fill:#7269FF;}
	.st6{fill:#7A73FF;}
	.st7{fill:#8088FF;}
	.st8{fill:url(#SVGID_7_);}
	.st9{fill:url(#SVGID_8_);}
	.st10{fill:#5047FF;}
	.st11{fill:#584FFF;}
	.st12{fill:#FFFFFF;}
	.st13{fill:#66BCFF;}
	.st14{fill:url(#SVGID_9_);}
	.st15{fill:#EB459F;}
	.st16{fill:#BF1378;}
	.st17{fill:#D92C8C;}
	.st18{fill:#FFAB19;}
	.st19{fill:#FF860D;}
	.st20{fill:#FF99CA;}
	.st21{fill:#FFE75C;}
	.st22{fill:#FFC619;}
	.st23{fill:#29CC7A;}
	.st24{fill:#5865F2;}
	.st25{fill:#57F287;}
	.st26{fill:#808AFF;}
	.st27{fill:#2BD981;}
	.st28{fill:#D11583;}
	.st29{fill:#4754EB;}
	.st30{fill:#8CD9FF;}
	.st31{fill:#A6E2FF;}
	.st32{fill:url(#SVGID_10_);}
	.st33{fill:#1D2CC2;}
	.st34{fill:#FFF2A6;}
	.st35{fill:#FF78B9;}
	.st36{fill:#91CFFF;}
	.st37{fill:#3442D9;}
	.st38{fill:#FFC926;}
	.st39{fill:#ED5F00;}
	.st40{fill:none;stroke:#66BCFF;stroke-width:2.2266;stroke-linecap:square;}
	.st41{fill:#737EFF;}
	.st42{fill:#FF8C19;}
	.st43{fill:url(#SVGID_11_);}
	.st44{fill:url(#SVGID_12_);}
	.st45{fill:#FA8014;}
	.st46{fill:url(#SVGID_13_);}
	.st47{fill:#B0E5FF;}
	.st48{fill:#459FF7;}
	.st49{fill:#91FFAD;}
	.st50{fill:#0C1AAD;}
	.st51{fill:#3DDB7F;}
</style>
<g id="Background">
	<g>
		<defs>
			<rect id="SVGID_1_" width="1920" height="913.1"/>
		</defs>
		<clipPath id="SVGID_2_">
			<use xlink:href="#SVGID_1_"  style="overflow:visible;"/>
		</clipPath>
		<g class="st0">
			<g>
				<g>
					
						<linearGradient id="SVGID_3_" gradientUnits="userSpaceOnUse" x1="988.9313" y1="854.2899" x2="988.9313" y2="-135.6856" gradientTransform="matrix(1 0 0 -1 0 915.1336)">
						<stop  offset="0" style="stop-color:#4E1BF5"/>
						<stop  offset="0.58" style="stop-color:#5E4EEE"/>
						<stop  offset="0.92" style="stop-color:#6668EB"/>
					</linearGradient>
					<path class="st1" d="M2451.3,0H-473.5v914.5h2924.8V0z"/>
					
						<linearGradient id="SVGID_4_" gradientUnits="userSpaceOnUse" x1="-281.6961" y1="626.1447" x2="-219.9198" y2="887.6685" gradientTransform="matrix(1 0 0 -1 0 915.1336)">
						<stop  offset="0" style="stop-color:#5521FF"/>
						<stop  offset="1" style="stop-color:#4B1AEB"/>
					</linearGradient>
					<path class="st2" d="M46.6,0c-282.1,221.7-520.1,545-520.1,545V0H46.6z"/>
					
						<linearGradient id="SVGID_5_" gradientUnits="userSpaceOnUse" x1="855.1216" y1="883.567" x2="-152.5178" y2="116.6111" gradientTransform="matrix(1 0 0 -1 0 915.1336)">
						<stop  offset="0" style="stop-color:#5625F7"/>
						<stop  offset="0.3" style="stop-color:#5930F9"/>
						<stop  offset="0.81" style="stop-color:#624DFD"/>
						<stop  offset="1" style="stop-color:#6659FF"/>
					</linearGradient>
					<path class="st3" d="M1138.1,0C604.6,350.9-203.7,914.5-203.7,914.5h-269.8L655.1,0H1138.1z"/>
					
						<linearGradient id="SVGID_6_" gradientUnits="userSpaceOnUse" x1="1844.5343" y1="868.6589" x2="1133.2024" y2="420.961" gradientTransform="matrix(1 0 0 -1 0 915.1336)">
						<stop  offset="0" style="stop-color:#5323F5"/>
						<stop  offset="1" style="stop-color:#5946F5"/>
					</linearGradient>
					<path class="st4" d="M2038.7,0c-438.4,226.8-970.1,516.6-970.1,516.6C1210,390.2,1642.2,81.1,1811.2,0H2038.7z"/>
					<path class="st5" d="M815.3,914.5c152.6-152.7,459.8-159.7,621.9-118.5c130.5-141.3,395.4-183.6,559.1-90.2
						c177,101.1,214.2,208.7,214.2,208.7H815.3z"/>
					<path class="st5" d="M533.9,770.7c-64-121.5-228.4-105.5-336.3-31.1c-194.9-53.2-528.7,23.2-514.9,175h1375.5
						C1001.6,771.8,704.4,702.8,533.9,770.7z"/>
					<path class="st6" d="M1311.6,914.5c-38.8-61.8-156.1-89.7-243.1-73c-42.6-81.3-173.7-126.4-269.8-36.3
						c-86.8-7.7-201.7,20.9-212.6,109.2H1311.6z"/>
					<path class="st7" d="M1415.1,878H975.8c57.7-26.5,158.6-31.8,207.5-15.8C1250,829,1353.7,828.1,1415.1,878L1415.1,878z"/>
					<path class="st7" d="M357.3,841.3h228.2C534.1,819.2,428,820.9,357.3,841.3z"/>
					
						<linearGradient id="SVGID_7_" gradientUnits="userSpaceOnUse" x1="1611.6006" y1="851.1609" x2="1413.1484" y2="749.246" gradientTransform="matrix(1 0 0 -1 0 915.1336)">
						<stop  offset="0" style="stop-color:#5323F5"/>
						<stop  offset="1" style="stop-color:#5330F5"/>
					</linearGradient>
					<path class="st8" d="M1412.6,201.5c147.2-117.8,236.5-176.2,236.5-176.2C1536.8,46,1470.3,111.3,1412.6,201.5z"/>
					
						<linearGradient id="SVGID_8_" gradientUnits="userSpaceOnUse" x1="101197.3594" y1="82597.3438" x2="47474.8125" y2="39034.4531" gradientTransform="matrix(1 0 0 -1 0 915.1336)">
						<stop  offset="0" style="stop-color:#5323F5"/>
						<stop  offset="1" style="stop-color:#5330F5"/>
					</linearGradient>
					<path class="st9" d="M549.2,0C427.8,91.1,284.8,201.3,123.1,330.5C202.7,206.6,286.4,95.3,381.5,0H549.2z"/>
					<path class="st10" d="M1622.2,115l10.7-4.9c0.2,0,0.2-0.2,0-0.5l-10.7-4.6h-0.2l-4.9-10.9h-0.5l-4.7,10.9c-0.1,0-0.1,0-0.2,0.1
						c0,0-0.1,0.1-0.1,0.2l-10.7,4.6c-0.2,0.2-0.2,0.5,0,0.5l10.7,4.9h0.2l4.7,10.9h0.5l4.9-10.9L1622.2,115z"/>
					<path class="st7" d="M1385.8,722.3l10.9-4.6c0.2-0.2,0.2-0.5,0-0.5l-10.9-4.9l-4.9-10.7c0-0.2-0.2-0.2-0.5,0l-4.7,10.7h-0.2
						l-10.7,4.9c-0.2,0-0.2,0.2,0,0.5l10.7,4.6h0.2l4.7,10.7c0.2,0.2,0.5,0.2,0.5,0L1385.8,722.3z"/>
					<path class="st11" d="M292.4,62.7h-0.7l-20.5,29.1v0.7l20.5,29.1h0.7c7-10,13.3-19.1,20.5-29.1v-0.7
						C305.7,81.8,299.4,72.7,292.4,62.7z"/>
					<path class="st10" d="M351.8,132.2l6.7-3c0.2,0,0.2-0.2,0-0.2l-6.7-3.3l-3.3-6.7c0-0.2,0-0.2-0.2,0l-3,6.7l-7,3.3l7,3l3,7h0.2
						l3.3-7V132.2z"/>
				</g>
			</g>
			<path class="st12" d="M29,491.6c20.3-10.2,29-34,19.4-53.1c-9.6-19.1-33.9-26.3-54.2-16.1s-29,34-19.4,53.1
				C-15.6,494.6,8.6,501.8,29,491.6z"/>
			<path class="st13" d="M30.6,490.8c-4.6,2.5-9.6,4.2-14.8,4.9h-0.3c-2.4-0.6-4.7-1.9-6.3-3.8c-2.7-3-4.7-8.5,0-17.9s11-23.6,6-36
				c-1-2.6-2.6-4.8-4.7-6.7c-2-1.9-4.5-3.2-7.1-4c-3.8-1.2-7.9-1.3-11.8-0.4c-3.9,0.9-7.5,2.9-10.4,5.6c1.6-1.8,3.4-3.4,5.2-4.9h0.3
				c2.6-2.1,5.7-3.5,9-4.2c3.3-0.7,6.7-0.6,9.9,0.3c3.2,0.9,6.3,2.4,8.8,4.7c2.5,2.2,4.5,5,5.8,8.1c5.8,14.3-2.5,33-6.3,40.4
				s-3.6,8.8-0.8,11.8C15.8,491.6,22.7,492.4,30.6,490.8L30.6,490.8z"/>
			<path d="M194,906.5c0.5-28.8,16.2-42.8,23.3-48.3c0.8-0.5,1.4-1.2,1.8-2.1c0.4-0.8,0.6-1.8,0.6-2.7c0-0.9-0.3-1.8-0.8-2.7
				c-0.5-0.8-1.2-1.5-2-1.9c-4.4-2.7-14.3-3.8-35.7,2.5c-8.2,24.2,3,55.2,3,55.2H194z"/>
			
				<linearGradient id="SVGID_9_" gradientUnits="userSpaceOnUse" x1="17.6827" y1="252.7412" x2="65.4131" y2="21.7237" gradientTransform="matrix(1 0 0 -1 0 915.1336)">
				<stop  offset="0" style="stop-color:#EB459F"/>
				<stop  offset="0.38" style="stop-color:#DD2B90"/>
				<stop  offset="0.73" style="stop-color:#D41B86"/>
				<stop  offset="1" style="stop-color:#D11583"/>
			</linearGradient>
			<path class="st14" d="M147.9,653.9c24.2-43.9,48.9-70.3,37.3-125.5c-11.5-55.2-76.3-81-123.9-76.6s-78.3,29.7-73.3,68.9
				c-11.5,3.8-48.6,9.1-20,103.3c-39.8,0.8-92.3,4.9-109.3,49.4c-9.3,24.7,0.5,12.4,21.1,68.4c-5.5,17.9-22,77.4-21.1,96.9
				c-12.1,53.6-8.2,83.8-5.2,128H155c8.9-56.8,8.8-114.6-0.3-171.4c-14-73.9,103.8-24.2,103.8-59
				C258.6,701.4,233.6,666.5,147.9,653.9L147.9,653.9z"/>
			<path d="M96,461.9c-0.1,0-0.1,0-0.2-0.1c0-0.1-0.1-0.1-0.1-0.2c-0.3,0-0.6-0.1-0.9-0.2c-0.3-0.1-0.5-0.3-0.7-0.5
				c-0.2-0.2-0.4-0.5-0.5-0.8c-0.1-0.3-0.1-0.6-0.1-0.9c-0.1-5.1-1.6-10.1-4.1-14.5c-2.5-4.4-6.1-8.1-10.5-10.8
				c-0.3-0.2-0.6-0.4-0.8-0.7c-0.2-0.3-0.4-0.6-0.4-0.9c-0.1-0.3-0.1-0.7,0-1c0.1-0.3,0.2-0.7,0.4-0.9c0.3-0.6,0.9-1,1.6-1.2
				c0.7-0.2,1.4-0.2,2,0.2c8,5,13.7,12.8,15.9,22c3.4-4,8.2-6.4,13.5-6.9c0.4,0,0.7,0,1.1,0.1c0.3,0.1,0.7,0.3,1,0.5
				c0.3,0.2,0.5,0.5,0.7,0.8s0.3,0.7,0.3,1c0,0.7-0.3,1.3-0.8,1.8c-0.4,0.5-1,0.8-1.7,1c-3,0.2-5.8,1.4-8.2,3.2
				c-2.3,1.9-4.1,4.4-5,7.2c-0.2,0.5-0.5,1-0.9,1.3C97.1,461.7,96.5,461.9,96,461.9L96,461.9z"/>
			<path d="M158,546.2c3.3,13.2,2.7,40.6,13.7,39c11-1.6,11-24.2,11-24.2L158,546.2z"/>
			<path d="M46.8,611.9c-15.4-1.6-24.7-6.3-33.8-14.8c-2.7-4.1-4.9-8-6.9-11.5c-5.8-11.5-11-26.4-3.3-33.8s9.1-4.9,14.8-1.4
				c3.4,3.5,6.6,7.2,9.6,11c9.9,11.8,16.2,13.7,31.6,12.9c5.8-0.4,11.6-1.2,17.3-2.5c8,0.8,14.3,3.8,15.7,12.4v2.5
				C88,596.2,69.3,614.1,46.8,611.9z"/>
			<path class="st12" d="M215.9,580.2c23.6-7.3,36.4-33.7,28.6-58.9c-7.8-25.2-33.3-39.7-56.9-32.4c-23.6,7.3-36.4,33.7-28.6,58.9
				C166.8,573,192.3,587.5,215.9,580.2z"/>
			<path class="st15" d="M-111.9,767.9c-107.1,10.2-138.7,7.7-150.5-18.7c-11.8-26.4-3.6-50,58.5-110.9c3.7-3.6,6.6-8,8.4-12.8
				c1.8-4.8,2.6-10,2.3-15.2c-0.8-11.5-3.8-23.6-9.6-40.1s-7.4-26.9-1.6-31.6s14-3,20.6,7.1c9.5,14.8,16,31.3,18.9,48.6
				c10.2-22.2,19.5-27.5,30.2-24.7c10.7,2.7,15.4,7.1,15.9,21.4c0.1,12.3-0.5,24.6-1.9,36.8l30.5,23.3L-111.9,767.9z"/>
			<path d="M-195.9,742.3c-0.5,0-0.9-0.2-1.3-0.4c-0.4-0.2-0.7-0.6-0.9-1c-0.2-0.3-0.4-0.6-0.4-0.9c-0.1-0.3-0.1-0.7-0.1-1
				c0.1-0.3,0.2-0.7,0.4-0.9c0.2-0.3,0.4-0.5,0.7-0.7c32.4-21.4,65.1-53.3,77.7-65.9c0.5-0.4,1.1-0.7,1.8-0.7c0.7,0,1.3,0.2,1.8,0.7
				c0.5,0.5,0.8,1.2,0.8,1.9s-0.1,1.4-0.6,2c-12.9,12.6-45.9,44.8-78.5,66.5L-195.9,742.3z"/>
			<path class="st15" d="M276.4,649.5c20.6-4.9,34.1-4.9,40.9,6c6.9,11,3.3,20.6-2.7,29.9C308.5,694.8,286.3,684.9,276.4,649.5z"/>
			<path class="st15" d="M270.6,650c-10.4-12.4-13.7-23.1-16.8-38.2c-3-15.1-9.3-15.9-16.5-12.1c-7.1,3.8-10.4,17.3-3.8,38.4
				L270.6,650z"/>
			<path class="st16" d="M91.9,586.6C64.9,567.9,33.6,576.4,13,597c7.4,11,18.4,21.7,33.8,23.3C69.3,622.9,92.4,603.4,91.9,586.6z"
				/>
			<path d="M36.7,607.7h-1.1c-0.6-0.3-1.2-0.8-1.4-1.5c-0.3-0.7-0.2-1.4,0-2.1c4.9-10.7,19.5-34.9,47.2-29.7
				c0.7,0.2,1.2,0.6,1.6,1.1c0.4,0.5,0.6,1.2,0.6,1.9c-0.1,0.4-0.2,0.7-0.4,1c-0.2,0.3-0.5,0.6-0.8,0.8c-0.3,0.2-0.7,0.3-1,0.4
				c-0.4,0.1-0.7,0.1-1.1,0c-23.1-4.4-35.7,14.8-41.2,26.6c-0.3,0.4-0.6,0.8-1.1,1C37.6,607.6,37.2,607.7,36.7,607.7L36.7,607.7z"/>
			<path class="st12" d="M58.9,572.3c-15.4,1.1-20.6,0-30.5-12.1c-3.1-3.7-6.7-7-10.7-9.6c-1.1,11.3,0,16.5,9.1,17.9
				c0.3,12.4,3.8,14.8,10.4,15.4c6.6,0.5,11.3-1.1,13.5-5.8c2.5,6.3,4.7,9.1,13.5,8.2s12.6-4.1,12.1-14.6
				C70.4,571.6,64.7,571.7,58.9,572.3z"/>
			<path class="st12" d="M75.4,546.8c-2.5-4.4,0.3-9.9,7.1-14.6c6.9-4.7,17.3-5.5,24.2-0.5c6.9,4.9,6.3,9.1,3.8,11.8
				c-2.5,2.7-5.8,2.5-13.2,1.1c-5.3-0.7-10.7,0.6-15.1,3.6C79,549.5,76.5,548.7,75.4,546.8z"/>
			<path class="st12" d="M24,507.2c8.2,2.2,11.8,10.7,12.4,16.5c0.5,5.8,0,10.2-3.6,11c-3.6,0.8-5.8-3.6-7.7-7.4s-4.4-7.7-11.3-9.3
				c-0.8,0-1.6-0.3-2.3-0.7c-0.7-0.4-1.3-0.9-1.8-1.6c-0.5-0.7-0.7-1.4-0.9-2.2c-0.1-0.8,0-1.6,0.2-2.4
				C10.3,507.8,13.9,504.8,24,507.2z"/>
			<path class="st13" d="M242.4,517.1c1.5,3.8,2.1,8,1.7,12.1c-0.4,4.1-1.7,8.1-3.9,11.5c-2.1,3.2-5,5.7-8.5,7.3
				c-3.4,1.6-7.2,2.3-11,2c-6.3-0.8-17.6-5.2-25-26.6c-4.4-12.1-12.9-20-22.8-19.2c-4.1,0.3-9.1,2.5-12.4,9.6l-1.6,4.4
				c1.3-2.5,3.3-4.7,5.7-6.2c2.4-1.5,5.2-2.4,8.1-2.5c7.7-0.3,14.6,5.8,18.1,15.7c8.2,24.2,22,29.1,29.1,30.2h3
				c3.9,0,7.8-0.9,11.3-2.7c3.5-1.7,6.6-4.2,9-7.2c1.3-1.7,2.2-3.6,2.7-5.6c0.5-2,0.6-4.1,0.3-6.2
				C245.9,527.9,244.6,522.3,242.4,517.1L242.4,517.1z"/>
			<path d="M97.4,544.6c7.4,1.4,11.3,1.4,13.2-1.1l0.5-0.5c-0.6-2.1-1.7-4-3.4-5.5c-1.7-1.4-3.7-2.3-5.9-2.5c-3-0.4-6.1,0.3-8.7,2
				c-2.5,1.7-4.3,4.3-5.1,7.3v1.1C91,544.4,94.2,544.1,97.4,544.6z"/>
			<path d="M22.9,523.7l2.2,3.6c1.9,3.8,3.6,8.5,7.7,7.4c4.1-1.1,4.1-5.2,3.6-11c0-0.8-0.3-1.6-0.3-2.7l-3.8-1.4
				c-1.8-0.2-3.6,0.1-5.2,0.8C25.4,521.2,24,522.3,22.9,523.7L22.9,523.7z"/>
			<path class="st16" d="M104.5,514.6c-0.8,1.1-2.5,0.5-6,0c-3.1-0.3-6.2,0.1-9.1,1.1c-5.8,1.9-8.5,0.8-8.5-1.6s4.9-5.5,13.7-5.8
				C103.4,508.1,105.3,513,104.5,514.6L104.5,514.6z"/>
			<path class="st16" d="M25.7,496.5c-0.3,1.4,1.6,1.9,4.9,3.6c2.6,1.4,5,3.2,6.9,5.5c4.1,4.9,6.9,5.5,8.2,3.3
				c1.4-2.2-1.4-7.1-8.5-12.4S25.7,494.9,25.7,496.5z"/>
			<path class="st17" d="M54.8,655.3c-5.2,0-10.4-0.6-15.4-1.9c-8.8-2.4-17.1-6.5-24.3-12.1c-7.2-5.6-13.2-12.6-17.7-20.6
				c-0.2-0.3-0.3-0.6-0.4-1c0-0.4,0-0.7,0.1-1c0.1-0.3,0.3-0.7,0.5-0.9c0.2-0.3,0.5-0.5,0.8-0.6c0.6-0.3,1.3-0.4,1.9-0.3
				c0.7,0.2,1.2,0.5,1.6,1.1c4.1,7.4,9.6,14,16.3,19.2c6.7,5.2,14.3,9.1,22.5,11.3c16.2,4.1,33.5,0.8,49.7-9.3
				c0.3-0.2,0.6-0.3,1-0.4c0.4-0.1,0.7-0.1,1.1,0c0.4,0.1,0.7,0.2,1,0.4c0.3,0.2,0.6,0.5,0.7,0.8c0.3,0.6,0.3,1.3,0.2,1.9
				c-0.2,0.6-0.5,1.2-1,1.6C82,651,68.6,655.1,54.8,655.3L54.8,655.3z"/>
			<path d="M-147.1,606.9c-0.6,0-1.2-0.3-1.7-0.7c-0.5-0.4-0.8-0.9-1-1.5c-0.8-6.3-1.6-15.4-1.6-15.9c0-0.3,0-0.7,0.1-1
				c0.1-0.3,0.3-0.6,0.5-0.9c0.2-0.3,0.5-0.5,0.8-0.6c0.3-0.1,0.7-0.2,1-0.2c1.4-0.3,2.5,0.8,2.7,2.5c0.3,1.6,0.8,9.3,1.6,15.4
				c0.1,0.7-0.1,1.4-0.5,1.9c-0.4,0.6-1,0.9-1.7,1.1H-147.1z"/>
			<path d="M295.9,669.3h-1.4c-0.3-0.2-0.6-0.5-0.8-0.7c-0.2-0.3-0.4-0.6-0.4-1c-0.1-0.4-0.1-0.7,0-1.1c0.1-0.4,0.2-0.7,0.4-1l6-8.2
				c0.2-0.3,0.4-0.6,0.7-0.8c0.3-0.2,0.6-0.4,0.9-0.4c0.3-0.1,0.7-0.1,1,0c0.3,0.1,0.7,0.2,0.9,0.4c0.5,0.5,0.9,1.1,1,1.8
				c0.1,0.7,0,1.4-0.4,2l-5.8,8.2c-0.3,0.3-0.6,0.5-1,0.7C296.7,669.3,296.3,669.3,295.9,669.3L295.9,669.3z"/>
			<path class="st18" d="M246.2,784.1L190.5,736c-64,29.1-45.9,63.7-18.9,230.7h28.8C183.3,827.2,175.3,798.6,246.2,784.1z"/>
			<path class="st19" d="M184.7,810.7c-12.3-12.9-23.2-27.1-32.4-42.3c-0.9,2.1-1.6,4.2-2.2,6.3c8.9,14.2,19.2,27.6,30.8,39.8
				l10.4,10.2c0.3-1.9,0.8-3.9,1.4-5.8L184.7,810.7z"/>
			<path class="st18" d="M431.6,809.9c-3,38.2-0.5,65.1-31.9,112.3h21.7c29.9-44.8,36.5-62.1,37.9-98.9L431.6,809.9z"/>
			<path class="st19" d="M441.7,851.9l-13.2-3.6c-0.3,1.7-0.5,3.5-0.5,5.2l12.6,3.3c4.4,1.4,9.1,2.2,13.7,3.3
				c0.3-1.9,0.8-3.6,1.1-5.2L441.7,851.9z"/>
			<path class="st20" d="M131.3,475.2c0.9-1.8-2.3-5.1-7.1-7.4c-4.8-2.3-9.4-2.7-10.2-1c-0.9,1.8,2.3,5.1,7.1,7.4
				C125.9,476.5,130.4,476.9,131.3,475.2z"/>
			<path class="st17" d="M172.9,658.6l-4.4-1.1c-39.8,41.5-90.4,59.3-131.8,46.7s-62.3-59.3-68.7-80.2h-5.5
				c6,21.1,25.3,70.6,72.5,85.1c9.5,2.8,19.3,4.1,29.1,4.1c36.5,0,75.8-18.4,108.2-51.9c0.3-0.4,0.5-0.8,0.6-1.3
				C173,659.5,173,659,172.9,658.6z"/>
			<path class="st21" d="M466.2,682.4c-0.4,0-0.7-0.1-1.1-0.2c-0.3-0.1-0.6-0.4-0.9-0.6c-2.2-2.8-3.5-6.2-3.7-9.8
				c-0.2-3.6,0.6-7.1,2.3-10.2c0.3-0.6,0.9-1,1.6-1.2c0.7-0.2,1.4-0.2,2,0.2c0.3,0.1,0.6,0.4,0.8,0.6c0.2,0.3,0.4,0.6,0.5,0.9
				c0.1,0.3,0.1,0.7,0.1,1s-0.2,0.7-0.4,1c-1.2,2.2-1.8,4.6-1.7,7.1c0.1,2.5,0.9,4.9,2.2,6.9c0.2,0.2,0.4,0.5,0.5,0.9
				c0.1,0.3,0.2,0.7,0.1,1c0,0.3-0.1,0.7-0.3,1c-0.2,0.3-0.4,0.6-0.6,0.8c-0.2,0.3-0.4,0.5-0.7,0.6
				C466.8,682.4,466.5,682.5,466.2,682.4L466.2,682.4z"/>
			<path d="M458.2,900.2c10.2-20.9,23.6-40.6,28.8-45.9s20-8.2,39.8,23.1c4.1,6.6-7.1,13.5-44.8,29.1L458.2,900.2z"/>
			<path d="M-36.4,901.6c-12.4-15.4-42.3-24.4-70.3-24.4c-0.8,0-1.6-0.2-2.4-0.6c-0.7-0.4-1.4-0.9-1.9-1.6c-0.5-0.7-0.8-1.4-0.9-2.3
				c-0.1-0.8-0.1-1.7,0.2-2.4c0.4-1,0.9-1.9,1.6-2.7c3.5-3.6,7.8-6.4,12.6-8.1c4.8-1.7,9.9-2.3,14.9-1.7c0.9,0.1,1.9,0.3,2.7,0.7
				c0.8,0.4,1.6,1,2.2,1.7c0.6,0.7,1.1,1.5,1.4,2.4c0.3,0.9,0.4,1.8,0.3,2.8c26.9,9.9,37.3,26.1,43.1,36.3L-36.4,901.6z"/>
			<path d="M-76.2,815.9c1.9,14-43.7,37.9-101.9,53.8c-58.2,15.9-106.6,17.3-108.5,3.3s44.8-43.4,103-60.1
				C-125.4,796.1-78.1,801.9-76.2,815.9L-76.2,815.9z"/>
			<path d="M632.1,854.2h-0.8c-0.5-0.2-1-0.6-1.2-1.1c-0.3-0.5-0.3-1.1-0.1-1.7c5.2-14,4.9-16.5-2.2-29.4c-0.1-0.3-0.2-0.6-0.2-0.9
				c0-0.3,0-0.6,0.1-0.9c0.1-0.3,0.3-0.5,0.5-0.8c0.2-0.2,0.5-0.4,0.7-0.5c0.2-0.2,0.5-0.3,0.8-0.4c0.3-0.1,0.6-0.1,0.9,0
				c0.3,0.1,0.6,0.2,0.8,0.4c0.2,0.2,0.4,0.5,0.5,0.8c7.7,14,8,17.9,2.5,33c-0.2,0.4-0.5,0.8-0.9,1
				C633,854.1,632.5,854.2,632.1,854.2L632.1,854.2z"/>
			<path d="M562,774.8c-6-7-10.9-14.9-14.6-23.3c-3.7-8.2-5.4-17.1-4.9-26.1v-0.5c0-0.3,0.1-0.6,0.2-0.8c0.1-0.3,0.3-0.5,0.5-0.7
				c0.2-0.2,0.5-0.3,0.7-0.4c0.3-0.1,0.5-0.1,0.8-0.1c0.5,0,1.1,0.2,1.5,0.5c0.4,0.4,0.7,0.8,0.7,1.4c0.9,7.9,3.6,15.5,7.7,22.2
				c4.5,6.7,9.7,12.7,15.7,18.1l0.8,0.5c1.3,1.1,2.1,2.7,2.2,4.4c0.2,1.7-0.3,3.4-1.4,4.7c-0.6,0.6-1.2,1.2-2,1.5
				c-0.8,0.4-1.6,0.6-2.4,0.6c-0.8,0.1-1.7-0.1-2.5-0.3c-0.8-0.3-1.5-0.7-2.2-1.3L562,774.8z"/>
			<path class="st21" d="M655.1,785c-0.5,0-1-0.1-1.4-0.4c-0.4-0.3-0.7-0.7-0.8-1.2c-4.4-15.1,3.3-35.4,21.7-41.2
				c0.5-0.1,1,0,1.5,0.3c0.5,0.3,0.8,0.7,1,1.2c0.2,0.5,0.1,1,0,1.5c-0.2,0.5-0.6,0.9-1,1.1c-7.1,2.5-13,7.6-16.4,14.3
				c-3.5,6.7-4.3,14.4-2.2,21.7c0.2,0.5,0.1,1.1-0.1,1.7c-0.3,0.5-0.7,0.9-1.2,1.1H655.1z"/>
			<path class="st21" d="M688.9,789.9c-0.4,0-0.7-0.1-1.1-0.2c-0.3-0.1-0.6-0.4-0.9-0.6c-4.9-6.6-8.5-10.7-10.4-11
				c-2.2,0-5.5,4.4-11,10.7c-0.4,0.4-0.9,0.7-1.5,0.7c-0.6,0.1-1.1-0.1-1.6-0.5c-0.3-0.2-0.5-0.4-0.6-0.7c-0.2-0.3-0.2-0.6-0.3-0.9
				c0-0.3,0-0.6,0.1-0.9c0.1-0.3,0.3-0.6,0.5-0.8c6.9-8.2,10.2-12.1,14.3-12.1s7.4,4.1,14,12.6c0.4,0.5,0.5,1.1,0.5,1.7
				c0,0.6-0.3,1.2-0.8,1.6L688.9,789.9z"/>
			<path d="M607,807.7c12.3-12.6,9.3-35.4-6.5-50.8c-15.9-15.4-38.7-17.7-51-5.1c-12.3,12.6-9.3,35.4,6.5,50.8
				C572,818,594.8,820.3,607,807.7z"/>
			<path class="st21" d="M607.9,766.9h-0.3C607.9,767.1,607.9,767.1,607.9,766.9z"/>
			<path class="st21" d="M567.8,756.2c24.4-6,34.6,3.8,39,9.1c-9.3-13.5-25.3-22-40.1-20.3c-14.8,1.6-29.1,20-22.5,39.8
				c1.7,5.6,4.6,10.7,8.5,15.1c-2.7-3.7-4.5-7.9-5.2-12.4c-0.7-4.5-0.3-9.1,1.2-13.4c1.5-4.3,4-8.2,7.3-11.3
				C559.4,759.6,563.4,757.4,567.8,756.2L567.8,756.2z"/>
			<path class="st21" d="M614.8,788.8c-0.1-4-0.8-8-1.9-11.8c-0.4-1-0.9-2-1.4-3c-5.2-7.1-15.4-11-27.2-5.5
				c-11.8,5.5-16.8,18.1-15.9,29.4c0.1,2.7,0.8,5.3,2,7.7c1.2,2.4,2.8,4.6,4.8,6.3c2,1.8,4.4,3.1,6.9,3.9c2.6,0.8,5.2,1.2,7.9,0.9
				c6.3-0.5,12.2-3.2,16.7-7.7c4.5-4.5,7.2-10.4,7.7-16.7h-0.8C614.1,791.3,614.5,790.1,614.8,788.8L614.8,788.8z"/>
			<path class="st12" d="M608.7,700.4c12.9,23.2,16,50.6,8.8,76.1c0,0-34.6-14.8-48.9-34.6c-14.3-19.8-16.8-45-5.8-56.6
				C573.9,673.8,596.9,679.5,608.7,700.4L608.7,700.4z"/>
			<path class="st13" d="M637,729.5c-8.9,14.1-13.9,30.3-14.6,47c0,0,17-8.8,26.1-21.1c9.1-12.4,13.7-27.7,10.7-34.9
				C656.2,713.3,645.3,716.6,637,729.5L637,729.5z"/>
			<path class="st18" d="M596.4,825.3l-0.5,1.4c-5.8,18.1-30.2,29.9-63.7,33.2c-8.8,1.1-13.5-6.6-15.9-11.5
				c-0.3,4.7-4.4,12.4-18.9,12.1c-18.8-1.2-37.5-4.1-55.7-8.8c-15.7-4-31.1-9-46.1-15.1c-5.5-2.5-5.5-7.1-4.9-11.8
				c-3,4.7-6.3,6.9-12.4,3.8c-42.3-20.6-70.6-51.6-63.2-76.3c7.4-24.7,49.2-37.9,101.6-34.3c4.7,0.3,6,2.7,6.3,4.9
				c0.1,1.2-0.2,2.4-0.9,3.3c-0.7,1-1.7,1.6-2.9,1.9l34.9,61.5l68.4-35.7c-1.1-4.7,1.9-8.8,9.3-5.2c32.7,16.2,56.3,37.1,63.2,55.7
				c1.1,3-1.4,5.8-5.5,6.6c2.8,1,5.1,3,6.4,5.7C597,819.3,597.2,822.4,596.4,825.3L596.4,825.3z"/>
			<path class="st21" d="M573.8,811.5c-8.2,24.2-64.8,31.6-128,15.7c-63.2-15.9-110.1-50.5-101.1-75.8c6-17,36-25.3,74.1-23.3
				c25.5,17,33.8,48.1,34.9,61.5c10.2-17.9,45-35.2,68.4-35.7C558.5,771.2,579.9,793.7,573.8,811.5L573.8,811.5z"/>
			<path class="st19" d="M454.1,789.3h-0.3c-25.5-20-62.6-30.2-109.9-30.2h-0.3c0,1.8,0.3,3.5,0.8,5.2c42.6,0,76.3,8.5,100.8,25.3
				c-14.3,1.4-34.9,8.5-47.2,20.9l5.2,2.2c14-12.6,38.2-19.2,49.4-17.9c11.3,1.4,45.6,19.2,56.8,40.6h5.8
				c-9.3-20.6-34.3-36-51.9-42.8c39-6.9,79.6-1.1,110.9,16.8c0.4-2,0.5-4,0.3-6C540.3,784.9,495.6,779.7,454.1,789.3L454.1,789.3z"
				/>
			<path class="st18" d="M347.4,859.4c37.4-32.8,22.5-111-33.3-174.8c-55.8-63.8-131.5-88.9-168.9-56.2
				c-37.4,32.8-22.5,111,33.3,174.8C234.3,867,309.9,892.1,347.4,859.4L347.4,859.4z"/>
			<path class="st19" d="M363.7,869.2c1.6,6.3-16.2,9.3-39.8,6.6c-23.6-2.7-40.6-7.7-45.6-16.2c-4.9-8.5,13.5-15.7,41.7-9.9
				C344,854.4,362.1,862.9,363.7,869.2L363.7,869.2z"/>
			<path class="st21" d="M338.5,827.8c27-24.8,11.1-86.2-35.7-137c-46.7-50.8-106.5-71.8-133.5-47c-27,24.8-11.1,86.2,35.7,137
				C251.8,831.6,311.5,852.7,338.5,827.8L338.5,827.8z"/>
			<path class="st18" d="M-13,814c-80.5,23.6-157.1,12.4-169.4-25.5c-9.3-29.4,10.7-57.9,53.6-81l1.4-0.5c10.2-5.2,14.8,4.1,11,9.3
				l75,34.1l58.8-75.5c-3.8-1.1-3.6-8,2.2-8.8h0.8c50.3-2.7,79.9,11.3,89,37.3C122.1,740.9,67.4,790.6-13,814L-13,814z"/>
			<path class="st18" d="M-24.6,770.9l-37.3,7.1c-6.9,46.1,4.9,73.1,29.1,145.6h19.5C-35.3,836.5-32,804.4-24.6,770.9z"/>
			<path class="st19" d="M-62.2,824.4l0.8,5.2c10.3-1.3,20.7-3.2,31.3-5.8v-5.2C-41.1,821.2-51.8,823.1-62.2,824.4z"/>
			<path class="st21" d="M-6.5,791.2c-69.2,22.8-138.7,17.6-155.2-11.5c-11.5-20.9,8-46.7,45-63.4c23.3,0,55.5,17.3,75,34.1
				c10.4-29.7,34.6-63.7,58.8-75.5c36-3,62.3,4.4,72.2,22.2C105.9,726.1,63,768.4-6.5,791.2L-6.5,791.2z"/>
			<path class="st21" d="M-6.5,791.2c-69.2,22.8-138.7,17.6-155.2-11.5c-11.5-20.9,8-46.7,45-63.4c23.3,0,55.5,17.3,75,34.1
				c10.4-29.7,34.6-63.7,58.8-75.5c36-3,62.3,4.4,72.2,22.2C105.9,726.1,63,768.4-6.5,791.2L-6.5,791.2z"/>
			<path class="st19" d="M342.3,824.2c1.4-1.4,2.5-3.1,3.3-4.9c-17.4-29-43.4-51.8-74.4-65.4c20-11.3,47-16.8,65.9-13.5
				c-0.9-2-1.9-3.9-3-5.8c-19.2-1.9-44.2,3.3-63.7,13.7c6.6-19.2,13.2-50,4.4-82.9l-6.9-5.2c11.5,34.9,3.8,68.4-3,87.9
				c-23.1-38.2-56.8-68.9-103.3-93.6c-0.8,1.6-1.4,3.3-1.9,4.9c44.8,23.9,77.7,53.8,100.2,90.9c-25.4-4.3-51.5-2.9-76.3,4.1l3,4.4
				c25.2-6.6,51.6-7.4,77.2-2.5c8.5,11.3,12.9,46.7,9.3,74.7l4.9,1.9c3.3-23.9,1.1-56.3-6.3-73.3
				C307.2,775.8,331.3,803.3,342.3,824.2L342.3,824.2z"/>
			<path class="st19" d="M-41.6,750h-0.3c-33.2-1.6-79.9,1.4-121.7,24.7c0.5,1.6,1.2,3.2,1.9,4.7h0.3
				c37.1-21.1,78.8-25.5,110.4-24.7c-14,8.8-33.5,26.9-43.1,50.3h5.8c11.5-25.8,35.7-44.8,47.8-49.7h0.3
				c30.5-1.1,54.4,9.6,67.3,22.2L32,775c-11.8-12.4-34.1-24.4-64.8-25c37.3-26.1,90.9-39,125.5-37.1c0.2-1.7,0.3-3.5,0.3-5.2
				C55.3,705.8-3.2,720.6-41.6,750z"/>
			<path class="st19" d="M581.5,1005c-6.3,0.3-5.8-4.1-4.4-11c3.5-19.7,5-39.8,4.4-59.9c-1.2-20.4-5.5-40.5-12.6-59.6
				c-1.7-4.6-1.8-9.7-0.3-14.4c1.5-4.7,4.7-8.7,8.8-11.4c11-7.4,27.5-7.4,56-1.4c34.1,7.7,46.7,15.7,42.8,29.4S656,890.4,656,890.4
				c-3.7,22-13.8,42.5-29.1,58.8c-15.4,15.9-28.3,28.3-37.6,47.8C587,1001.7,585.7,1004.7,581.5,1005L581.5,1005z"/>
			<path class="st18" d="M633.4,847.3c-28.6-6-45-6-56,1.4c8-4.9,18.1-0.3,17.3,9.9c-0.4,4.2-2,8.2-4.4,11.6s-5.8,6.1-9.6,7.9
				l74.1,17.3c0.3-1.6,0.8-3.3,1.1-4.9s16.5,0,20.3-13.7S667.5,855,633.4,847.3z"/>
			<path class="st21" d="M656,890.4c-10.2-4.9-34.3-17.9-75.2-12.4c6.6,9.1,10.7,17.9,8.8,32.4c-1.9,14.6-3.6,23.3-0.3,40.6
				c1.4,8.8,0.6,17.7-2.5,26.1c-3.8,12.6-6.9,21.4-8.2,36.5c-1.4,15.1,3.8,16.5,5.8,16.2c1.9-0.3,4.7-4.7,3.3-19.2
				c3-0.8,5.2-4.7,7.1-13.2c1.9-8.5,9.9-21.1,18.4-29.9C630.2,950.6,651.6,930.3,656,890.4L656,890.4z"/>
			<path class="st22" d="M1365.3,810.5h-0.5l-25.8-2.2c-1.2-0.1-2.3-0.5-3.4-1.1c-1-0.6-2-1.4-2.7-2.3s-1.3-2-1.6-3.2
				c-0.3-1.2-0.4-2.4-0.3-3.6c0.1-1.2,0.4-2.4,1-3.5c0.6-1.1,1.4-2,2.3-2.8c1-0.7,2.1-1.3,3.2-1.6c1.2-0.3,2.4-0.4,3.6-0.2l24.7,1.9
				c1.2,0,2.4,0.3,3.5,0.8c1.1,0.5,2.1,1.2,2.9,2.1c0.8,0.9,1.5,1.9,1.9,3.1c0.4,1.1,0.6,2.4,0.5,3.6c-0.1,2.4-1.2,4.6-2.9,6.3
				S1367.7,810.5,1365.3,810.5L1365.3,810.5z"/>
			<path class="st15" d="M631.8,904.2c0.3,3.2,1.1,6.3,2.2,9.3c2.7,7.4,1.4,13.2-5.2,13.2s-15.9-7.7-17.9-17.3s2.5-17.3,10.4-17.3
				C629.3,892.1,631.5,896.5,631.8,904.2L631.8,904.2z"/>
			<path d="M628.7,822.7c15.5-4.7,24.6-20.1,20.3-34.5c-4.3-14.4-20.5-22.2-36-17.5s-24.6,20.1-20.3,34.5
				C597,819.6,613.1,827.4,628.7,822.7z"/>
			<path class="st18" d="M652.7,811.1c8.9,0,16.2-7.3,16.2-16.2s-7.3-16.2-16.2-16.2s-16.2,7.3-16.2,16.2S643.7,811.1,652.7,811.1z"
				/>
			<path d="M610.1,851.4H609c-0.3-0.1-0.5-0.3-0.7-0.6c-0.2-0.2-0.3-0.5-0.4-0.8c-0.1-0.3-0.1-0.6-0.1-0.9c0-0.3,0.1-0.6,0.3-0.8
				c9.1-17,10.7-21.1,3.6-29.9c-0.4-0.4-0.5-1-0.5-1.6c0-0.6,0.3-1.1,0.7-1.5c0.2-0.2,0.5-0.4,0.8-0.5c0.3-0.1,0.6-0.1,0.9-0.1
				c0.3,0,0.6,0.1,0.9,0.3c0.3,0.2,0.5,0.4,0.7,0.6c9.3,11.5,5.8,18.1-3,34.9C611.7,851.2,610.9,851.5,610.1,851.4L610.1,851.4z"/>
			<path d="M584.3,829.5h-4.1c-0.3,0-0.6-0.1-0.8-0.2c-0.3-0.1-0.5-0.3-0.7-0.5c-0.2-0.2-0.3-0.5-0.4-0.7c-0.1-0.3-0.1-0.5-0.1-0.8
				c0-0.6,0.2-1.1,0.6-1.6c0.4-0.4,1-0.6,1.6-0.6c15.1,0.5,15.4-1.1,16.2-12.1c0-1.2,0-2.4,0.3-3.6c0-0.3,0.1-0.6,0.2-0.9
				c0.1-0.3,0.3-0.5,0.5-0.7c0.2-0.2,0.5-0.4,0.8-0.5c0.3-0.1,0.6-0.1,0.9-0.1c1.1,0.3,2.2,1.4,1.9,2.5c-0.3,1.1-0.3,2.5-0.3,3.6
				C600.2,824.8,598.8,829.5,584.3,829.5L584.3,829.5z"/>
			<path d="M601.9,830.3H601c-0.3,0-0.6-0.1-0.9-0.2c-0.3-0.1-0.5-0.3-0.7-0.5c-0.2-0.2-0.4-0.5-0.5-0.8c-0.1-0.3-0.1-0.6-0.1-0.9
				c0.1-0.6,0.3-1.1,0.7-1.5c0.4-0.4,0.9-0.7,1.5-0.7c5.5,0.3,6.3,0.3,7.7-9.1c0.1-0.6,0.5-1.1,1-1.5c0.5-0.4,1.1-0.5,1.7-0.4
				c0.5,0.2,1,0.5,1.3,0.9c0.3,0.4,0.5,1,0.6,1.5C611.8,828.4,609.3,830.3,601.9,830.3L601.9,830.3z"/>
			<path class="st18" d="M-88.3,612.1c8-3,11-8.5,7.4-15.4s-15.7-12.6-46.7-3.6s-50.5,24.7-52.7,37.9s1.4,18.7,23.9,29.4
				c44.8,21.1,67.3,43.4,77.4,53.8s14.6,14.3,20.9,10.7c6.3-3.6,5.2-6,1.9-31.6S-66,636.9-88.3,612.1L-88.3,612.1z"/>
			<path class="st21" d="M-88.3,612.1c-26.1,0.3-47.8,9.3-68.7,31c6.6,10.4,11.3,15.1,24.4,18.9c13.2,3.8,18.4,8,22.8,14.8
				c4.4,6.9,5.2,18.1,8.8,28c1.6,4.9,4.1,8.5,8,8.5s7.7-4.4,9.6-12.4c2.7,5.4,6.5,10.1,11.3,13.7c6.3,4.1,11.3,9.9,14.6,16.8
				c2.5,5.5,6,4.7,7.1,3.6c1.1-1.1,1.6-3.8-0.8-8.8c3.3-4.7,4.1-21.1-5.5-54.9C-66.3,637.7-76.5,620.9-88.3,612.1z"/>
			<g>
				<path class="st15" d="M-140.2,571.5c1.3-0.8,2.8-1.3,4.3-1.4c1.5-0.1,3.1,0.1,4.5,0.6c8.5,2.7,12.6,7.4,12.6,20.3
					s1.9,39-14.3,38.2c-16.2-0.8-9.3-11.3-12.4-33.5C-147.3,580-144,574-140.2,571.5z"/>
				<path class="st15" d="M-118.8,591c11-1.6,14.3-0.3,29.7,12.9c8.5,7.1,17.6,9.3,22.2,5.5s7.4-12.9-12.1-27.2
					c-28.3-20.3-37.6-19.2-48.9-7.4C-139.1,586.6-136.1,588.2-118.8,591z"/>
				<path class="st15" d="M316.2,665.4l-1.6,20c1.9,18.1,5.5,21.4,10.4,22.2c4.9,0.8,9.6-2.5,10.4-15.9
					C336.3,678.3,331.3,670.4,316.2,665.4z"/>
				<path class="st15" d="M317.3,655.5c7.1,11,3.8,20.9-2.7,29.9c-6.6,9.1-17.6,11.8-22.5,6.6c-4.9-5.2-4.1-8.5,6-23.9
					S317.3,655.5,317.3,655.5z"/>
				<path class="st15" d="M507.1,768.7c-1.6,3.3-10.4,3.8-18.7,6.6c-8.2,2.7-14,4.1-12.1,0.5s9.9-8.8,18.4-10.7
					C503.3,763.2,509,765.4,507.1,768.7L507.1,768.7z"/>
				<path class="st15" d="M393.4,749.7c1.1,3,6.6,6.3,11.8,7.4c9.9,1.9,12.4-1.4,11-4.4s-8-6.9-15.1-7.7S392.3,746.7,393.4,749.7
					L393.4,749.7z"/>
				<path class="st15" d="M544.4,770.1c1.7,0.2,3.3,0.1,4.9-0.3c-3.8-2.7-8.2-5.5-12.9-8.2c-0.5,0.2-0.9,0.6-1.2,1
					c-0.3,0.4-0.5,1-0.5,1.5C534.8,766.8,539,769.2,544.4,770.1L544.4,770.1z"/>
				<path class="st15" d="M441.7,753c-1.3,0.7-2.3,1.9-2.8,3.3c-0.5,1.4-0.3,3,0.3,4.4c0.7,2.2,2,4.1,3.8,5.5
					c1.7,1.5,3.9,2.4,6.1,2.7C447.4,763.4,444.9,758,441.7,753L441.7,753z"/>
				<path class="st15" d="M419.5,784.9c0.5,2.5-5.5,3-12.6,2.7c-7.1-0.3-11.3-3.6-10.4-7.1c0.8-3.6,4.4-3.6,12.1-1.6
					C416.2,780.8,419.5,783.2,419.5,784.9L419.5,784.9z"/>
				<path class="st15" d="M457.3,806.9c0.4-3-4.4-6.2-10.9-7.1c-6.5-0.9-12,0.7-12.5,3.7c-0.4,3,4.4,6.2,10.9,7.1
					C451.3,811.6,456.8,809.9,457.3,806.9z"/>
				<path class="st15" d="M489,820c4.4,3.3,5.2,5.8,0.3,5.8c-4.9,0-9.1-2.5-13.5-5.8s-5.2-6-1.6-6C479.5,814.7,484.6,816.8,489,820z
					"/>
				<path class="st15" d="M547.5,807.7c0,3.8-5.8,6.9-12.9,6.6c-7.1-0.3-14-3.6-15.1-8c-1.1-4.4,6.9-7.1,15.4-6
					C543.4,801.4,547.5,803.8,547.5,807.7z"/>
			</g>
			<path class="st12" d="M663.3,801.4c3-4.2,2.8-9.5-0.5-11.9c-3.3-2.4-8.5-1-11.5,3.2c-3,4.2-2.8,9.5,0.5,11.9
				C655.1,807,660.3,805.5,663.3,801.4L663.3,801.4z"/>
			<path d="M659.3,798.5c1-1.3,0.9-3.1-0.2-3.9c-1.1-0.8-2.8-0.4-3.8,1c-1,1.3-0.9,3.1,0.2,3.9C656.6,800.2,658.3,799.8,659.3,798.5
				z"/>
			<path d="M456.3,724.5h-0.5c-0.3-0.1-0.6-0.2-0.9-0.4c-0.3-0.2-0.5-0.4-0.7-0.7c-0.2-0.3-0.3-0.6-0.4-0.9c-0.1-0.3,0-0.7,0-1
				c2.5-12.1,4.4-14.6,14.8-20.9c0.6-0.3,1.3-0.4,2-0.2c0.7,0.2,1.2,0.7,1.6,1.2c0.3,0.6,0.4,1.3,0.3,1.9c-0.2,0.7-0.5,1.2-1.1,1.6
				c-9.3,5.5-10.2,6.6-12.4,17.3c-0.2,0.6-0.5,1.1-1,1.4C457.5,724.3,456.9,724.5,456.3,724.5L456.3,724.5z"/>
			<path d="M523.3,697.3c3.9,2.3,8.2,4.1,12.6,5.2c4.8,1.2,9.8,1.2,14.6,0h0.8c0.3-0.1,0.7-0.1,1,0c0.3,0.1,0.6,0.2,0.9,0.4
				c0.3,0.2,0.5,0.4,0.7,0.7s0.3,0.6,0.4,0.9c0.2,0.5,0.2,1.1,0,1.6c-0.2,0.5-0.6,0.9-1.1,1.2c-4.8,3.2-10.2,5-15.9,5.5
				c-5.6,0.8-11.2,0.6-16.8-0.5l-2.7-0.5c-1.9-0.5-3.6-1.6-4.6-3.3c-1.1-1.6-1.5-3.6-1.1-5.6c0.4-1.9,1.4-3.7,3-4.8
				c1.6-1.2,3.5-1.7,5.5-1.4L523.3,697.3z"/>
			<path class="st21" d="M462.6,681.9h-1.4c-3.9-1.7-7.2-4.4-9.7-7.7c-2.5-3.4-4.2-7.3-4.8-11.5c-0.1-0.3-0.1-0.7,0-1.1
				c0.1-0.3,0.2-0.7,0.4-1c0.2-0.3,0.5-0.5,0.8-0.7c0.3-0.2,0.7-0.3,1-0.3c0.7-0.1,1.4,0.1,1.9,0.5c0.6,0.4,0.9,1,1.1,1.7
				c0.4,3.3,1.8,6.5,3.9,9.2s4.8,4.7,8,5.9c0.6,0.4,1,0.9,1.2,1.6c0.2,0.6,0.2,1.3-0.1,2c-0.2,0.4-0.5,0.8-0.9,1
				C463.5,681.8,463.1,681.9,462.6,681.9L462.6,681.9z"/>
			<path d="M535.3,712.6c1.4-11.3-8.9-21.9-23-23.7c-14.1-1.8-26.8,5.9-28.2,17.2c-1.4,11.3,8.9,21.9,23,23.7
				C521.3,731.6,533.9,723.9,535.3,712.6z"/>
			<path class="st21" d="M526.9,705.5c-6.9-14.8-15.9-15.9-20.3-16.2c10.4-0.5,21.1,4.1,26.4,12.4c5.2,8.2,1.6,22.5-11,27.2
				c-3.5,1.3-7.2,2-11,1.9c3-0.1,5.9-0.8,8.5-2.3c2.6-1.5,4.8-3.5,6.3-6c1.6-2.5,2.5-5.4,2.7-8.3
				C528.6,711.2,528.1,708.2,526.9,705.5L526.9,705.5z"/>
			<path class="st21" d="M491.4,694.8c2-1.5,4.2-2.7,6.6-3.6l2.2-0.8c5.8-0.3,11.8,3.6,13.7,11.8c0.7,3.8,0.3,7.7-1.2,11.2
				c-1.5,3.5-4.1,6.5-7.3,8.6c-1.4,1-3,1.8-4.7,2.2c-1.7,0.4-3.4,0.4-5.1,0.1c-1.7-0.3-3.3-1-4.8-1.9c-1.4-1-2.7-2.2-3.6-3.6h-0.3
				c-2.2-3.4-3.1-7.6-2.6-11.6c0.5-4.1,2.4-7.8,5.4-10.6h0.5C490.7,695.9,491,695.3,491.4,694.8L491.4,694.8z"/>
			<path class="st12" d="M522.2,652.5c-7.4,4.1-13.9,9.7-19.2,16.4c-5.2,6.7-9.1,14.4-11.3,22.6c0,0,24.2,3.6,38.7-2.7
				s24.4-19.2,22.2-29.1C550.5,649.8,535.9,644.8,522.2,652.5L522.2,652.5z"/>
			<path class="st13" d="M495.8,656.9c2,12.1-0.2,24.5-6.3,35.2c0,0-11.5-10.2-14.6-20.6c-3-10.4-0.5-22.2,5.2-26.1
				S494.2,646.2,495.8,656.9L495.8,656.9z"/>
			<path d="M495.5,713.4c7.2-6.5,7.4-18.1,0.4-25.8c-7-7.8-18.5-8.9-25.7-2.4c-7.2,6.5-7.4,18.1-0.4,25.8S488.3,719.8,495.5,713.4z"
				/>
			<path class="st18" d="M466.2,697.6c5.8,0,10.4-4.7,10.4-10.4s-4.7-10.4-10.4-10.4c-5.8,0-10.4,4.7-10.4,10.4
				S460.4,697.6,466.2,697.6z"/>
			<path d="M471.4,723.9c-0.4,0-0.7-0.1-1.1-0.2c-0.3-0.2-0.6-0.4-0.9-0.7c-0.2-0.3-0.4-0.6-0.5-1c-0.1-0.4-0.1-0.7,0-1.1
				c0.8-13.7,1.1-20.3,12.1-24.2c0.3-0.1,0.7-0.2,1-0.1c0.3,0,0.7,0.1,1,0.3c0.3,0.2,0.6,0.4,0.8,0.6c0.2,0.3,0.4,0.6,0.5,0.9
				c0.1,0.3,0.2,0.7,0.1,1c0,0.3-0.1,0.7-0.3,1c-0.2,0.3-0.4,0.6-0.6,0.8c-0.3,0.2-0.6,0.4-0.9,0.5c-7.1,2.7-7.7,4.9-8.5,19.8
				c-0.1,0.7-0.5,1.3-1,1.7C472.7,723.6,472.1,723.9,471.4,723.9L471.4,723.9z"/>
			<path d="M493.6,743.7c-0.8-0.1-1.6-0.5-2.2-1.1c-7.7-11-6.3-19.8-1.4-31.3c0.3-0.6,0.9-1.1,1.5-1.3s1.4-0.3,2,0
				c0.6,0.3,1.1,0.9,1.3,1.5c0.2,0.7,0.3,1.4,0,2c-5.2,11.8-4.9,17.9,0.8,25.8c0.4,0.6,0.5,1.3,0.4,2c-0.1,0.7-0.4,1.3-1,1.8
				L493.6,743.7z"/>
			<path d="M481.8,736.3c-0.5,0-1.1,0-1.4-0.5c-4.7-3.3-5.2-11.3-1.4-21.4c0.2-0.6,0.7-1.2,1.3-1.5c0.6-0.3,1.3-0.4,2-0.2
				c0.3,0.1,0.7,0.3,0.9,0.6c0.3,0.2,0.5,0.5,0.6,0.9c0.2,0.3,0.2,0.7,0.2,1.1c0,0.4,0,0.7-0.2,1.1c-3.3,8-2.7,14-0.5,15.4
				c0.3,0.2,0.5,0.4,0.7,0.7c0.2,0.3,0.3,0.6,0.4,0.9c0.1,0.3,0,0.7-0.1,1c-0.1,0.3-0.2,0.6-0.4,0.9c-0.2,0.4-0.6,0.6-1,0.8
				C482.7,736.2,482.3,736.3,481.8,736.3z"/>
			<path class="st12" d="M463.1,692.9c2.6-0.2,4.4-3.1,4.1-6.4c-0.3-3.3-2.6-5.8-5.2-5.6c-2.6,0.2-4.4,3.1-4.1,6.4
				C458.2,690.6,460.5,693.2,463.1,692.9z"/>
			<path d="M468.4,688.3c0.9-0.1,1.6-1,1.5-2.1s-0.9-1.9-1.8-1.8s-1.6,1-1.5,2.1S467.5,688.4,468.4,688.3z"/>
			<path d="M-184.7,857.1c10.2,23.1,12.4,35.7,13.7,57.9h14c-0.2-22-2.8-43.9-8-65.4L-184.7,857.1z"/>
			<path class="st19" d="M309.4,861.5c2.2,20.6-4.4,45-4.4,45h9.6c10.7-18.7,9.9-42.8,9.9-42.8L309.4,861.5z"/>
			<path class="st19" d="M110,799.2c3-13.2-4.1-20.9-17-14.3s-23.6,33-22.5,57.7c0.1,2.7,0.9,5.3,2.5,7.4c1.6,2.2,3.8,3.8,6.3,4.7
				c38.7,13.5,80.2,37.1,89,72h12.4C168.8,863.2,143.8,822.2,110,799.2z"/>
			<path class="st18" d="M94.9,848.3l6.6-2.7l8.5-46.4c3-13.2-4.1-20.9-17-14.3S71,814,70.4,837.3C75.7,822,95.7,831,94.9,848.3z"/>
			<path class="st21" d="M177.8,913.1c-12.6-55.7-36.5-92.5-67.8-114c-8.4,15.2-13.5,31.9-15.1,49.2c13.7,9.6,30.5,9.9,41.2,20.3
				c10.7,10.4,27.5,26.1,31.6,44.5H177.8z"/>
			<path class="st19" d="M-9.8,923c0.3-10.4,14.8-49.2,49.4-72.5c1.1-0.8,2.1-1.8,2.8-2.9c0.7-1.2,1.1-2.5,1.2-3.9
				c0.1-1.4-0.2-2.7-0.7-4c-0.5-1.3-1.4-2.4-2.4-3.2c-6.6-6-23.1-8.5-52.5-4.1c-1.9,0.2-3.7,1.1-5.1,2.4s-2.3,3.1-2.5,5
				c-0.3,1.9,0.1,3.8,1,5.5c0.9,1.7,2.4,3,4.1,3.8C-28.2,875-25.7,903-22.7,920L-9.8,923z"/>
			<path class="st18" d="M-4.8,895.8c1.6-8,4.4-15.9,17-25.3c8.2-6.3,5.2-14.3,20-21.7c-14.3-3.6-34.1-2.2-46.7,0.3
				c-11.8,22.2-11.5,46.1-9.3,62.9l14.3,2.5C-7.6,908.4-6,902.1-4.8,895.8z"/>
			<path class="st13" d="M237.7,660.5c8,1.1,13.5,9.3,13.7,19.2c0.3,9.9-8.5,3-13.7-3.6C232.5,669.5,228.1,659.1,237.7,660.5z"/>
			<path class="st13" d="M246.5,763.2c-3.3-1.1-14.3-3-14.3,5.5c0,8.5,11.5,15.1,18.9,14C258.6,781.6,260.5,768.1,246.5,763.2z"/>
			<path class="st13" d="M293.7,721.2c2.5-2.7,7.4-3.8,9.1-1.1c1.6,2.7,1.6,6.3-5.2,7.7C290.7,729.1,290.1,725.6,293.7,721.2
				L293.7,721.2z"/>
			<path class="st23" d="M325.6,767.9c-0.5,0-1-0.2-1.5-0.5c-0.4-0.3-0.8-0.7-1-1.2c-0.8-2.2-3.3-8.8-14.6-5.8
				c-0.3,0.1-0.7,0.1-1,0.1c-0.3,0-0.7-0.1-1-0.3c-0.3-0.2-0.5-0.4-0.8-0.7c-0.2-0.3-0.4-0.6-0.5-0.9s-0.1-0.7-0.1-1
				c0-0.3,0.1-0.7,0.3-1c0.2-0.3,0.4-0.5,0.7-0.8c0.3-0.2,0.6-0.4,0.9-0.5c10.2-3,17.6,0.3,20.9,9.1c0.1,0.3,0.2,0.6,0.2,1
				c0,0.3-0.1,0.7-0.2,1c-0.1,0.3-0.3,0.6-0.6,0.8c-0.2,0.2-0.5,0.4-0.8,0.5L325.6,767.9z"/>
			<path class="st23" d="M200.3,710.2c-4.9,0.1-9.8-1.1-14.2-3.4c-4.3-2.4-8-5.8-10.6-10c-0.2-0.3-0.4-0.6-0.4-0.9
				c-0.1-0.3-0.1-0.7-0.1-1c0-0.3,0.2-0.7,0.4-0.9c0.2-0.3,0.4-0.5,0.7-0.7c0.6-0.4,1.3-0.5,2-0.4c0.7,0.1,1.3,0.4,1.8,1
				c2.1,3.6,5.2,6.5,8.9,8.4c3.7,1.9,7.8,2.8,12,2.5c0.4,0,0.7,0,1.1,0.1c0.4,0.1,0.7,0.3,0.9,0.6c0.3,0.3,0.5,0.6,0.6,0.9
				c0.1,0.4,0.2,0.7,0.1,1.1c0,0.7-0.3,1.3-0.8,1.8c-0.4,0.5-1,0.8-1.7,1L200.3,710.2z"/>
			<path class="st24" d="M42.7,722.8c8.2-1.5,16.1-4.5,23.3-8.8c5.2-3.6-1.1-9.1-17.6-9.3s-32.7,4.7-39,6c-6.3,1.4-5.5,1.1-10.4-2.2
				c-4.9-3.3-8.5-5.8-7.7-2.2c0.8,3.6,1.9,6.6,0.3,10.2c-1.6,3.6-2.7,5.5-2.2,8.2s1.6,1.9,4.4-0.5c2.5-2.6,5.3-5,8.2-7.1
				c1.6-1.1,1.9,0.3,6.6,1.9C19.3,723.8,31.2,725.2,42.7,722.8L42.7,722.8z"/>
			<path class="st13" d="M-88.3,669c5.1,4.8,11.5,8,18.4,9.1c5.5,0.8,5.8-9.3-2.2-20.6c-8-11.3-17-15.7-20.3-18.1
				c-3.3-2.5-2.7-2.2-1.9-6.6c0.8-4.4,0.8-6.9-1.1-4.7c-1.9,2.5-4.3,4.5-7.1,5.8c-2.6,0.8-4.9,2.3-6.9,4.1c-1.9,1.9-1.1,2.2,1.6,1.6
				h8.5c1.1,0,0.3,1.1,0.5,4.9C-98.2,653.9-96.3,661.3-88.3,669L-88.3,669z"/>
			<path class="st13" d="M-107.2,768.1c7.9-3.6,16.5-5.3,25.2-4.8c8.7,0.5,17.1,3.1,24.5,7.6c2.7,1.6,6.6,0.3,11.3-1.6
				s7.1-1.1,4.1,2.5c-3,3.6-9.6,8.8-12.1,14c-2.5,5.2-4.9,2.2-5.5-2.2s-1.4-4.7-8.5-3.3c-7.1,1.4-12.9,2.2-26.9-1.6
				S-112.5,770.3-107.2,768.1z"/>
			<path class="st23" d="M133.9,846.4c-0.5,0-1-0.1-1.4-0.4c-0.4-0.2-0.8-0.6-1.1-1c-4.9-11.5-10.7-15.1-19.5-11.5
				c-0.3,0.1-0.6,0.2-1,0.2c-0.3,0-0.7-0.1-1-0.2c-0.3-0.1-0.6-0.3-0.8-0.6c-0.2-0.2-0.4-0.5-0.5-0.8c-0.3-0.7-0.3-1.4,0-2.1
				c0.3-0.7,0.8-1.2,1.4-1.5c11.5-4.7,20,0,26.4,14.3c0.3,0.7,0.3,1.4,0,2.1c-0.3,0.7-0.8,1.2-1.4,1.5L133.9,846.4z"/>
			<path class="st12" d="M256.9,159c9.9,0,17.9-8,17.9-17.9c0-9.9-8-17.9-17.9-17.9c-9.9,0-17.9,8-17.9,17.9
				C239.1,151,247.1,159,256.9,159z"/>
			<path class="st12" d="M315.1,101.9c12.1,0,22-9.8,22-22s-9.8-22-22-22s-22,9.8-22,22S303,101.9,315.1,101.9z"/>
			<path class="st25" d="M400.3,184c14.9,0,26.9-12,26.9-26.9s-12.1-26.9-26.9-26.9c-14.9,0-26.9,12-26.9,26.9
				C373.4,171.9,385.4,184,400.3,184z"/>
			<path class="st26" d="M420.9,184.8c1.5-1.1,2.4-2.8,2.7-4.7c0.3-1.8-0.2-3.7-1.3-5.2l-16.5-1.9l-1.4,8.2L420.9,184.8z"/>
			<path class="st26" d="M231.6,151.9h-0.3c-1-1.5-1.3-3.4-0.9-5.2c0.4-1.8,1.4-3.4,2.9-4.4l16.2,3.8l-1.4,8L231.6,151.9z"/>
			<path d="M332.7,71.7h-0.5c-0.3-0.1-0.6-0.2-0.9-0.4c-0.3-0.2-0.5-0.4-0.7-0.7c-0.2-0.3-0.3-0.6-0.4-0.9c-0.1-0.3,0-0.7,0-1
				c2.5-15.4,3-37.6-3.6-54.9c-0.3-0.7-0.3-1.4,0-2.1c0.3-0.7,0.8-1.2,1.4-1.5c0.3-0.1,0.7-0.2,1.1-0.2s0.7,0.1,1.1,0.3
				c0.3,0.2,0.6,0.4,0.9,0.6c0.2,0.3,0.4,0.6,0.6,0.9c6.9,18.1,6.3,41.7,3.6,57.7c-0.2,0.6-0.5,1.1-0.9,1.5
				C333.8,71.3,333.3,71.6,332.7,71.7L332.7,71.7z"/>
			<path class="st25" d="M388.5,154.1c31.7,0,57.4-25.7,57.4-57.4c0-31.7-25.7-57.4-57.4-57.4S331.1,65,331.1,96.7
				C331.1,128.4,356.8,154.1,388.5,154.1z"/>
			<path class="st27" d="M390.7,145c-0.6,0-1.1-0.2-1.5-0.6c-0.4-0.3-0.8-0.8-0.9-1.3c-4.1-13.2-11-22.5-20.6-26.9
				c-4.2-1.8-8.7-2.7-13.2-2.6c-4.5,0-9,1-13.2,2.9c-0.3,0.1-0.6,0.2-1,0.2c-0.3,0-0.7-0.1-1-0.2c-0.3-0.1-0.6-0.3-0.8-0.6
				s-0.4-0.5-0.5-0.8c-0.1-0.3-0.2-0.6-0.2-1c0-0.3,0.1-0.7,0.2-1c0.1-0.3,0.3-0.6,0.6-0.8c0.2-0.2,0.5-0.4,0.8-0.5
				c4.8-2.2,10-3.4,15.2-3.4c5.3,0,10.5,1,15.3,3.2c11,5.2,18.9,15.4,23.3,29.9c0.2,0.7,0.1,1.4-0.3,2c-0.4,0.6-0.9,1.1-1.6,1.3
				L390.7,145z"/>
			<path class="st28" d="M332.7,92c12.7,0,23.1-10.3,23.1-23.1s-10.3-23.1-23.1-23.1c-12.7,0-23.1,10.3-23.1,23.1
				C309.6,81.7,320,92,332.7,92z"/>
			<path class="st25" d="M354.4,198c19.4,0,35.2-15.7,35.2-35.2c0-19.4-15.7-35.2-35.2-35.2c-19.4,0-35.2,15.7-35.2,35.2
				C319.3,182.3,335,198,354.4,198z"/>
			<path class="st12" d="M298.4,176c28.8,0,52.2-23.4,52.2-52.2s-23.4-52.2-52.2-52.2c-28.8,0-52.2,23.4-52.2,52.2
				S269.6,176,298.4,176z"/>
			<path class="st12" d="M347.6,173.6c15.8-0.2,28.4-8.6,28.3-18.6c-0.2-10-13.1-17.9-28.8-17.7s-28.4,8.6-28.3,18.6
				C318.9,166,331.8,173.9,347.6,173.6z"/>
			<path class="st26" d="M362.6,321.9l-122.5-21.1c8.2-7.4,16.2-20.3,19.8-40.1l97.5,17C354.1,297.1,357.4,312.2,362.6,321.9z"/>
			<path class="st12" d="M365,280.1c1.5-8.7-22.7-20.1-54.1-25.5c-31.4-5.4-58-2.8-59.5,5.9c-1.5,8.7,22.7,20.1,54.1,25.5
				C336.9,291.4,363.5,288.8,365,280.1z"/>
			<path class="st12" d="M134.4,127.4c8,15.4,10.2,38.4-18.4,36.8c-1.6,14.6-3,25-22,29.7l-20.3,2.7l55.2-71.1L134.4,127.4z"/>
			<path class="st29" d="M-50.9,85.1c-5.7-3.7-10.6-8.5-14.3-14.3c-3.7-5.7-6.1-12.2-7.1-18.9l-3.6-23.3c-0.1-0.6-0.3-1.1-0.7-1.5
				s-0.9-0.7-1.5-0.7c-0.6,0.1-1.1,0.3-1.6,0.7s-0.8,0.9-0.9,1.5l-3.3,23.3c-1.1,6.8-3.6,13.2-7.3,18.9c-3.7,5.7-8.6,10.6-14.4,14.3
				l-3,1.9c-0.6,0.6-1,1.4-1.1,2.2c0,0.4,0.1,0.8,0.3,1.1c0.2,0.3,0.5,0.6,0.8,0.8l3,1.9c5.7,3.8,10.6,8.7,14.4,14.5
				c3.7,5.8,6.2,12.2,7.3,19l3.3,23.3c0.2,0.5,0.5,1,0.9,1.3c0.4,0.3,1,0.5,1.5,0.6c0.5,0,1.1-0.2,1.5-0.5c0.4-0.4,0.7-0.8,0.7-1.4
				l3.6-23.3c1-6.8,3.4-13.3,7.1-19c3.7-5.8,8.6-10.7,14.3-14.5l3.3-1.9c0.3-0.2,0.5-0.5,0.7-0.9c0.1-0.3,0.2-0.7,0.2-1.1
				c0-0.4,0-0.8-0.2-1.2c-0.1-0.4-0.4-0.7-0.6-1L-50.9,85.1z"/>
			<path class="st13" d="M212.7,223c-0.5-8-8.8-9.1-26.9-9.6c-39.8-1.1-101.6-1.9-120.8-2.2c16.2-32.1,28.8-56.3,38.7-75.8
				c13.2-25.5,20.9-40.6,25-50.5c4.1-9.9,4.9-15.7,0.5-20.6c-1-0.9-2.1-1.7-3.4-2.1c-1.3-0.5-2.6-0.7-4-0.6c-3.8,0-9.1,1.4-20,4.4
				C35.6,84.9-50.9,118.4-79.5,129.3l-3,1.4c-26.1,9.9-31.3,18.1-36,27.5s-28.8,66.5-53.3,127.4c-13.2,2.7-20.6,8.2-19.8,14.8
				s6,15.4,10.4,21.1c9.9,13.2,15.9,18.4,22,19.2h1.1c7.1,0,12.6-5.8,16.8-17.9h22.5c44.5,0,100.8,3,125,5.2h3.3
				c6.3,0.5,11.3,1.1,15.9,1.1c12.1,0,20.3-3.3,40.6-14c28-14.3,79.4-43.9,131-75.2C206.9,234,213.5,229.9,212.7,223L212.7,223z"/>
			<path class="st21" d="M-148.7,313.3l-14.8-19.5c18.1-43.7,44.2-101.1,52.2-116.2c8-15.1,11-22,34.9-31.9
				c23.9-9.9,109.6-42,178-64.3c16.8-5.5,15.9-6,28,2.2c5.5,3.8,13.7,11.5,15.9,15.9s1.6,7.7-5.8,19.5c-7.4,11.8-23.3,36-60.1,74.4
				c33.2-8.8,95.6-14,121.4-2.7c3.8,1.6,3.6,4.1,2.7,14c-0.5,4.4-1.4,13.2-1.9,16.8c-0.5,3.6,0,3.3-4.1,5.8
				C186.3,234.3,85,293,46,311.7c-9.6,4.7-19.5,4.4-32.1,3.3C1.2,313.9-94.1,310.6-148.7,313.3L-148.7,313.3z"/>
			<path class="st22" d="M-150.4,302.4c-0.6,0-1.3-0.2-1.8-0.6c-0.5-0.4-0.8-1-1-1.6c0-0.7,0.2-1.3,0.6-1.9c0.4-0.5,1-0.9,1.6-1.1
				l13.5-1.9c39.3-5.5,70.3-9.9,126.6,0.5c1.4,0,2.2,1.4,1.9,3c-0.1,0.3-0.2,0.6-0.4,0.9c-0.2,0.3-0.4,0.5-0.7,0.7
				c-0.3,0.2-0.6,0.3-0.9,0.4c-0.3,0.1-0.7,0-1,0c-55.2-9.9-86-5.8-124.7-0.3l-13.5,1.9L-150.4,302.4z"/>
			<path class="st22" d="M132.5,86C88.3,101.1-27.9,143.9-49,151.9c-26.4,9.9-31,12.4-39,24.4c-8,12.1-64.5,116.4-67,121.1
				c-0.3,0.6-0.3,1.3-0.1,1.9c0.2,0.6,0.6,1.1,1.2,1.4l1.1,0.5c0.5,0,1-0.1,1.4-0.4s0.8-0.6,1.1-1c0.5-1.1,59-109.3,66.5-120.8
				c7.4-11.5,11-12.9,36.5-22.5s142.8-52.5,184.6-66.5L132.5,86z"/>
			<path d="M138.5,225.2l-27.7,17.3l-0.8,35.2l27.5-15.4L138.5,225.2z"/>
			<path d="M129.8,134.3c-15.3,20.9-32.1,40.7-50.3,59.3c0,0-159.8,57.1-216.7,94.2c7.6-6.7,14.8-13.8,21.4-21.4
				c23.9-27.5,44.5-54.9,57.7-80.7c2.5-4.7,6.9-6.3,16.5-10.2c9.6-3.8,153.5-59.3,164.5-63.4C141.8,104.9,139.6,119.2,129.8,134.3z"
				/>
			<path d="M-144.3,294.9c-4.4-5.8-12.6-6-19.2-1.1l14.8,19.5C-142.1,308.7-139.9,301-144.3,294.9z"/>
			<path class="st12" d="M203.9,194.2c0.3,1.6-1.4,4.1-7.1,6.9c-10.2,5.2-104.1,49.7-150.8,72.5c-9.6,4.7-14.8,5.2-19.8,4.1
				c-50.5-12.1-125.5-7.7-163.4,10.2c56.8-37.1,216.7-94.2,216.7-94.2c33.2-8.8,95.6-14,121.4-2.7
				C202.5,191.7,203.6,192.5,203.9,194.2z"/>
			<path d="M110.8,242.5c-39.5-20.9-70-21.1-81.3-20l11.5-10.7l83.2,24.2l-4.1,10.4L110.8,242.5z"/>
			<path class="st12" d="M147.9,127.1c-3.3,7.4-9.3,6.9-18.1,7.1c-4.5-3.5-8.7-7.4-12.6-11.5c0.8,5.5,0,14.6-14,20.3
				c-14,5.8-26.1,3-34.3-4.1c2.2,11.8-0.3,21.7-13.7,27.5c-13.5,5.8-28.8,2.7-41.5-6c2.1,5.2,2,11.1-0.2,16.3
				c-2.2,5.2-6.4,9.3-11.6,11.4c-10.4,4.1-22.2,4.4-40.1-3.6c4.1,11.3,6.9,20,1.9,23.9c-4.9,3.8-12.6,4.4-31,0
				c7.4,13.5-2.2,24.2-7.7,29.1s-11.8,8.8-17.9,6.6c1.6,3.3,1.1,10.2-5.8,16.5c-6.9,6.3-10.4,8.8-17,5.8
				c23.9-27.5,42.6-61,55.7-86.5c2.2-4.7,6.6-6.3,16.2-10.4l182.9-68.7c3.3-1.4,6.6-0.8,7.4,1.9v0.5
				C148.7,112.6,150.6,120.3,147.9,127.1L147.9,127.1z"/>
			<path class="st26" d="M422.4,175.8c0.9-5.4-40.8-17.1-93.3-26.1c-52.5-9.1-95.7-12-96.7-6.7c-0.9,5.4,40.8,17.1,93.3,26.1
				C378.2,178.2,421.4,181.2,422.4,175.8L422.4,175.8z"/>
			<path class="st24" d="M420.9,183.8c0.8-4.5-41.1-15.5-93.6-24.5c-52.5-9.1-95.6-12.8-96.4-8.3c-0.8,4.5,41.1,15.5,93.6,24.5
				C377,184.5,420.1,188.2,420.9,183.8z"/>
			<path class="st26" d="M410.4,181.2c0.3-1.7-37.1-9.4-83.5-17.4c-46.4-8-84.2-13.1-84.5-11.4c-0.3,1.7,37.1,9.4,83.5,17.4
				C372.3,177.8,410.1,182.9,410.4,181.2z"/>
			<path class="st26" d="M389,249.9c-6.6,11.6-16.1,21.3-27.5,28.3l-105.7-18.4c-8.4-10.3-14-22.6-16.2-35.7
				c-4.1-24.7-1.4-49.7,2.7-69.2L409.6,184C406.9,203.8,401.1,228.2,389,249.9z"/>
			<path class="st26" d="M361.5,278.2c-6,3.8-28.3,3.6-54.4-1.1c-26.1-4.7-47-11.5-51.4-17.3l59.9-31.6L361.5,278.2z"/>
			<path class="st24" d="M270.4,267.8c-2.5-0.8-5-1.8-7.4-3c-3.8-8.5-6.4-17.4-7.7-26.6c-3.6-22.5-3.8-50.8-0.5-83.8
				c0-0.3,0.1-0.7,0.2-1c0.1-0.3,0.3-0.6,0.6-0.8c0.3-0.2,0.6-0.4,0.9-0.5c0.3-0.1,0.7-0.1,1-0.1c0.4,0,0.7,0.1,1,0.3
				c0.3,0.2,0.6,0.4,0.8,0.7c0.2,0.3,0.4,0.6,0.5,1c0.1,0.3,0.1,0.7,0.1,1.1c-3,32.4-3,60.4,0.5,82.4
				C262,247.9,265.4,258.2,270.4,267.8L270.4,267.8z"/>
			<path class="st24" d="M398.3,179.1c-8.2,32.1-17.9,58.8-28.8,78.8c-4.4,8.2-9.9,15.7-16.2,22.5h-8c7.9-7.2,14.5-15.8,19.5-25.3
				c10.7-19.8,20.3-45.9,28.3-77.4c0.1-0.4,0.2-0.7,0.4-1c0.2-0.3,0.5-0.6,0.8-0.7c0.3-0.2,0.7-0.3,1-0.3c0.4,0,0.7,0,1.1,0.1
				c0.4,0.1,0.7,0.2,1,0.4c0.3,0.2,0.6,0.5,0.7,0.8c0.2,0.3,0.3,0.7,0.3,1C398.5,178.3,398.5,178.7,398.3,179.1L398.3,179.1z"/>
			<path class="st24" d="M293.4,274.3l-5.8-1.4c-1.2-9.9-1.7-19.9-1.4-29.9c1-27.5,3.6-54.9,7.7-82.1c-0.1-0.4,0-0.8,0.1-1.3
				c0.1-0.4,0.4-0.8,0.7-1.1c0.3-0.3,0.7-0.5,1.1-0.6c0.4-0.1,0.8-0.2,1.3-0.1c0.4,0.1,0.8,0.2,1.2,0.5c0.3,0.2,0.6,0.6,0.8,0.9
				c0.2,0.4,0.3,0.8,0.3,1.2c0,0.4-0.1,0.8-0.3,1.2c-4,27-6.5,54.3-7.7,81.6C291.1,253.7,291.7,264.1,293.4,274.3z"/>
			<path class="st24" d="M359.1,172.2c-6.9,32.4-13.7,59-20.3,79.9c-3,9.6-7,18.9-11.8,27.7l-5.5-0.5c4.8-9.3,8.8-18.9,12.1-28.8
				c8.2-26.1,15-52.6,20.3-79.4c0.1-0.3,0.2-0.6,0.4-0.9c0.2-0.3,0.4-0.5,0.7-0.7c0.3-0.2,0.6-0.3,0.9-0.4c0.3-0.1,0.7,0,1,0
				c0.7,0.1,1.3,0.5,1.7,1.1C359,170.8,359.2,171.5,359.1,172.2L359.1,172.2z"/>
			<path class="st26" d="M364.1,329.9c2.3-13.6-24.6-29.6-60.2-35.8c-35.6-6.1-66.3-0.1-68.7,13.5c-2.4,13.6,24.6,29.6,60.2,35.8
				C331,349.6,361.8,343.5,364.1,329.9L364.1,329.9z"/>
			<path d="M297,145.3l-24.4,6.6v17.6c-3.3,26.4,4.9,31.6,12.4,29.9c7.4-1.6,9.9-11.5,8.2-26.1c-0.3-3.5-0.3-7,0-10.4
				c0.3-1.1,0.1-2.3-0.5-3.3C290.7,154.9,289.9,147.2,297,145.3L297,145.3z"/>
			<path class="st12" d="M301.1,145.3c-8.5-1.1-12.9,4.7-13.5,25.8s-9.9,25.8-18.7,21.7c-8.8-4.1-14.6-16.5,1.4-56.6
				S304.1,134,301.1,145.3z"/>
			<path class="st25" d="M392.3,163.4c6.6,1.6-1.4,15.9,8.8,22.2s17.6-2.5,15.4-14.6C414.3,159,395.6,157.6,392.3,163.4z"/>
			<path class="st15" d="M-26.2,234.3c31.9-12.6,86-21.7,140.6,6.3c62.6,32.1,129.4,32.7,181.3-31.6c-18.4,7.4-32.1,12.1-32.1,12.1
				c12.1-13.5,17.3-29.4,17.3-39.8c-14,21.1-46.1,51.9-84.3,52.5c-47.2,0.3-113.1-49.2-179.9-21.1
				C-19.9,228.2-24.6,228.8-26.2,234.3z"/>
			<path class="st30" d="M165.2,283.4c15.1,2.7,45.9,19.8,31.6,32.7C182.5,329,179.5,303.2,165.2,283.4z"/>
			<path class="st13" d="M144.6,386.9c8,8.5,19.5,32.7,4.9,34.3C135,422.9,144.6,405.6,144.6,386.9z"/>
			<path class="st30" d="M193.2,94.2c6-2.7,15.4-10.7,18.1-17.6c2.7-6.9-6-11.5-10.2-6.3C197,75.5,197.3,83.5,193.2,94.2L193.2,94.2
				z"/>
			<path class="st30" d="M300.3,238.6c15.9-7.4,56-11.8,51.1,9.9S326.7,247.7,300.3,238.6z"/>
			<path class="st31" d="M246.2,120v6.9c11-9.1,23.6-8.2,30.5-2.7c0.5,0.5,1.3,0.7,2,0.7c0.7-0.1,1.4-0.4,1.9-0.9
				c0.2-0.3,0.4-0.6,0.5-1c0.1-0.3,0.1-0.7,0.1-1.1c-0.1-0.4-0.2-0.7-0.4-1c-0.2-0.3-0.4-0.6-0.7-0.8C272,113.7,258.6,112,246.2,120
				z"/>
			<path class="st12" d="M347.5,71.3c2-0.6,2.7-4.5,1.4-8.7c-1.3-4.2-3.9-7.1-6-6.5c-2,0.6-2.7,4.5-1.4,8.7
				C342.8,69,345.5,71.9,347.5,71.3z"/>
			<path class="st27" d="M409.6,138.1l-1.6-0.5c-4.7-3.8-12.6-3.8-18.7-0.3c-0.3,0.2-0.6,0.3-1,0.4c-0.4,0-0.7,0-1-0.1
				c-0.3-0.1-0.7-0.3-0.9-0.5c-0.3-0.2-0.5-0.5-0.6-0.8c-0.2-0.3-0.3-0.6-0.4-0.9c-0.1-0.3-0.1-0.6,0-1c0.1-0.3,0.2-0.6,0.4-0.9
				c0.2-0.3,0.5-0.5,0.8-0.6c3.7-2.3,8.1-3.5,12.4-3.4c4.4,0.1,8.6,1.5,12.3,3.9c0.3,0.2,0.5,0.5,0.6,0.8c0.2,0.3,0.2,0.6,0.3,1
				c0,0.3,0,0.7-0.1,1c-0.1,0.3-0.3,0.6-0.5,0.9c-0.2,0.3-0.5,0.6-0.8,0.8C410.4,138,410,138.1,409.6,138.1L409.6,138.1z"/>
			<path class="st31" d="M345.1,138.1h-11.5c-0.3,0-0.7-0.1-1-0.2c-0.3-0.1-0.6-0.3-0.8-0.6s-0.4-0.6-0.5-0.9
				c-0.1-0.3-0.1-0.7-0.1-1c0-0.7,0.3-1.3,0.7-1.7c0.5-0.5,1.1-0.7,1.7-0.7h11.5c0.7,0,1.3,0.3,1.7,0.7c0.5,0.5,0.7,1.1,0.7,1.7
				c0,0.3,0,0.7-0.1,1c-0.1,0.3-0.3,0.6-0.5,0.9c-0.2,0.3-0.5,0.5-0.8,0.6C345.8,138.1,345.4,138.1,345.1,138.1L345.1,138.1z"/>
			<path d="M134.7,233.4h-1.1c-38.4-18.7-86.5-34.3-152.1-5.8c-0.3,0.1-0.6,0.2-1,0.2c-0.3,0-0.7-0.1-1-0.2
				c-0.3-0.1-0.6-0.3-0.8-0.6c-0.2-0.2-0.4-0.5-0.5-0.8c-0.1-0.3-0.2-0.6-0.2-1c0-0.3,0.1-0.7,0.2-1c0.1-0.3,0.3-0.6,0.6-0.8
				c0.2-0.2,0.5-0.4,0.8-0.5c67.6-29.4,117-13.5,156.3,5.8c0.6,0.3,1.2,0.8,1.4,1.5c0.3,0.7,0.2,1.4,0,2.1c-0.3,0.4-0.7,0.7-1.1,0.8
				C135.6,233.4,135.2,233.4,134.7,233.4L134.7,233.4z"/>
			<path d="M152.3,266.7c1.1-3.3-1.6-5.8-14.8-4.4l-11.8,3.8L110,277.6c11.8,0.3,14.6,1.9,13.5,5.8L152.3,266.7z"/>
			<path class="st12" d="M345.1,243.1c0.8-1.1-0.2-3.2-2.2-4.5c-2-1.4-4.2-1.6-5-0.5s0.2,3.2,2.2,4.5
				C342.1,244,344.3,244.2,345.1,243.1z"/>
			
				<linearGradient id="SVGID_10_" gradientUnits="userSpaceOnUse" x1="1032.2866" y1="108.4316" x2="778.0357" y2="108.4316" gradientTransform="matrix(1 0 0 -1 0 915.1336)">
				<stop  offset="0" style="stop-color:#6672FF"/>
				<stop  offset="1" style="stop-color:#808AFF"/>
			</linearGradient>
			<path class="st32" d="M1035.8,735l-11.3-8.5l-67,28l-51.6,2.7l-88.2-30.5l-38.4-3.8l-10.2,12.4l-31.6,117l87.3,38.2l-12.1-45.6
				l167-18.1l79.4,29.7l5.5-9.9L1035.8,735z"/>
			<path class="st12" d="M813.3,726.8c-3,29.7,10.7,37.9,21.1,36.5c10.4-1.4,18.1-15.4,18.1-15.4c0,17.6,4.7,33.8,22,34.3
				c17.3,0.5,22.5-22.2,22.5-22.2c3,20,12.1,28.3,25.3,28c13.2-0.3,18.9-9.9,20.3-19.5c5.8,12.4,12.4,15.1,19.2,13.7
				c6.9-1.4,11.5-8,11.8-18.1c3.8,9.9,12.4,11.5,18.1,8.8c5.8-2.7,8-9.6,6.6-20.6c3.8,6.3,8.8,7.4,13.7,4.9
				c4.9-2.5,5.5-14.8,1.4-27.2c-39.5,17.3-66.7,36.5-117.5,20.6C845.2,734.7,813.3,726.8,813.3,726.8L813.3,726.8z"/>
			<path class="st33" d="M1365.3,892.1c75.8,0,137.3-8.1,137.3-18.1s-61.5-18.1-137.3-18.1S1228,864,1228,874
				S1289.5,892.1,1365.3,892.1z"/>
			<path class="st33" d="M1480.4,899.8c27.5,0,49.7-4.1,49.7-9.1s-22.3-9.1-49.7-9.1s-49.7,4.1-49.7,9.1S1452.9,899.8,1480.4,899.8z
				"/>
			<path class="st34" d="M1415.9,692.5h-68.7l-61.5,45.9l12.4,14c0.3,0.4,0.8,0.7,1.2,1c0.5,0.2,1,0.4,1.5,0.4h115.1V692.5z"/>
			<path class="st30" d="M819.6,895.7c-3-0.1-5.9-0.9-8.5-2.2c-15.4-7.1-50.3-22.5-76.1-33c-0.6-0.3-1.2-0.6-1.7-1.1
				c-0.5-0.5-0.9-1.1-1.2-1.7c-0.3-0.6-0.4-1.3-0.4-2c0-0.7,0.1-1.4,0.4-2c0.3-0.6,0.6-1.2,1.1-1.7c0.5-0.5,1.1-0.9,1.7-1.2
				c0.6-0.3,1.3-0.4,2-0.4c0.7,0,1.4,0.1,2,0.4c26.1,10.7,61.2,26.1,76.6,33.5c1.6,0.7,3.2,1,4.9,1.1c-0.3-0.3,0-1.6-0.8-4.9
				c-14.8-44.2-31.8-87.5-51.1-129.9c-4.1-9.3-4.1-18.1,0.5-24.4c4.7-6.3,12.9-9.1,23.3-8c23.3,2.7,48.1,9.3,91.7,23.6
				c52.7,17.6,75,9.1,131.3-18.4c2.3-1.1,4.8-1.8,7.3-1.9c2.6-0.1,5.1,0.2,7.5,1.1c2.4,0.9,4.6,2.4,6.4,4.2c1.8,1.8,3.2,4.1,4.1,6.5
				c13.1,34.8,22.6,70.9,28.6,107.7c1.9,11.5-2.5,16.8-5.5,18.9c-3,2.2-9.3,5.2-19.8,0.3l-53.6-24.7c-6.1-3-13-4.2-19.8-3.3
				l-9.9,1.1l-141.2,14.8c3.6,9.9,6.9,19.8,9.9,29.4c3,9.6-0.3,13.7-2.2,15.7C825.2,894.8,822.5,895.8,819.6,895.7L819.6,895.7z
				 M974.8,821.3c6.9,0,13.8,1.5,20,4.4l53.6,24.7c3.8,1.9,7.4,2.2,9.1,1.1c1.6-1.1,2.2-4.7,1.6-9.1c-5.8-36-15.3-71.4-28.3-105.5
				c-0.3-1.1-0.9-2-1.7-2.8c-0.8-0.8-1.7-1.4-2.7-1.8c-2.1-0.7-4.3-0.6-6.3,0.3c-56.8,27.7-82.1,37.9-139.2,18.9
				c-42.8-14-67-20.3-89.5-23.1c-6.3-0.8-11.5,0.5-13.7,3.8c-2.2,3.3-2.2,8.2,0.5,14c14.6,32.7,27.2,62.9,37.6,91.5
				c47.5-4.7,107.7-11.3,143.9-15.1l9.9-1.1L974.8,821.3z"/>
			<path class="st12" d="M888.4,732.8c9.6-1.1,16.4-11.5,15-23.1c-1.4-11.6-10.3-20.1-19.9-18.9c-9.6,1.1-16.4,11.5-15,23.1
				C869.8,725.4,878.8,733.9,888.4,732.8z"/>
			<path class="st12" d="M969,733.8c9-1.1,15.3-10.7,14.1-21.6c-1.3-10.8-9.6-18.8-18.7-17.7c-9,1.1-15.3,10.7-14.1,21.6
				C951.6,726.9,959.9,734.9,969,733.8L969,733.8z"/>
			<path d="M977.5,716.7c0.1-4.1-2-7.5-4.7-7.6c-2.7-0.1-5.1,3.2-5.2,7.2c-0.1,4.1,2,7.5,4.7,7.6C975,724.1,977.3,720.8,977.5,716.7
				L977.5,716.7z"/>
			<path d="M893.2,723.6c2.9-0.1,5.1-3.4,5-7.3c-0.1-3.9-2.6-7.1-5.5-7c-2.9,0.1-5.1,3.4-5,7.3C887.9,720.6,890.4,723.7,893.2,723.6
				z"/>
			<path class="st34" d="M1354.1,696.6c-7.4,21.7-25,42-47.8,53.8c-1.9,1-4.1,1.3-6.3,0.9c-2.1-0.4-4.1-1.5-5.5-3.1l-8.8-9.9
				l69.2-60.4L1354.1,696.6z"/>
			<path class="st33" d="M1398.6,881.7c51.1,0,92.5-41.4,92.5-92.5s-41.4-92.5-92.5-92.5c-51.1,0-92.5,41.4-92.5,92.5
				S1347.4,881.7,1398.6,881.7z"/>
			<path class="st33" d="M1502.6,874H1228c7.7-26.1,47.8-57.4,92.3-68.4l154.6-0.8l2.2-64C1505.1,786.4,1502.6,848.7,1502.6,874
				L1502.6,874z"/>
			<path class="st34" d="M1354.1,696.6c4.7,32.1,33.8,56.6,61.5,66.2h1.9l84.9,0.8c0.5,0,1.1-0.1,1.5-0.3c0.5-0.2,0.9-0.6,1.2-1
				l11.3-14l-64.5-55.7l-5.5-12.9h-92.3L1354.1,696.6z"/>
			<path d="M1358.8,686.3c1.1,1.1,1.7,2.5,1.7,4.1c0,1.5-0.6,3-1.7,4.1l-4.1,4.1l-4.1-4.1c-0.5-0.5-1-1.2-1.2-1.9
				c-0.3-0.7-0.4-1.5-0.4-2.2s0.1-1.5,0.4-2.2c0.3-0.7,0.7-1.3,1.2-1.9c0.5-0.5,1.2-1,1.9-1.2c0.7-0.3,1.5-0.4,2.2-0.4
				c0.8,0,1.5,0.2,2.2,0.4C1357.6,685.3,1358.2,685.7,1358.8,686.3L1358.8,686.3z"/>
			<path class="st35" d="M1519.7,743.3l-60.1-50.8c9.1-13.2,8.5-21.4-4.4-23.9c-27.5-5.2-80.2-5.8-100.2-5.2l0.8,22l70,62.3
				c0.9,0.9,2.1,1.4,3.3,1.4l87.9,1.6c0.5,0,1-0.1,1.5-0.3c0.5-0.2,0.9-0.5,1.3-0.8c0.5-0.4,0.8-0.9,1.1-1.4
				c0.3-0.5,0.4-1.1,0.4-1.7s-0.1-1.2-0.4-1.7C1520.5,744.1,1520.1,743.6,1519.7,743.3L1519.7,743.3z"/>
			<path class="st28" d="M1430.4,747.4c0.3-0.3,0.5-0.7,0.7-1.1c0.1-0.4,0.2-0.8,0.2-1.3c0-0.4-0.1-0.9-0.3-1.2
				c-0.2-0.4-0.5-0.7-0.8-1l-63.2-56.8c7.1-13.7,8.8-22.5-12.1-22.5c-20.9,0-18.7,5.5-14,22.5l-59.6,48.9c-0.3,0.2-0.5,0.5-0.7,0.9
				c-0.2,0.3-0.3,0.7-0.3,1.1c0,0.4,0,0.7,0.1,1.1c0.1,0.4,0.3,0.7,0.5,1c0.2,0.3,0.5,0.5,0.9,0.7c0.3,0.2,0.7,0.3,1.1,0.3
				s0.7,0,1.1-0.1c0.4-0.1,0.7-0.3,1-0.5l67.6-53.8c0.5-0.4,1-0.6,1.6-0.6c0.6,0,1.2,0.2,1.6,0.6l70,62.3c0.3,0.3,0.7,0.5,1.1,0.7
				c0.4,0.1,0.8,0.2,1.3,0.2c0.4,0,0.9-0.1,1.2-0.3C1429.8,748,1430.1,747.7,1430.4,747.4L1430.4,747.4z"/>
			<path class="st33" d="M1497.4,809.4l-77.4,30.2c0,0,9.9,48.3,10.7,51.4l99.1-0.8C1522.6,862,1511.7,834.8,1497.4,809.4
				L1497.4,809.4z"/>
			<path class="st12" d="M1335.4,778.1h-0.5l-13.2-1.4c-1.5-0.3-2.8-1.1-3.7-2.3c-0.9-1.2-1.2-2.8-1-4.2c0.1-0.7,0.3-1.5,0.6-2.1
				c0.4-0.7,0.8-1.2,1.4-1.7c0.6-0.5,1.3-0.8,2-1c0.7-0.2,1.5-0.2,2.2-0.1l12.4,1.6c0.7,0,1.5,0.2,2.2,0.5c0.7,0.3,1.3,0.8,1.8,1.4
				c0.5,0.6,0.9,1.2,1.1,1.9c0.2,0.7,0.3,1.5,0.2,2.2c-0.1,1.4-0.8,2.7-1.8,3.6C1338.1,777.5,1336.8,778.1,1335.4,778.1z"/>
			<path class="st12" d="M1396.4,780.6h-17.3c-1.3-0.3-2.4-1.1-3.2-2.1c-0.8-1-1.2-2.3-1.2-3.6c0-1.3,0.5-2.6,1.4-3.6
				c0.8-1,2-1.7,3.3-1.9h17c0.8,0,1.5,0.1,2.2,0.4c0.7,0.3,1.3,0.7,1.9,1.2c0.5,0.5,1,1.2,1.2,1.9c0.3,0.7,0.4,1.5,0.4,2.2
				c-0.1,1.5-0.7,2.9-1.8,3.9C1399.3,780,1397.8,780.6,1396.4,780.6L1396.4,780.6z"/>
			<path d="M1365.3,803.7l-25.5-2.2c-0.6-0.1-1.2-0.4-1.6-0.8c-0.4-0.5-0.6-1-0.6-1.7c0.1-0.6,0.5-1.2,1-1.6
				c0.5-0.4,1.1-0.6,1.8-0.6c7.4,1.1,15.9,1.6,25.3,2.2c0.6,0.1,1.2,0.4,1.6,0.8c0.4,0.5,0.6,1,0.6,1.7c-0.1,0.6-0.4,1.1-0.9,1.5
				C1366.5,803.4,1365.9,803.6,1365.3,803.7L1365.3,803.7z"/>
			<path d="M1322.5,777.6c3.6,0,6.6-3,6.6-6.6s-2.9-6.6-6.6-6.6c-3.6,0-6.6,3-6.6,6.6S1318.8,777.6,1322.5,777.6z"/>
			<path d="M1379.3,781.4c3.6,0,6.6-2.9,6.6-6.6c0-3.6-3-6.6-6.6-6.6c-3.6,0-6.6,3-6.6,6.6C1372.7,778.5,1375.7,781.4,1379.3,781.4z
				"/>
			<path d="M1430.4,889.9l-6.9-32.1l-2.7-14l-4.9,0.8c3.3,16.5,1.6,34.6-11.5,46.7L1430.4,889.9z"/>
			<path class="st13" d="M1330.2,836.6c-28,0-62.9,20.6-81,47c22.2,4.7,59.9,8,103.5,8.5l1.6-2.5
				C1371.1,860.5,1360.4,836.6,1330.2,836.6L1330.2,836.6z"/>
			<path d="M1426,885.2c-0.5,0-1.1-0.2-1.5-0.5c-0.4-0.4-0.7-0.8-0.7-1.4c-0.5-3-1.6-7.7-2.7-12.9c-2.5-12.6-5.8-28.6-7.4-35.7
				c-0.1-0.3-0.1-0.6-0.1-0.9c0-0.3,0.1-0.6,0.3-0.8c0.2-0.3,0.4-0.5,0.6-0.7c0.2-0.2,0.5-0.3,0.8-0.4c0.6-0.2,1.3-0.1,1.8,0.2
				c0.6,0.3,1,0.8,1.2,1.4c1.6,7.1,4.7,23.1,7.4,36c1.1,4.9,1.9,9.6,2.5,12.9c0.1,0.3,0.1,0.6,0.1,0.9c0,0.3-0.1,0.6-0.3,0.8
				c-0.2,0.3-0.4,0.5-0.6,0.7c-0.2,0.2-0.5,0.3-0.8,0.4H1426z"/>
			<path d="M985.8,689.7c-0.6,0-1.1-0.2-1.5-0.6c-0.4-0.3-0.8-0.8-0.9-1.3c-3.8-11-9.6-17.9-17.6-19.8c-8-1.9-23.1,2.7-35.2,14
				c-0.6,0.6-1.4,1.2-2.3,1.5c-0.9,0.3-1.8,0.5-2.7,0.4c-1.5-0.2-2.9-1-3.8-2.2c-6.6-9.3-13.5-14.3-21.7-15.1
				c-8.2-0.8-23.9,4.9-38.4,18.4c-0.2,0.2-0.5,0.4-0.8,0.6c-0.3,0.1-0.6,0.2-1,0.2s-0.7-0.1-1-0.2c-0.3-0.1-0.6-0.3-0.8-0.6
				c-0.4-0.5-0.7-1.2-0.7-1.9c0-0.7,0.2-1.4,0.7-1.9c15.7-14.6,29.9-21.1,42.6-19.8c12.6,1.4,18.1,6.6,25.5,17.3
				c0.2,0,0.3-0.1,0.5-0.2c0.1-0.1,0.3-0.2,0.3-0.4c13.2-12.4,28-18.1,39.8-15.4c6.9,1.9,15.9,7.1,21.4,23.3c0.1,0.3,0.2,0.7,0.2,1
				c0,0.3-0.1,0.7-0.3,1c-0.2,0.3-0.4,0.6-0.6,0.8c-0.3,0.2-0.6,0.4-0.9,0.5L985.8,689.7z"/>
			<path class="st13" d="M1074.2,774.6c11,0.8,29.7-3.6,36.3-12.4c6.6-8.8-2.5-17.3-10.4-12.9
				C1092.1,753.7,1086.3,764.7,1074.2,774.6z"/>
			<path class="st36" d="M1089.1,822.6c5.2-0.8,14.6,0.5,18.1,4.7c0.7,0.7,1,1.6,1.1,2.5c0.1,1-0.2,1.9-0.7,2.7
				c-0.6,0.8-1.4,1.3-2.3,1.6c-0.9,0.3-1.9,0.2-2.8-0.2C1098.9,832.2,1095.1,826.7,1089.1,822.6z"/>
			<path class="st37" d="M521.2,142.3c-7.9,0.8-15.7,3-22.8,6.6c-5.2,3,0.3,8.5,15.9,10.2c15.7,1.6,31.6-1.9,37.6-2.7
				c6-0.8,5.2-0.5,9.9,2.7c4.7,3.3,7.4,6.3,7.1,2.7c-0.3-3.6-1.6-6.3,0.5-9.6c1.7-2.2,2.6-4.9,2.5-7.7c-0.3-2.5-1.4-1.9-4.1,0.3
				c-2.7,2.3-5.6,4.4-8.5,6.3c-1.4,0.5-1.6-0.5-6-2.7C543.5,143,532.3,140.9,521.2,142.3z"/>
			<path class="st37" d="M468.9,72.8l1.4,1.6c0.3,0.3,0.8,0.5,1.1,0.3l2.2-1.4h-0.3l3.3,4.7l25.8-2.5c2-0.3,4-0.9,5.8-1.9l6-4.1
				c8,6.3,16.8,9.3,21.7,9.3l27.2-1.9l3.3-3.6h4.1c0.5,0,0.9-0.2,1.3-0.5c0.4-0.3,0.6-0.7,0.7-1.2c0-0.3-0.1-0.7-0.3-1
				c-0.2-0.3-0.5-0.5-0.8-0.7c-7.9-3.2-15.3-7.4-22-12.6l-3.3-2.5l-1.4-1.1l-5.5-5.2c0.8-2.1,1.5-4.3,1.9-6.6c0-0.3,0.3-0.5,0-0.8
				c0-0.3,0-0.5-0.5-0.8c-1.5-0.4-3.1-0.6-4.7-0.5h-32.1c-3,0-4.4,1.4-2.7,7.4c-9.3,10.4-25.8,21.1-31.9,25
				c-0.1,0.1-0.2,0.1-0.2,0.2C468.9,72.6,468.9,72.7,468.9,72.8L468.9,72.8z"/>
			<path class="st30" d="M795.9,200.5h-1.1c-0.5-0.3-0.8-0.8-1-1.4c-0.2-0.6-0.1-1.1,0.1-1.7c16.8-35.4,40.4-51.4,84-56.6
				c31-3.6,43.4-18.7,56.6-34.9c6.4-8.3,13.7-16,21.7-22.8c0.5-0.3,1.1-0.4,1.6-0.3c0.6,0.1,1.1,0.4,1.4,0.9
				c0.2,0.2,0.3,0.4,0.4,0.7c0.1,0.2,0.1,0.5,0.1,0.8c0,0.3-0.1,0.5-0.2,0.7c-0.1,0.2-0.3,0.4-0.5,0.6c-7.8,6.7-14.9,14.1-21.1,22.2
				c-13.7,16.8-26.6,32.7-59.3,36.5c-42,4.7-64.5,20-80.7,54.1c-0.2,0.3-0.5,0.6-0.8,0.8C796.7,200.4,796.3,200.5,795.9,200.5
				L795.9,200.5z"/>
			<path class="st13" d="M647.2,215.6h-1.1c-0.2-0.1-0.5-0.3-0.6-0.5c-0.2-0.2-0.3-0.4-0.4-0.7c-0.1-0.3-0.1-0.5-0.1-0.8
				c0-0.3,0.1-0.5,0.3-0.8c14.3-28,27.2-39.5,37.1-46.1c4.9-3.6,9.6-6,14-8.8c13.5-7.4,26.1-14.6,38.4-38.7c0.3-0.4,0.7-0.8,1.2-0.9
				c0.5-0.2,1-0.1,1.5,0.1c0.2,0.1,0.5,0.3,0.6,0.5c0.2,0.2,0.3,0.4,0.4,0.7c0.1,0.3,0.1,0.5,0.1,0.8c0,0.3-0.1,0.5-0.3,0.8
				c-12.9,25.3-25.8,32.7-39.8,40.6c-4.7,2.5-9.3,5.3-13.7,8.2c-9.3,6.6-22,17.6-36,44.8c-0.2,0.2-0.4,0.5-0.7,0.6
				C647.8,215.5,647.5,215.6,647.2,215.6z"/>
			<path d="M683.4,170.3c-0.5,0-1.1-0.5-1.6-1.1c-0.2-0.2-0.3-0.5-0.3-0.7s-0.1-0.5,0-0.8c0.1-0.3,0.2-0.5,0.3-0.7
				c0.1-0.2,0.3-0.4,0.6-0.5c4.9-3.6,9.6-6,14-8.8c13.5-7.4,26.1-14.6,38.4-38.7c0.3-0.4,0.7-0.8,1.2-0.9c0.5-0.2,1-0.1,1.5,0.1
				c0.2,0.1,0.5,0.3,0.6,0.5c0.2,0.2,0.3,0.4,0.4,0.7c0.1,0.3,0.1,0.5,0.1,0.8c0,0.3-0.1,0.5-0.3,0.8
				c-12.9,25.3-25.8,32.7-39.8,40.6c-4.7,2.5-9.3,5.3-13.7,8.2L683.4,170.3z"/>
			<path class="st30" d="M628,234c-0.6-0.1-1.1-0.3-1.5-0.7c-0.4-0.4-0.7-0.9-0.7-1.5c0.3-25.5,17.9-31.3,44.8-39.8h0.8
				c34.3-11,50.3-15.9,62.6-33.5c5.8-8.5,11-20.3,17.6-39.3l4.7-13.5l-0.5,14.3c-0.8,23.6-4.7,41.7-11.5,55.2
				c-6.9,13.5-21.7,26.9-45.3,35.4c-23.6,8.5-32.7,13.2-40.1,18.9c-0.2,0.2-0.5,0.4-0.8,0.4c-0.3,0.1-0.6,0.1-0.9,0
				c-0.3-0.1-0.6-0.2-0.8-0.4c-0.2-0.2-0.4-0.4-0.6-0.7c-0.2-0.5-0.3-1-0.2-1.5c0.1-0.5,0.4-1,0.8-1.3c7.7-6,20.9-12.4,41.2-19.8
				c20.3-7.4,34.9-17.9,42.8-33.2c5.2-9.9,8.5-22.8,10.2-38.7c-3.3,9.3-7.7,18.2-13.2,26.4c-13.2,18.7-30.2,24.2-64.8,35.2h-0.5
				c-28.3,8.8-41.7,14-41.7,35.7c-0.1,0.6-0.3,1.1-0.7,1.5C629.1,233.7,628.5,233.9,628,234L628,234z"/>
			<path d="M735.6,161.5h-1.4c-0.4-0.4-0.7-0.9-0.7-1.5c-0.1-0.6,0.1-1.1,0.5-1.6c5.8-8.5,11-20.3,17.6-39.3
				c0.2-0.5,0.6-0.9,1.1-1.2c0.5-0.2,1.1-0.3,1.6-0.2c0.5,0.2,1,0.6,1.2,1.1c0.3,0.5,0.3,1.1,0.1,1.7c-6.6,19.2-12.1,31.3-18.4,40.4
				c-0.2,0.2-0.5,0.4-0.8,0.5C736.2,161.5,735.9,161.5,735.6,161.5z"/>
			<path class="st13" d="M595,211.5h-2.7c-1.1-0.3-2.2-1.1-2.2-2.2c0-1.1,1.1-2.2,2.2-2.2c26.6,1.1,43.9-14.6,50.8-47
				c4.1-18.7,8.5-29.9,14.8-39.3c6.3-9.3,21.7-22,46.7-31.6c-9.4,1-18.7,3-27.7,6c-17.6,6.3-29.9,17.9-42,38.2
				c-12.1,20.3-26.1,26.6-41.5,23.1c-0.5-0.2-1-0.6-1.2-1.1c-0.3-0.5-0.3-1.1-0.1-1.7c0.1-0.3,0.2-0.5,0.3-0.7
				c0.2-0.2,0.4-0.4,0.6-0.5c0.2-0.1,0.5-0.2,0.8-0.2c0.3,0,0.5,0,0.8,0.1c15.9,3.6,29.4-8.5,36.8-20.9
				c12.4-21.4,25.5-33.5,43.9-40.1c11.5-4.4,25.8-6.6,44.8-7.7l14.8-0.5l-14,4.7c-34.1,11.8-49.7,20.9-59.6,35.4
				c-5.8,8.8-9.9,19.8-14,37.9C640.1,194.2,621.9,211.5,595,211.5L595,211.5z"/>
			<path d="M659.6,124.1h-1.1c-0.3-0.1-0.5-0.3-0.7-0.6c-0.2-0.2-0.3-0.5-0.4-0.8c-0.1-0.3,0-0.6,0-0.9c0.1-0.3,0.2-0.5,0.4-0.8
				c8.8-12.9,21.7-22,46.7-31.6c-9.4,1-18.7,3-27.7,6c-0.3,0.1-0.6,0.2-0.9,0.2c-0.3,0-0.6-0.1-0.9-0.2c-0.3-0.1-0.5-0.3-0.7-0.6
				c-0.2-0.2-0.3-0.5-0.4-0.8c-0.1-0.2-0.2-0.5-0.2-0.7c0-0.3,0-0.5,0.1-0.8c0.1-0.2,0.3-0.5,0.5-0.6c0.2-0.2,0.5-0.3,0.7-0.3
				c11.5-4.4,25.8-6.6,44.8-7.7l14.8-0.5l-14,4.7c-34.1,11.5-49.7,20.6-59.6,35.2c-0.2,0.3-0.4,0.5-0.7,0.6
				C660.2,124.1,659.9,124.1,659.6,124.1L659.6,124.1z"/>
			<path class="st12" d="M759.5,158c8.7-8.7-1.1-32.6-21.9-53.4c-20.8-20.8-44.7-30.6-53.4-21.9c-8.7,8.7,1.1,32.6,21.9,53.4
				C727,156.8,750.9,166.7,759.5,158z"/>
			<path class="st38" d="M775.7,104.9c21.4,0,38.7-17.3,38.7-38.7s-17.3-38.7-38.7-38.7S737,44.8,737,66.2S754.3,104.9,775.7,104.9z
				"/>
			<path class="st12" d="M710.1,130.4l51.9,23.1l12.4-43.1l-28.6-28.6L710.1,130.4z"/>
			<path class="st12" d="M710.1,130.4l-21.1-50.5l42.8-12.4l28.6,28.8L710.1,130.4z"/>
			<path d="M731.8,67.6c-1.1,3.6,6.3,14.3,17.3,25.3c11,11,21.7,18.4,25.3,17.6l5.8-5.8l-42.8-42.8L731.8,67.6z"/>
			<path class="st38" d="M780.1,104.6c-3,0.3-13.5-7.4-24.4-18.4c-11-11-18.7-21.1-18.4-24.4l38.4,4.4L780.1,104.6z"/>
			<path class="st39" d="M783.7,72.2c-1.1-8.2,7.4-17,18.9-23.3s20.9-4.7,27.5-0.8s4.7,11.8-13.7,25.3c10.7,4.1,15.1,6.9,12.6,12.9
				c-2.5,6-10.7,5.8-26.6-0.3C786.4,79.9,784.5,76.9,783.7,72.2z"/>
			<path d="M793.3,69.5c-0.3,0-0.5-0.5-0.3-1.1c3.5-4.4,7.9-8.1,12.9-10.7c8.5-3.8,13.5-4.4,17-3.3c3.6,1.1,5.5,3.3,3.8,6
				c-3.7,5-8,9.4-12.9,13.2c3.8,1.4,7.5,3.1,11,5.2c1.6,1.4,1.4,2.2-0.8,2.2C821.9,81,813.1,79.4,793.3,69.5z"/>
			<path class="st12" d="M763.7,56.1c2.9-4.4,2.5-9.9-0.9-12.1c-3.4-2.3-8.6-0.5-11.5,3.9c-2.9,4.4-2.5,9.9,0.9,12.1
				C755.6,62.3,760.8,60.5,763.7,56.1z"/>
			<path d="M759.1,52.1c1.2-1.9,1.2-4.1-0.1-5c-1.3-0.8-3.3,0.1-4.5,2c-1.2,1.9-1.2,4.1,0.1,5C755.8,54.9,757.9,54,759.1,52.1z"/>
			<path class="st13" d="M1010.4,66c-15.4-0.7-30.9,1.3-45.6,6c-11.3,3.8-2.2,16.5,27.5,24.2s61,5.2,72.8,5.5
				c11.8,0.3,10.4,0.5,17.9,8.5c7.4,8,12.9,14,13.2,7.4c0.3-6.6-1.1-12.9,3.8-18.7c4.9-5.8,6.9-8.5,7.1-14c0.3-5.5-1.9-4.1-8-0.5
				c-5.8,3.6-11.9,6.9-18.1,9.6c-3,0.8-3-1.4-10.7-6.9C1053,75.1,1037.3,67.7,1010.4,66z"/>
			<path class="st40" d="M950.5,79.8l14-3.6l-9.9-8.5"/>
			<path d="M985.6,75.1c1.8,0,3.3-0.9,3.3-2c0-1.1-1.5-1.9-3.3-1.9c-1.8,0-3.3,0.9-3.3,2C982.3,74.2,983.8,75.1,985.6,75.1
				L985.6,75.1z"/>
			<path d="M1084.8,102c-0.5,0-1.1-0.2-1.5-0.5c-0.4-0.4-0.7-0.8-0.7-1.4c0-0.6,0.2-1.1,0.5-1.6c0.4-0.5,0.8-0.8,1.4-0.9l7.4-0.8
				c0.3-0.1,0.6-0.1,0.9,0c0.3,0.1,0.6,0.2,0.8,0.4c0.2,0.2,0.4,0.4,0.6,0.7s0.2,0.6,0.2,0.9c0,0.3,0,0.6-0.1,0.9
				c-0.1,0.3-0.2,0.5-0.4,0.8c-0.2,0.2-0.4,0.4-0.7,0.6c-0.3,0.1-0.5,0.2-0.8,0.3l-7.4,0.8L1084.8,102z"/>
			<path class="st37" d="M849.6,168.6c-12.2,1.2-24,4.6-34.9,10.2c-8,4.4,0.5,12.9,24.2,15.4c23.6,2.5,48.1-3.3,57.4-4.4
				c9.3-1.1,8-1.1,14.8,4.4s11.5,9.1,11,4.1c-0.5-4.9-2.2-9.9,0.8-14.8c3-4.9,4.4-7.7,3.8-11.8c-0.5-4.1-2.2-3-6.3,0.5
				c-4,3.5-8.4,6.6-12.9,9.3c-2.2,1.1-2.5-0.5-9.1-3.8C883.5,169.7,866.4,166.5,849.6,168.6L849.6,168.6z"/>
			<path class="st41" d="M2038.2,242.9c-0.5-4.1-1.9-3.3-6,1.9c-3.3,4.4-7,8.4-11,12.1c-1.6,1.4-2.2,0-8.5-2.2
				c-15.7-4.9-29.1-6.9-47.5-0.8c-9.1,2.9-17.2,8.3-23.3,15.7c-3.3,4.7,8.8,9.9,27.7,8.2s36-9.3,43.4-11.8c7.4-2.5,6.6-1.9,12.6,1.4
				c6,3.3,9.6,5.5,9.1,1.6c-0.5-3.8-2.2-7.7,0.3-12.9S2038.7,247.6,2038.2,242.9L2038.2,242.9z"/>
			<path class="st21" d="M1656.3,619.4c11.7-12.5,18.5-25.2,15-28.5s-15.7,4.3-27.4,16.8c-11.7,12.5-18.5,25.2-15,28.4
				S1644.5,631.9,1656.3,619.4L1656.3,619.4z"/>
			<path class="st21" d="M1614.9,677.7c11.5-13,17.9-26,14.4-29.1c-3.5-3.1-15.7,4.9-27.1,17.8c-11.5,12.9-17.9,26-14.4,29.1
				C1591.3,698.7,1603.5,690.7,1614.9,677.7z"/>
			<path class="st13" d="M1749.8,307.4c0,0,9.1,12.4,19.5,27.7c22.2-78.8,35.2-82.1,67-90.6c-7.4,32.4-25,81-31.9,99.7
				c-6.9,18.7-17.9,37.3-36,37.3s-34.9-27.2-50-51.9c-19.8,0-25.8,0.5-34.1-7.7c-8.2-8.2-10.2-18.1-2.2-32.1
				c8-14,10.4-16.2,27.2-16.8s28.3,1.4,35.2,8S1752,298.4,1749.8,307.4L1749.8,307.4z"/>
			<path class="st37" d="M1719.9,45.4l0.8,1.9h0.8l2.5-1.1h-0.3l2.2,4.9l23.6,2.7l5.5-0.8l6.3-2.5c5.8,7.1,13.2,11.5,17.6,12.4
				c4.4,0.8,25,3.3,25,3.3l3.6-2.5l3.8,0.5c0.4,0.1,0.8,0,1.2-0.2c0.4-0.2,0.6-0.5,0.7-0.9c0.1-0.1,0.2-0.3,0.2-0.5
				c0-0.2,0-0.3,0-0.5c-0.1-0.2-0.1-0.3-0.3-0.4c-0.1-0.1-0.3-0.2-0.4-0.3c-6.4-4.5-12.2-9.7-17.6-15.4c-0.8-0.9-1.6-2-2.2-3
				l-1.4-1.4l-3.8-5.8c1.1-1.8,2.1-3.6,3-5.5v-0.5c0-0.2,0-0.4-0.1-0.6c-0.1-0.2-0.2-0.4-0.4-0.5l-4.1-1.4l-6-1.1h-0.3l-1.9-0.5h-3
				l-2.5-0.5h-0.5l-1.9-0.5h-0.3l-2.2-0.5l-2.2-0.5h-3.8l-3.8-0.8c-2.7-0.8-4.1,0.3-3.8,6c-10.4,7.7-27.2,14.3-33.5,16.5
				C1719.9,44.6,1719.6,44.9,1719.9,45.4L1719.9,45.4z"/>
			<path class="st37" d="M1334.7,169.3l0.8,1.9c0,0.3,0.5,0.3,0.8,0.3l2.2-0.8l1.9,4.7l23.6,2.7c1.8,0.2,3.7,0.1,5.5-0.5l6.3-2.7
				c6,7.1,13.5,11.5,17.9,12.4c4.4,0.8,25,3.6,25,3.6l3.3-2.7l4.1,0.8c0.4,0,0.8-0.2,1.2-0.4c0.3-0.2,0.6-0.6,0.8-1
				c-0.1-0.6-0.3-1.2-0.8-1.6c-6.5-4.3-12.3-9.5-17.3-15.4l-2.5-2.7l-1.1-1.6c-1.5-1.7-2.8-3.5-3.8-5.5l3-5.5v-0.5
				c0.3-0.3,0-0.5-0.5-0.8c-0.5-0.3-1.6-0.8-4.1-1.4l-5.8-1.4h-3.3l-1.9-0.5h-0.3l-2.2-0.5h-0.5l-2.2-0.5h-0.3l-2.2-0.5h-2.5
				l-1.9-0.5h-1.6l-3.8-1.1c-2.7-0.5-4.1,0.5-3.8,6c-10.4,8-27.2,14.3-33.5,16.8c0-0.1,0-0.2-0.1-0.3
				C1334.9,169.4,1334.8,169.3,1334.7,169.3L1334.7,169.3z"/>
			<path class="st21" d="M1646.3,88.8l40.4,1.6c3.2,0.2,6.4-0.5,9.3-1.9c14.6-6.9,17.6-12.6,17.6-12.6L1689.9,49l-48.9,31.9
				L1646.3,88.8z"/>
			<path class="st22" d="M1789.1,99.5l-6.3,6c0,0-31.3-1.4-43.1-2.7c-11.8-1.4-37.6-16.2-51.4-42c-15.1,22-35.4,27.7-42,28l-5.2-8
				l51.6-37.6L1789.1,99.5z"/>
			<path class="st15" d="M1745.7,54.8c0,0,2.5-6.9,3.3-10.2s-1.6-3.6-18.7-6l-40.1-5.5c-4.9-0.8-7.1,1.1-4.7,11
				c-15.1,14.8-41.5,28.3-51.1,33.2c-0.1,0.1-0.3,0.2-0.3,0.3c-0.1,0.1-0.1,0.3-0.2,0.4c0,0.2,0,0.3,0,0.5c0,0.2,0.1,0.3,0.2,0.4
				l2.2,3.3c0.3,0.5,0.8,0.5,1.4,0.3c20-10.4,36.5-20,52.2-33.5c20.3,27.2,36.5,38.7,50.3,47c0.3,0.3,0.6,0.5,1,0.6
				c0.4,0.1,0.8,0.2,1.2,0.2l52.2,4.4c0.3,0,0.7,0,1-0.1c0.3-0.1,0.6-0.3,0.9-0.5c0.3-0.2,0.5-0.5,0.6-0.8c0.1-0.3,0.2-0.7,0.2-1
				c0-0.5-0.1-1.1-0.3-1.5c-0.2-0.5-0.6-0.9-1-1.2C1761.9,76.7,1745.7,54.8,1745.7,54.8L1745.7,54.8z"/>
			<path class="st35" d="M1745.7,54.8c0,0,2.5-6.9,3.3-10.2s-1.6-3.6-18.7-6l-33.8-4.7c4.4,0.8,5.2,2.2-0.3,12.4
				c6.3,11,21.7,28.3,44.8,44.2L1796,96C1761.9,76.7,1745.7,54.8,1745.7,54.8L1745.7,54.8z"/>
			<path d="M1688.8,58.9c-0.7,0-1.3-0.3-1.7-0.7c-0.5-0.5-0.7-1.1-0.7-1.7v-3.3c0.1-0.7,0.4-1.3,0.9-1.8c0.5-0.5,1.2-0.7,1.9-0.7
				c0.6,0.1,1.2,0.5,1.6,1c0.4,0.5,0.6,1.1,0.6,1.8v3.3c0,0.3-0.1,0.6-0.2,0.9c-0.1,0.3-0.3,0.5-0.5,0.8c-0.2,0.2-0.5,0.4-0.8,0.5
				C1689.5,58.9,1689.2,58.9,1688.8,58.9L1688.8,58.9z"/>
			<path class="st42" d="M1629.5,693.6l-1.4-0.5l-20.6-18.1c-0.2-0.2-0.4-0.5-0.6-0.8c-0.1-0.3-0.2-0.6-0.2-1c0-0.3,0.1-0.7,0.2-1
				c0.1-0.3,0.3-0.6,0.6-0.8c0.4-0.4,1-0.7,1.6-0.8c0.6-0.1,1.2,0.1,1.7,0.5l20.3,18.1c0.3,0.2,0.5,0.5,0.6,0.8
				c0.2,0.3,0.2,0.6,0.3,1c0,0.3,0,0.7-0.1,1c-0.1,0.3-0.3,0.6-0.5,0.9c-0.2,0.3-0.5,0.5-0.9,0.6S1629.9,693.6,1629.5,693.6
				L1629.5,693.6z"/>
			<path class="st42" d="M1670.7,633.4l-1.4-0.5l-20.6-18.1c-0.5-0.5-0.7-1.1-0.8-1.7c0-0.7,0.1-1.3,0.5-1.8
				c0.2-0.2,0.5-0.4,0.8-0.6c0.3-0.1,0.6-0.2,1-0.2s0.7,0.1,1,0.2c0.3,0.1,0.6,0.3,0.8,0.6l20.3,18.1c0.3,0.2,0.5,0.4,0.6,0.7
				c0.2,0.3,0.2,0.6,0.3,0.9c0,0.3,0,0.6-0.1,0.9c-0.1,0.3-0.3,0.6-0.5,0.8c-0.2,0.3-0.5,0.5-0.9,0.6S1671.1,633.4,1670.7,633.4
				L1670.7,633.4z"/>
			<path class="st22" d="M1813.5,718.5c1.4-29.1,13.5-52.7,27.2-52.7s31.6,23.6,30.2,52.7c-1.4,29.1-21.4,52.7-35.2,52.7
				C1822,771.3,1812.2,747.7,1813.5,718.5L1813.5,718.5z"/>
			<path d="M1842.1,759.2c-0.6,0-1.2-0.2-1.7-0.6c-0.5-0.4-0.7-1-0.8-1.6c-3.7-25.4-5.3-51-4.9-76.6c0-0.7,0.3-1.3,0.7-1.7
				c0.5-0.5,1.1-0.7,1.7-0.7c0.7,0.1,1.3,0.4,1.8,0.9c0.5,0.5,0.7,1.2,0.7,1.9c-0.3,25.4,1.3,50.7,4.9,75.8c0.1,0.6-0.1,1.2-0.4,1.7
				c-0.4,0.5-0.9,0.9-1.5,1H1842.1z"/>
			<path class="st21" d="M2099.1,724.9c5.2-30.2-1.6-54.7-15.4-54.7s-36.8,24.4-42,54.7c-5.2,30.2,9.1,54.9,22.8,54.9
				S2093.6,755.3,2099.1,724.9z"/>
			<path d="M1976.7,591.9h-0.8c-0.5-0.2-1-0.7-1.3-1.2c-0.2-0.6-0.3-1.2-0.1-1.8c9.1-24.2,25-27.7,31.3-28c4.7-0.4,9.3,0.6,13.5,2.8
				c4.1,2.2,7.6,5.5,9.9,9.6c0.3,0.6,0.3,1.3,0.1,1.9c-0.2,0.6-0.7,1.1-1.2,1.4c-0.3,0.2-0.6,0.3-0.9,0.4c-0.3,0-0.7,0-1-0.1
				c-0.3-0.1-0.6-0.3-0.9-0.5c-0.2-0.2-0.4-0.5-0.5-0.8c-1.9-3.2-4.6-5.8-7.9-7.5c-3.3-1.7-7-2.4-10.7-2.1
				c-11.5,0.5-21.4,9.6-26.9,24.7c-0.2,0.5-0.6,0.8-1,1.1C1977.7,591.9,1977.2,592,1976.7,591.9L1976.7,591.9z"/>
			<path class="st21" d="M2069.5,846.2c2.2-43.7-3.3-103.8-11.8-175.2c-8.5-71.4-49.4-86.2-92.8-85.7c-67,0.5-83.2,26.9-128.3,148.3
				c-42.3,113.7-39,145-16.8,166.7c47.8,46.4,129.9,42.3,174.7,32.4C2033,924,2066.5,903.6,2069.5,846.2z"/>
			<path class="st22" d="M1917.3,729.3h-0.8c-0.6-0.2-1.1-0.6-1.4-1.2c-0.3-0.6-0.4-1.2-0.2-1.8c2.1-8.4,5.9-16.3,11.3-23.1
				c0.2-0.2,0.5-0.4,0.8-0.6c0.3-0.1,0.6-0.2,1-0.2s0.7,0.1,1,0.2c0.3,0.1,0.6,0.3,0.8,0.6c0.2,0.2,0.4,0.5,0.5,0.7
				c0.1,0.3,0.2,0.6,0.2,0.9c0,0.3-0.1,0.6-0.2,0.9c-0.1,0.3-0.3,0.5-0.5,0.7c-4.7,6.3-8.2,13.5-10.2,21.1c-0.1,0.5-0.4,0.9-0.8,1.2
				C1918.3,729.1,1917.8,729.3,1917.3,729.3L1917.3,729.3z"/>
			<path class="st12" d="M1954.1,705.1c3-17.9,14.8-31.6,26.4-31.6s19.2,13.7,17.3,31.6c-1.9,17.9-11.3,36.3-28,35.2
				S1950.6,724,1954.1,705.1L1954.1,705.1z"/>
			<path class="st12" d="M1878.6,699.6c4.4-18.1,15.4-31.9,24.7-31.9s14.6,11.8,11,31.9c-3.6,20-12.6,36.5-26.4,35.7
				S1873.9,718.8,1878.6,699.6z"/>
			<path class="st42" d="M1968.4,581.8c-25.3-0.5-51.9,6.3-66.5,20s-1.4,18.7,34.9,2.2c-11.5,21.4-6,36.3,14.6,30.5
				c11.3-3.3,22.8-15.7,29.9-27.5c24.2,20.3,35.4,27.7,48.6,27.5c13.2-0.3,12.9-18.4,0.5-31.6
				C2018.1,589.7,2002.5,582.6,1968.4,581.8L1968.4,581.8z"/>
			<path class="st15" d="M1983.5,792.4c-0.7,6.4-2.1,12.8-4.1,18.9c-2.2,6.1-5,11.9-8.5,17.3c-3.5,5.9-8,11.2-13.2,15.7
				c-5.8,5.1-12.8,8.7-20.3,10.4c-4.3,0.9-8.8,0.8-13.1-0.1c-4.3-0.9-8.4-2.8-11.9-5.4c-3.4-2.4-6.2-5.5-8.2-9.1l-1.6-2.5l-1.1-2.5
				c-0.8-1.7-1.6-3.4-2.2-5.2c-1.8-6.5-2.6-13.3-2.5-20c0-1.7,0.2-3.3,0.5-4.9c0.2-1.6,0.4-3.1,0.8-4.7c0.1-1.6,0.4-3.1,0.8-4.7
				l1.4-4.4v-0.8c0.3-1.3,1-2.5,1.8-3.6c0.8-1.1,1.9-2,3-2.6c1.2-0.7,2.5-1.1,3.8-1.2c1.3-0.2,2.7,0,4,0.3c2.4,0.8,4.4,2.3,5.7,4.4
				c1.3,2.1,1.8,4.6,1.4,7.1c-0.9,4.7-1.3,9.5-1.1,14.3c0.1,4.3,0.8,8.6,2.2,12.6c0.9,3,2.7,5.6,5.2,7.4l1.1,0.8h4.9
				c3.4-1.1,6.5-2.8,9.1-5.2c3.3-3,6.3-6.4,8.8-10.2c5.3-8,8.9-17.1,10.4-26.6c0.9-2.7,2.6-5,5-6.4c2.4-1.5,5.2-2.1,8-1.7
				c2.8,0.4,5.3,1.8,7.2,3.9c1.8,2.1,2.9,4.8,3,7.6L1983.5,792.4z"/>
			<path d="M1976.1,791c-1.1,5.8-2.7,11.5-4.7,17c-2.2,5.5-4.9,10.7-8.2,15.7c-3.2,5-7.1,9.5-11.5,13.5c-4.6,4.1-10.2,7-16.2,8.5
				c-3.1,0.7-6.2,0.7-9.3,0.1c-3.1-0.6-6-1.9-8.6-3.6c-4.9-3.8-8.5-9-10.4-14.8c-3.7-11.4-4.2-23.5-1.4-35.2c0-1.1,1.1-1.6,2.2-1.4
				c0.3,0,0.5,0,0.8,0.2c0.2,0.1,0.5,0.3,0.6,0.5c0.2,0.2,0.3,0.5,0.3,0.7s0,0.5-0.1,0.8c-2.2,10.9-1.7,22.1,1.6,32.7
				c1.7,4.9,4.9,9.2,9.1,12.4c2,1.5,4.3,2.6,6.8,3c2.5,0.5,5,0.4,7.5-0.3c5.1-1.3,9.8-3.9,13.7-7.4c4.2-3.6,7.9-7.8,11-12.4
				c6.1-9.3,10.2-19.8,12.1-30.8c0.2-0.6,0.6-1,1.1-1.3c0.5-0.3,1.1-0.4,1.7-0.3c0.5,0.1,1,0.4,1.4,0.9
				C1975.9,789.9,1976.1,790.5,1976.1,791L1976.1,791z"/>
			
				<linearGradient id="SVGID_11_" gradientUnits="userSpaceOnUse" x1="1917.0908" y1="246.2794" x2="1858.6223" y2="246.2794" gradientTransform="matrix(1 0 0 -1 0 915.1336)">
				<stop  offset="0" style="stop-color:#FFE75C"/>
				<stop  offset="1" style="stop-color:#FFC619"/>
			</linearGradient>
			<path class="st43" d="M2019.2,386.5l-301.8,62.9c9.6,6.2,18.5,13.2,26.6,21.1c21.4,21.4,24.2,46.7-0.8,71.4
				c-91.5,90.1-190.6,189.5-199.4,290.8c-5.8,67.6,25.3,113.7,91.2,118.1c65.9,4.4,107.9-39.3,140.6-83.8
				c59.6-80.7,98-109,147.5-119.2l3.8-28.8c-44.5-5.2-93.4,27.2-135.9,70.3c-24.2,24.7-38.4,33-57.7,33.5
				c-19.2,0.5-40.1-23.3-15.4-73.9s82.9-103.3,180.4-175.2C2014,488.4,2016.8,449.7,2019.2,386.5L2019.2,386.5z"/>
			
				<linearGradient id="SVGID_12_" gradientUnits="userSpaceOnUse" x1="1909.1559" y1="588.9877" x2="1743.5275" y2="208.1329" gradientTransform="matrix(1 0 0 -1 0 915.1336)">
				<stop  offset="0" style="stop-color:#FF8C19"/>
				<stop  offset="1" style="stop-color:#FFC619"/>
			</linearGradient>
			<path class="st44" d="M1717.4,449.4c9.6,6.2,18.5,13.2,26.6,21.1c21.4,21.4,24.2,46.7-0.8,71.4
				c-91.5,90.1-190.6,189.5-199.4,290.8L1718,749c25-50.5,82.9-103.3,180.4-175.2c115.6-85.4,118.4-124.1,120.8-187.3L1717.4,449.4z
				"/>
			<path class="st21" d="M1867,440c84.4-16.4,150.2-43.5,146.9-60.6c-3.3-17.1-74.5-17.7-158.9-1.3
				c-84.4,16.4-150.2,43.5-146.9,60.6C1711.5,455.8,1782.6,456.4,1867,440z"/>
			<path class="st45" d="M1858,447.8c-68.7,11.8-124.4,12.6-140.1,1.6h-0.5c4.9,3.3,9.6,6.6,13.7,9.9c11.2,2.1,22.6,3,34.1,2.7
				c31.4-0.5,62.7-3.6,93.6-9.3c62.6-11,136.2-31.3,159.8-56.3c0.2-2.7,0.3-5.5,0.3-8.2C2006,409.6,1943.4,432.9,1858,447.8
				L1858,447.8z"/>
			
				<linearGradient id="SVGID_13_" gradientUnits="userSpaceOnUse" x1="64816.0273" y1="118000.4688" x2="57843.2109" y2="104985.6641" gradientTransform="matrix(1 0 0 -1 0 915.1336)">
				<stop  offset="0" style="stop-color:#FF8C19"/>
				<stop  offset="1" style="stop-color:#FFC619"/>
			</linearGradient>
			<path class="st46" d="M1870.6,433c77.2-14.7,137.8-36.7,135.5-49c-2.4-12.4-66.8-10.5-144,4.3c-77.2,14.7-137.8,36.7-135.5,49
				S1793.4,447.8,1870.6,433L1870.6,433z"/>
			<path d="M1860.5,435.4c44.5-8,84.6-18.7,111.5-28.8c-14.3-3.6-51.1-1.6-95.3,6.3c-50.5,9.1-94.5,22.8-106.8,33
				C1800.3,444.6,1830.6,441.1,1860.5,435.4L1860.5,435.4z"/>
			<path class="st47" d="M1948.1,213.8c-6.3-22.5-15.8-44-28.3-63.7l-10.7,68.9C1947.8,230,1952.5,231.1,1948.1,213.8z"/>
			<path class="st15" d="M1981.3,402.7c-26.4,11.3-71.1,23.3-120.8,32.4c-26.1,4.7-50.3,7.7-70.9,9.3c-6.8-7.5-11.2-16.7-12.9-26.6
				c-0.6-2.6-0.8-5.3-0.8-8c-1.4-19.8,5.8-42,20-63.2c-4.9-62.3,4.9-93.1,40.4-102.4c56-14.8,89.3-20.3,111.8-4.1
				c22.5,16.2,19.5,49.2,16.8,99.1c4.4,7.1,13.5,19.8,16.8,37.1C1983.2,385.1,1983.1,394,1981.3,402.7L1981.3,402.7z"/>
			<path class="st48" d="M1713.8,395.3c-6.9-8-22.2-17.3-32.4-15.9s-9.9,13.2-1.6,15.7C1688,397.5,1699.3,393.7,1713.8,395.3
				L1713.8,395.3z"/>
			<path d="M1933,292h-0.8l-12.4-4.1c-0.6-0.3-1-0.8-1.3-1.4c-0.3-0.6-0.3-1.3-0.1-1.9c0.1-0.3,0.2-0.6,0.5-0.8
				c0.2-0.2,0.5-0.4,0.7-0.6c0.3-0.1,0.6-0.2,0.9-0.2c0.3,0,0.6,0.1,0.9,0.2l12.4,4.4c0.6,0.2,1.1,0.6,1.4,1.2
				c0.3,0.6,0.4,1.2,0.2,1.8c-0.2,0.4-0.6,0.8-1,1C1934,291.9,1933.5,292.1,1933,292z"/>
			<path class="st12" d="M1893.2,428.8c-4.4-25-0.8-59.3,16.2-92c-14.6-51.9-19.5-108.5,13.7-105.7c-20.9-2.5-48.3,3.3-86.8,13.5
				h-0.3c-22.2,6.6-25,50-9.1,104.9c-11.5,29.1-17.3,66.7-6.6,92c12.6-1.6,26.1-3.6,40.1-6C1874.5,432.9,1882.5,431.3,1893.2,428.8
				L1893.2,428.8z"/>
			<path class="st13" d="M1890.7,95.1c6.6-9.9,14.3-14.3,21.7-12.6s13.2,11.8,11.8,38.2s7.4,68.9,1.1,110.7
				c-4.9-0.8-14-0.5-19.5,6.6c-22.8,30.2-36,45-52.5,45.9c-16.5,0.8-29.7-10.7-34.3-61c-3.8-44.1,3.3-88.4,20.6-129.1
				c7.7-16.8,18.9-29.1,28.8-31.6C1878.3,59.7,1889.3,70.4,1890.7,95.1L1890.7,95.1z"/>
			<path class="st49" d="M1898.4,262.7c-15.1,20-30.8,29.7-47.8,29.7h-0.3c-3.1,0-6.2-0.6-9.1-1.9c-2.8-1.3-5.4-3.2-7.4-5.5
				c-4.1-5.2-8.2-15.4-6.9-34.6c-2,2.5-3.8,5.1-5.2,8c0.3,12.9,3,23.1,8.5,29.7c2.4,3,5.5,5.4,8.9,7c3.5,1.6,7.3,2.4,11.1,2.3h0.3
				c17.3,0,32.7-8.5,47.5-26.4C1898.1,268.2,1898.1,265.4,1898.4,262.7L1898.4,262.7z"/>
			<path d="M1890.7,95.1c1.9,24.7,1.6,53,1.6,53c12.4-20.9,19.2-36.3,22-47.8c2.7-11.5-4.9-21.7-13.7-15.4
				C1896.7,87.7,1893.3,91.2,1890.7,95.1z"/>
			<path class="st12" d="M1894.8,176.2c2.2-4,4-8.1,5.5-12.4c1.9-4.4,4.1-7.7,8.5-7.7c4.4,0,9.3,7.4,6,16.8s-11.5,16.8-18.1,16.8
				C1890.1,189.6,1891.2,183.8,1894.8,176.2z"/>
			<path d="M1897.4,174.4c1.6-3.1,1.8-6.2,0.3-7c-1.5-0.8-4,1.1-5.6,4.1c-1.6,3.1-1.8,6.2-0.3,7
				C1893.2,179.3,1895.7,177.5,1897.4,174.4z"/>
			<path class="st48" d="M1862.4,135c5.5-30.2-3.8-35.2-14.3-33.2c-10.4,1.9-15.9,11.5-19.5,23.3c-9.1,31.7-12.3,64.9-9.6,97.8
				c4.7,50.3,20.9,61.5,34.3,61c5.6-0.4,11-2.3,15.7-5.5C1849.5,233.3,1854.7,177,1862.4,135z"/>
			<path d="M1761.3,321.4h-13.2c-0.4,0-0.8-0.1-1.1-0.3c-0.3-0.2-0.6-0.5-0.8-0.8l-10.7-15.4c-0.1-0.2-0.3-0.3-0.5-0.4
				c-0.2-0.1-0.4-0.1-0.6-0.1h-8.5c-0.7,0-1.3-0.3-1.7-0.7c-0.5-0.5-0.7-1.1-0.7-1.7c0-0.7,0.3-1.3,0.7-1.7c0.5-0.5,1.1-0.7,1.7-0.7
				h8.5c1,0,2.1,0.2,3,0.7c0.9,0.5,1.7,1.2,2.3,2.1l9.9,14.3h11.8c0.7,0,1.3,0.3,1.7,0.7c0.5,0.5,0.7,1.1,0.7,1.7
				c0,0.7-0.3,1.3-0.7,1.7C1762.6,321.2,1762,321.4,1761.3,321.4L1761.3,321.4z"/>
			<path class="st50" d="M1761.3,338.2c-5.1,0-10-2-13.6-5.6c-3.6-3.6-5.6-8.5-5.6-13.6c0-5.1,2-10,5.6-13.6
				c3.6-3.6,8.5-5.6,13.6-5.6h25v38.4H1761.3z"/>
			<path d="M1984.1,694.2c2.4-6.2,0.4-12.8-4.6-14.8c-4.9-1.9-10.9,1.5-13.3,7.8c-2.4,6.2-0.4,12.8,4.6,14.8
				C1975.7,703.9,1981.7,700.4,1984.1,694.2L1984.1,694.2z"/>
			<path d="M1910.6,686.5c1.7-6.1-0.1-12-4.1-13.1s-8.5,3-10.2,9.2c-1.7,6.1,0.1,12,4.1,13.1
				C1904.3,696.7,1908.9,692.6,1910.6,686.5z"/>
			<path d="M2060.1,732.8c-0.4,0-0.9-0.1-1.2-0.3c-0.4-0.2-0.7-0.5-1-0.8c-0.2-0.4-0.3-0.9-0.3-1.4c0.1-0.5,0.2-1,0.5-1.3
				c9.3-13.6,17.4-27.9,24.4-42.8c0.1-0.3,0.2-0.6,0.4-0.8c0.2-0.2,0.5-0.4,0.8-0.6c0.3-0.1,0.6-0.2,0.9-0.2c0.3,0,0.6,0.1,0.9,0.2
				c0.3,0.1,0.6,0.3,0.8,0.5c0.2,0.2,0.4,0.5,0.6,0.8c0.1,0.3,0.2,0.6,0.2,1c0,0.3-0.1,0.7-0.2,1c-6.1,13.7-13.4,26.8-21.7,39.3
				c4.7-0.7,9.5-1,14.3-1.1c0.7,0,1.3,0.3,1.8,0.7c0.5,0.5,0.7,1.1,0.7,1.7s-0.2,1.3-0.7,1.7c-0.5,0.5-1.1,0.7-1.8,0.7
				c-6.4,0.1-12.9,0.6-19.2,1.6H2060.1z"/>
			<path d="M2079.9,779.8c-3.7,0.7-7.5,1.2-11.3,1.4C2070.3,788.3,2073.9,799,2079.9,779.8z"/>
			<path d="M1925.9,650.7c0,4.9-7.1,9.1-16.2,9.1s-16.5-4.1-16.5-9.1c0-4.9,7.4-6.9,16.5-6.3S1925.9,645.5,1925.9,650.7z"/>
			<path d="M2000.3,655.4c0,4.9-7.4,9.1-16.2,9.1c-8.8,0-16.5-4.1-16.5-9.1c0-4.9,7.4-6.9,16.5-6.3
				C1993.1,649.6,2000.3,650.4,2000.3,655.4z"/>
			<path class="st22" d="M1925.3,913h-2.5c-7.8-0.1-15.6-1.9-22.7-5.1c-7.1-3.3-13.5-8-18.8-13.8c-4.5-5.5-7.9-11.9-9.9-18.7
				c-2-6.8-2.5-14-1.6-21.1c0.1-0.6,0.5-1.2,1-1.6c0.5-0.4,1.1-0.6,1.8-0.6c0.6,0.1,1.2,0.5,1.6,1c0.4,0.5,0.6,1.1,0.6,1.8
				c-0.9,6.4-0.4,12.9,1.4,19.1c1.8,6.2,4.9,11.9,9,16.9c4.7,5.3,10.5,9.6,17,12.6c6.5,3,13.5,4.6,20.6,4.7
				c29.9,1.1,59-18.7,68.1-46.4c0.2-0.6,0.6-1.1,1.2-1.4c0.5-0.3,1.2-0.4,1.8-0.2c0.3,0.1,0.6,0.2,0.9,0.4c0.3,0.2,0.5,0.4,0.7,0.7
				c0.1,0.3,0.2,0.6,0.2,0.9c0,0.3,0,0.7-0.2,1C1986.3,891.8,1956.3,913,1925.3,913L1925.3,913z"/>
			<path class="st42" d="M1626.5,747.4c-1.8,0.1-3.5-0.1-5.2-0.5c-7.4-2.2-14.5-5.4-21.1-9.3c-0.4-0.4-0.6-0.9-0.7-1.5
				c-0.1-0.5,0-1.1,0.3-1.6c0.3-0.5,0.7-0.8,1.2-1c0.5-0.2,1.1-0.2,1.6,0c6.2,3.7,12.8,6.5,19.8,8.5c2.9,0.8,5.9,0.8,8.8-0.1
				c2.9-0.8,5.4-2.4,7.4-4.6L1747.1,618c0.5-0.3,1-0.5,1.6-0.5s1.1,0.3,1.5,0.7c0.4,0.4,0.7,0.9,0.8,1.5c0.1,0.6,0,1.2-0.4,1.6
				l-108.2,119.2c-2,2.2-4.5,3.9-7.2,5.1C1632.4,746.8,1629.5,747.4,1626.5,747.4z"/>
			<path class="st21" d="M1658.4,696.2c12.3-12.4,17.9-26.7,12.6-32.1c-5.4-5.4-19.7,0.3-32,12.7c-12.3,12.4-17.9,26.7-12.6,32.1
				S1646.1,708.6,1658.4,696.2z"/>
			<path class="st21" d="M1710.7,639.1c13.1-11.5,19.7-25.4,14.7-31.1c-5-5.7-19.7-1-32.8,10.5c-13.1,11.5-19.7,25.4-14.7,31.1
				S1697.6,650.6,1710.7,639.1L1710.7,639.1z"/>
			<path class="st21" d="M1681.2,757.8c9.6-12.7,11.8-27.2,4.9-32.4c-6.9-5.2-20.3,0.9-29.9,13.6c-9.6,12.7-11.8,27.2-4.9,32.4
				S1671.6,770.5,1681.2,757.8z"/>
			<path class="st21" d="M1734.7,700.5c10.3-12.3,13.3-26.8,6.7-32.4c-6.6-5.5-20.4,0-30.7,12.3c-10.3,12.3-13.3,26.8-6.7,32.4
				C1710.6,718.3,1724.4,712.8,1734.7,700.5z"/>
			<path class="st13" d="M1871.7,361.3c19.8,0,46.1-0.5,81-1.6s52.2-8.5,42.3-41.2s-24.4-61-47-78s-40.4,12.6-23.9,37.6l29.7,45.3
				l-82.1,1.6c-10.4-10.2-17.9-17-26.9-17c-6.3,0.1-12.6,1.8-18.1,4.8c-5.6,3-10.4,7.3-14,12.5c-9.1,13.5-11.8,22,5.2,40.4
				C1834.9,384,1845.7,386.8,1871.7,361.3L1871.7,361.3z"/>
			<path class="st37" d="M1718.5,505.4c-10.8,1.2-21.3,4.2-31,9.1c-7.1,4.1,0.3,11.8,21.7,13.7c21.4,1.9,42.8-2.7,51.1-3.8
				c8.2-1.1,7.4-0.8,13.5,3.8c6,4.7,10.4,8.2,9.9,3.8c-0.5-4.4-2.2-8.8,0.5-13.5c2.7-4.7,3.8-6.6,3.6-10.4c-0.3-3.8-1.9-2.7-5.8,0.5
				c-3.6,3.1-7.5,6-11.5,8.5c-1.9,0.8-2.2-0.5-8.2-3.6C1748.8,506.5,1733.6,503.6,1718.5,505.4z"/>
			<path d="M1950.6,318.1l3.3,5.2c9.3,0.8,18.2,4.5,25.3,10.7l1.6,0.5c0.4,0,0.8-0.1,1.1-0.3c0.3-0.2,0.6-0.5,0.8-0.8
				c0.2-0.2,0.4-0.5,0.4-0.8c0.1-0.3,0.1-0.6,0.1-0.9c-0.1-0.3-0.2-0.6-0.4-0.9c-0.2-0.3-0.4-0.5-0.7-0.6
				C1973.3,322.6,1962.2,318.4,1950.6,318.1z"/>
			<path class="st48" d="M1885.2,227c-0.3,0-0.6-0.1-0.9-0.2c-0.3-0.1-0.6-0.3-0.8-0.5c-0.2-0.2-0.4-0.5-0.5-0.8
				c-0.1-0.3-0.2-0.6-0.2-0.9c0-0.3,0-0.6,0.1-0.9c0.1-0.3,0.2-0.6,0.5-0.8c0.2-0.2,0.5-0.4,0.7-0.5c0.3-0.1,0.6-0.2,0.9-0.2
				c13.2-0.8,19.5-4.9,28-18.4c0.1-0.3,0.3-0.6,0.6-0.8c0.2-0.2,0.5-0.4,0.9-0.4c0.3-0.1,0.6-0.1,1,0c0.3,0.1,0.6,0.2,0.9,0.4
				c0.5,0.3,0.9,0.9,1.1,1.5c0.2,0.6,0.1,1.3-0.2,1.8C1908.8,219,1902,225.9,1885.2,227L1885.2,227z"/>
			<path class="st15" d="M1891.5,107.2c0.5,10.7,0.5,20.9,0.8,28.3c17.3-29.7,17.9-40.4,16.8-43.4c-1.1-3-5.2-2.7-11.3,5.8
				L1891.5,107.2z"/>
			<path d="M1822.6,334.3c-28.3-31.6-57.7-62.1-88.4-90.9c-31-28.8-63.7-55.7-98-80.5c-34.4-24.6-70.2-47.1-107.4-67.3
				c-37.3-20-75.8-38.2-114.8-54.4c-0.3-0.1-0.6-0.3-0.8-0.5c-0.2-0.2-0.4-0.5-0.6-0.8c-0.1-0.3-0.2-0.6-0.2-1c0-0.3,0.1-0.7,0.2-1
				c0.1-0.3,0.3-0.6,0.5-0.8s0.5-0.4,0.8-0.6c0.3-0.1,0.6-0.2,1-0.2c0.3,0,0.7,0.1,1,0.2c39.3,15.9,78.3,33.5,115.9,53.3
				c37.7,19.9,74.1,42.1,109,66.5c34.8,24.6,68.1,51.2,99.7,79.9c31.6,28.6,61.5,59,90.4,90.4c0.5,0.5,0.9,1.2,1.2,1.9
				c0.3,0.7,0.4,1.4,0.4,2.2c0,0.7-0.2,1.5-0.5,2.2c-0.3,0.7-0.8,1.3-1.3,1.8c-1.1,1-2.6,1.5-4,1.5
				C1825,336,1823.6,335.4,1822.6,334.3L1822.6,334.3z"/>
			<path class="st12" d="M1786.3,338.2c10.6,0,19.2-8.6,19.2-19.2s-8.6-19.2-19.2-19.2s-19.2,8.6-19.2,19.2
				S1775.7,338.2,1786.3,338.2z"/>
			<path class="st51" d="M1786.3,329.1c5.6,0,10.2-4.6,10.2-10.2s-4.6-10.2-10.2-10.2s-10.2,4.6-10.2,10.2
				S1780.7,329.1,1786.3,329.1z"/>
			<path class="st21" d="M1992.9,373.1l-0.8,4.7c9.9,1.4,14.8,4.1,14,8.5c-3.3,13.2-68.4,34.6-145.6,48.6
				c-77.2,14-137.3,14.6-134,1.4c0.8-3.8,6-8,15.1-12.6l-2.7-3.8c-15.1,7.4-24.4,14.8-25.8,21.1c-4.1,18.4,61,21.4,145.6,6.9
				c84.6-14.6,156.3-41.5,160.4-60.1C2020.6,380.2,2010.7,375.3,1992.9,373.1z"/>
			<path class="st42" d="M1722.9,650.7l-1.6-0.5l-20.6-18.4c-0.3-0.2-0.5-0.5-0.6-0.8c-0.2-0.3-0.2-0.6-0.3-1c0-0.3,0-0.7,0.1-1
				c0.1-0.3,0.3-0.6,0.5-0.9c0.2-0.2,0.5-0.4,0.7-0.5c0.3-0.1,0.6-0.2,0.9-0.2c0.3,0,0.6,0.1,0.9,0.2c0.3,0.1,0.5,0.3,0.7,0.5
				l20.9,18.1c0.2,0.2,0.4,0.5,0.6,0.8c0.1,0.3,0.2,0.6,0.2,1c0,0.3-0.1,0.7-0.2,1c-0.1,0.3-0.3,0.6-0.6,0.8
				c-0.2,0.3-0.4,0.5-0.7,0.6C1723.5,650.7,1723.2,650.7,1722.9,650.7L1722.9,650.7z"/>
			<path class="st42" d="M1669.3,708.1c-0.3,0-0.6,0-0.9-0.1c-0.3-0.1-0.5-0.3-0.8-0.5l-19.5-17.3c-0.3-0.5-0.5-1-0.5-1.6
				s0.3-1.1,0.7-1.5c0.4-0.4,0.9-0.7,1.5-0.8c0.6-0.1,1.2,0,1.6,0.4L1671,704c0.3,0.2,0.5,0.4,0.6,0.7c0.2,0.3,0.2,0.6,0.3,0.9
				c0,0.3,0,0.6-0.1,0.9c-0.1,0.3-0.3,0.6-0.5,0.8C1670.7,707.8,1670.1,708.1,1669.3,708.1L1669.3,708.1z"/>
			<path class="st42" d="M1720.4,690.8c-0.3,0-0.6,0-0.9-0.1c-0.3-0.1-0.5-0.3-0.8-0.5l-18.9-16.8c-0.2-0.2-0.4-0.5-0.6-0.8
				c-0.1-0.3-0.2-0.6-0.2-1c0-0.3,0.1-0.7,0.2-1c0.1-0.3,0.3-0.6,0.6-0.8c0.2-0.2,0.5-0.4,0.7-0.5c0.3-0.1,0.6-0.2,0.9-0.2
				s0.6,0.1,0.9,0.2c0.3,0.1,0.5,0.3,0.7,0.5l18.9,16.8c0.3,0.2,0.5,0.4,0.6,0.7c0.2,0.3,0.2,0.6,0.3,0.9c0,0.3,0,0.6-0.1,0.9
				c-0.1,0.3-0.3,0.6-0.5,0.8c-0.2,0.3-0.5,0.5-0.9,0.6S1720.8,690.8,1720.4,690.8L1720.4,690.8z"/>
			<path class="st42" d="M1669.1,751.5l-1.6-0.5l-19.5-17.3c-0.2-0.2-0.4-0.5-0.6-0.8c-0.1-0.3-0.2-0.6-0.2-1c0-0.3,0.1-0.7,0.2-1
				c0.1-0.3,0.3-0.6,0.6-0.8c0.2-0.2,0.5-0.4,0.7-0.5c0.3-0.1,0.6-0.2,0.9-0.2c0.3,0,0.6,0.1,0.9,0.2c0.3,0.1,0.5,0.3,0.7,0.5
				l19.5,17c0.3,0.2,0.5,0.5,0.6,0.8c0.2,0.3,0.2,0.6,0.3,1c0,0.3,0,0.7-0.1,1c-0.1,0.3-0.3,0.6-0.5,0.9
				C1670.5,751.2,1669.8,751.5,1669.1,751.5L1669.1,751.5z"/>
			<path d="M1401.9,243.4h-1.1c-0.6-0.3-1-0.8-1.3-1.4c-0.3-0.6-0.3-1.3-0.1-1.9c5.4-13.4,9.6-27.3,12.6-41.5c0.3-0.5,0.7-1,1.3-1.3
				c0.5-0.3,1.2-0.4,1.8-0.4c0.3,0.1,0.6,0.2,0.9,0.4c0.3,0.2,0.5,0.4,0.7,0.7c0.2,0.3,0.3,0.6,0.4,0.9c0.1,0.3,0,0.7,0,1
				c-3.3,14.3-7.6,28.3-12.9,42C1403.5,242.6,1402.7,243.4,1401.9,243.4L1401.9,243.4z"/>
			<path class="st12" d="M1436.9,281.3l37.9-8.5c2.9-0.8,5.6-2.2,8-4.1c12.6-10.2,14.6-16.2,14.6-16.2l-25.5-18.9l-40.4,41.7
				L1436.9,281.3z"/>
			<path class="st34" d="M1570.1,255.2l-4.7,7.1c0,0-29.1,6.6-40.4,8.2s-36.8-5.5-53-25.8c-11,24.2-28.8,34.6-35.2,36.5l-5.5-6
				l42.3-47.8L1570.1,255.2z"/>
			<path class="st23" d="M1524,224.8c0,0,1.4-6.9,1.6-10.2s-1.9-3-18.1-0.8l-37.9,4.9c-4.7,0.5-6,2.7-2.5,11.3
				c-12.1,17.6-34.1,36.8-42.6,43.7c-0.5,0.5-0.5,1.4,0,1.6l2.5,2.5h1.4c17-14.8,30.8-27.7,43.4-44.2c22.5,19.8,39.3,26.6,53,30.8
				h2.2l48.6-9.1c0.3,0,0.6-0.1,0.9-0.3c0.3-0.2,0.5-0.4,0.7-0.6c0.2-0.3,0.4-0.5,0.4-0.9c0.1-0.3,0.1-0.6,0.1-1
				c0-0.5-0.2-1-0.5-1.3s-0.7-0.7-1.2-0.8C1542.1,241,1524,224.8,1524,224.8L1524,224.8z"/>
			<path class="st25" d="M1524,224.8c0,0,1.4-6.9,1.6-10.2s-1.9-3-18.1-0.8l-31.6,4.1c4.1-0.3,4.9,0.5,1.4,11.5
				c7.4,8.5,23.9,20.6,47.5,29.4l51.4-8.5C1542.1,241,1524,224.8,1524,224.8z"/>
			<path d="M1471.8,242.3c-0.7,0-1.3-0.3-1.7-0.7c-0.5-0.5-0.7-1.1-0.7-1.7v-6.3c0-0.7,0.3-1.3,0.7-1.7c0.5-0.5,1.1-0.7,1.7-0.7
				s1.3,0.3,1.7,0.7c0.5,0.5,0.7,1.1,0.7,1.7v6.3c0,0.7-0.3,1.3-0.7,1.7C1473.1,242.1,1472.4,242.3,1471.8,242.3z"/>
			<path class="st12" d="M1778.1,314.3l-1.1-0.5c0-0.3-12.4-18.7-37.6-61c-36.5-7.4-103-31.9-140.1-112.3
				c-39.8-4.4-88.4-15.7-112.3-63.7c-6.3,0.3-46.4,1.4-70.6-27.2c3,50.4-1.9,101-14.6,149.9c-0.3,0.5-1.1,1.1-1.6,0.8
				c-0.5-0.3-1.1-0.8-0.8-1.4c13-49.9,17.8-101.5,14.3-153c0-0.3,0-0.6,0.2-0.8c0.1-0.2,0.4-0.4,0.6-0.6c0.5,0,1.1,0,1.4,0.5
				c25,33,71.4,29.1,71.7,29.1l1.4,0.5c23.3,47.8,71.7,59,111.2,63.4l1.1,0.5c36.8,80.2,103,104.4,139.2,111.8l0.8,0.5
				c25.5,42.6,37.6,61,37.6,61.2c0.1,0.1,0.2,0.3,0.2,0.4c0,0.2,0,0.3,0,0.5c0,0.2-0.1,0.3-0.2,0.4c-0.1,0.1-0.2,0.2-0.3,0.3
				L1778.1,314.3z"/>
			<path d="M1414.5,204.2c2.7,0,4.9-2.2,4.9-4.9c0-2.7-2.2-4.9-4.9-4.9c-2.7,0-4.9,2.2-4.9,4.9
				C1409.5,202,1411.8,204.2,1414.5,204.2z"/>
			<path d="M1406.2,247.6c-1.7,0-3.3-0.5-4.7-1.4l-1.1-0.5c-0.4-0.4-0.6-0.9-0.7-1.4c-0.1-0.5,0-1.1,0.3-1.6c0.3-0.5,0.7-0.8,1.2-1
				c0.5-0.2,1.1-0.2,1.6,0l1.1,0.5c0.6,0.3,1.2,0.5,1.9,0.6c0.7,0,1.3,0,2-0.3c0.7-0.2,1.3-0.5,1.8-0.9c0.5-0.4,0.9-1,1.2-1.6
				l5.8-11c0.3-0.6,0.8-1,1.4-1.2c0.6-0.2,1.3-0.2,1.9,0.1c0.5,0.3,0.9,0.9,1.1,1.5c0.2,0.6,0.2,1.3,0,1.8l-5.8,11
				c-0.6,1.2-1.5,2.2-2.5,3.1c-1,0.8-2.2,1.5-3.5,1.9L1406.2,247.6z"/>
			<path d="M1420.8,238.8c-0.5,0-1.1-0.1-1.5-0.4c-0.4-0.3-0.8-0.7-1-1.2l-1.1-3.8l-3.8,1.4c-0.6,0.2-1.3,0.2-1.9-0.1
				c-0.6-0.3-1.1-0.7-1.4-1.3c-0.2-0.7-0.1-1.4,0.2-2s0.8-1.1,1.5-1.3l6.3-2.2h1.9c0.3,0.1,0.5,0.3,0.7,0.6c0.2,0.2,0.3,0.5,0.4,0.8
				l1.9,6.6c0.2,0.6,0.1,1.3-0.2,1.8s-0.8,1-1.4,1.2H1420.8z"/>
			<path class="st18" d="M1152.8,153.8c-3.1-1.9-5.7-4.5-7.7-7.5c-2-3-3.3-6.5-3.8-10.1l-1.9-12.4c0-0.3-0.1-0.6-0.3-0.8
				c-0.2-0.2-0.5-0.3-0.8-0.3c-0.3,0.1-0.6,0.2-0.8,0.4c-0.2,0.2-0.4,0.4-0.6,0.7l-1.6,12.4c-0.5,3.6-1.8,7-3.8,10.1
				c-2,3-4.6,5.6-7.7,7.5l-1.6,1.1c-0.2,0.1-0.3,0.3-0.4,0.5c-0.1,0.2-0.1,0.4-0.1,0.6c0,0.2,0,0.4,0.1,0.6c0.1,0.2,0.2,0.4,0.4,0.5
				l1.6,1.1c3.1,1.9,5.7,4.5,7.7,7.5c2,3,3.3,6.5,3.8,10.1l1.6,12.4c0.1,0.3,0.3,0.5,0.6,0.7s0.5,0.3,0.8,0.4c0.3,0,0.6-0.1,0.8-0.3
				c0.2-0.2,0.3-0.5,0.3-0.8l1.9-12.4c0.5-3.6,1.8-7,3.8-10.1c2-3,4.6-5.6,7.7-7.5l1.6-1.1c0.2-0.1,0.3-0.3,0.4-0.5
				c0.1-0.2,0.1-0.4,0.1-0.6c0-0.2,0-0.4-0.1-0.6c-0.1-0.2-0.2-0.4-0.4-0.5L1152.8,153.8z"/>
			<path class="st35" d="M485.1,227.4c-2.4-1.5-4.4-3.5-5.9-5.9c-1.5-2.4-2.5-5.1-2.8-7.9l-1.6-9.6c0-0.2-0.1-0.4-0.2-0.6
				c-0.2-0.2-0.4-0.2-0.6-0.2c-0.5,0-0.8,0.5-1.1,0.8l-1.4,9.6c-0.4,2.8-1.4,5.4-2.9,7.8c-1.5,2.4-3.5,4.4-5.9,5.9l-1.4,0.8
				c-0.1,0.1-0.2,0.2-0.2,0.4c0,0.1-0.1,0.3-0.1,0.4c0,0.5,0,0.8,0.3,0.8l1.4,0.8c2.3,1.6,4.3,3.6,5.8,5.9c1.5,2.4,2.5,5,3,7.8
				l1.4,9.6c0.3,0.5,0.5,0.8,1.1,0.8c0.2,0,0.4-0.1,0.6-0.2c0.2-0.2,0.2-0.4,0.2-0.6l1.6-9.6c0.4-2.8,1.3-5.5,2.9-7.8
				c1.5-2.4,3.5-4.4,5.9-5.9l1.1-0.8c0.3,0,0.5-0.3,0.5-0.8l-0.5-0.8L485.1,227.4z"/>
			<path class="st13" d="M871.3,40.9c-1.9-1.4-3.2-3.5-3.6-5.8l-0.5-3.8c0-0.1,0-0.1-0.1-0.2c-0.1-0.1-0.1-0.1-0.2-0.1
				c-0.3,0-0.5,0-0.5,0.3l-0.5,3.8c-0.2,1.2-0.5,2.3-1.2,3.3c-0.6,1-1.4,1.8-2.4,2.5c1,0.7,1.8,1.5,2.4,2.5c0.6,1,1,2.1,1.2,3.3
				l0.5,3.8c0,0.3,0.3,0.3,0.5,0.3c0.1,0,0.1,0,0.2-0.1c0-0.1,0.1-0.1,0.1-0.2l0.5-3.8C868.1,44.4,869.4,42.3,871.3,40.9h0.5
				c0.3,0,0.3,0,0.3-0.3h-0.8L871.3,40.9z"/>
			<path class="st37" d="M339.6,477.8c-3.2-2.1-5.8-4.9-7.9-8.1c-2-3.2-3.4-6.8-3.9-10.6l-2.2-13.2c0-0.1,0-0.3-0.1-0.4
				c-0.1-0.1-0.1-0.3-0.2-0.4c-0.1-0.1-0.2-0.2-0.4-0.2c-0.1-0.1-0.3-0.1-0.4-0.1c-0.3,0-0.6,0.1-0.9,0.3c-0.3,0.2-0.4,0.5-0.5,0.8
				l-1.9,13.2c-0.6,3.8-1.9,7.4-4,10.6c-2.1,3.2-4.8,6-8.1,8l-1.6,1.1c-0.3,0-0.5,0.5-0.5,1.1c0,0.2,0,0.4,0.1,0.6
				c0.1,0.2,0.2,0.4,0.4,0.5l1.6,1.1c3.3,2,6,4.8,8.1,8c2.1,3.2,3.4,6.9,4,10.7l1.9,12.9c0.1,0.3,0.2,0.6,0.5,0.8
				c0.2,0.2,0.6,0.3,0.9,0.3c0.3,0,0.6-0.1,0.8-0.3c0.2-0.2,0.3-0.5,0.3-0.8l2.2-12.9c0.5-3.8,1.9-7.4,3.9-10.6c2-3.2,4.7-6,7.9-8.1
				l1.9-1.1c0.2-0.1,0.3-0.3,0.4-0.5c0.1-0.2,0.1-0.4,0.1-0.6c0-0.5-0.3-1.1-0.5-1.1L339.6,477.8z"/>
			<path class="st25" d="M2029.7,26.5c-5.5-3.5-10.2-8.2-13.7-13.7c-3.5-5.5-5.9-11.7-6.9-18.1l-3.3-22.5c-0.1-0.5-0.3-1-0.7-1.4
				c-0.4-0.4-0.9-0.5-1.5-0.5c-0.5,0-1.1,0.2-1.5,0.5c-0.4,0.4-0.7,0.8-0.7,1.4l-3.6,22.5c-0.9,6.5-3.2,12.7-6.8,18.2
				c-3.5,5.5-8.3,10.2-13.8,13.7l-3,1.9c-0.3,0.2-0.5,0.5-0.6,0.9c-0.1,0.3-0.2,0.7-0.2,1.1c0,0.3,0.1,0.6,0.2,0.9
				c0.2,0.3,0.4,0.5,0.6,0.7l3,1.9c5.5,3.6,10.2,8.3,13.8,13.8c3.6,5.5,5.9,11.8,6.8,18.3l3.6,22.2c0.1,0.5,0.3,1,0.7,1.4
				c0.4,0.4,0.9,0.5,1.5,0.5c0.5,0,1.1-0.2,1.5-0.5c0.4-0.4,0.7-0.8,0.7-1.4l3.3-22.2c1-6.5,3.3-12.7,6.9-18.3s8.2-10.3,13.7-13.9
				l3-1.9c0.3-0.2,0.5-0.4,0.7-0.7c0.2-0.3,0.3-0.6,0.4-1c0-0.4-0.2-0.7-0.4-1.1c-0.2-0.3-0.4-0.6-0.7-0.8L2029.7,26.5z"/>
			<path class="st37" d="M1237.1,734.7c-3.9-2.7-6.5-6.9-7.4-11.5l-1.1-8.2c0-0.3-0.5-0.5-0.8-0.5c-0.3,0-0.8,0.3-0.8,0.5l-1.1,8.2
				c-0.4,2.3-1.3,4.6-2.7,6.6c-1.3,2-3,3.7-5,5l-0.8,0.5l-0.5,0.8c0,0.1,0.1,0.3,0.2,0.4c0.1,0.1,0.2,0.2,0.4,0.2l0.8,0.8
				c2,1.3,3.7,3,5.1,4.9c1.3,2,2.2,4.2,2.6,6.6l1.1,8c0,0.2,0.1,0.4,0.2,0.6c0.2,0.2,0.4,0.2,0.6,0.2c0.2,0,0.4-0.1,0.6-0.2
				c0.2-0.2,0.2-0.4,0.2-0.6l1.1-8c0.4-2.3,1.3-4.5,2.5-6.5c1.3-2,2.9-3.7,4.9-5l1.1-0.8c0.1,0,0.1,0,0.2,0c0.1,0,0.1-0.1,0.2-0.1
				c0.1,0,0.1-0.1,0.1-0.2c0-0.1,0-0.1,0-0.2l-0.5-0.8L1237.1,734.7z"/>
			<path class="st48" d="M1525.7,657.6c-3.5-2.5-6-6.2-6.9-10.4l-1.1-7.4l-0.5-0.5c-0.5,0-0.8,0.3-0.8,0.5l-1.1,7.4
				c-0.3,2.1-1.1,4.2-2.3,6c-1.2,1.8-2.8,3.3-4.6,4.5l-0.8,0.5c-0.3,0-0.3,0.3-0.3,0.5c0,0.3,0,0.5,0.3,0.5l0.8,0.8
				c1.9,1.1,3.5,2.6,4.7,4.4c1.2,1.8,1.9,3.9,2.2,6l1.1,7.1c0,0.2,0.1,0.4,0.2,0.6c0.2,0.2,0.4,0.2,0.6,0.2c0.3,0,0.5-0.3,0.5-0.8
				l1.1-7.1c0.4-2.1,1.1-4.1,2.3-5.9c1.2-1.8,2.7-3.3,4.5-4.5l0.8-0.8c0.3,0,0.3-0.3,0.3-0.5s0-0.5-0.3-0.5L1525.7,657.6z"/>
			<path class="st41" d="M1767.4,168.5c-1.8-1.1-3.3-2.7-4.5-4.5c-1.1-1.8-1.9-3.8-2.1-6l-1.1-7.1c0-0.3-0.3-0.5-0.8-0.5
				c-0.1,0-0.3,0.1-0.4,0.2c-0.1,0.1-0.2,0.2-0.2,0.4l-1.1,7.1c-0.3,2.1-1.1,4.2-2.3,6c-1.2,1.8-2.8,3.3-4.6,4.4l-0.8,0.5
				c-0.1,0.1-0.2,0.2-0.2,0.4c0,0.1-0.1,0.3-0.1,0.4v0.5l0.8,0.5c1.8,1.1,3.4,2.7,4.6,4.5c1.2,1.8,2,3.8,2.3,6l1.1,7.1
				c0,0.5,0.3,0.8,0.5,0.8c0.2,0,0.4-0.1,0.6-0.2c0.2-0.2,0.2-0.4,0.2-0.6l1.1-7.1c0.3-2.1,1-4.1,2.2-5.9c1.1-1.8,2.7-3.3,4.4-4.5
				l1.1-0.5v-0.5c0-0.1,0-0.3-0.1-0.4s-0.1-0.3-0.2-0.4L1767.4,168.5z"/>
			<path class="st25" d="M516.7,841.3c-1.5-0.9-2.7-2.2-3.7-3.7c-0.9-1.5-1.6-3.1-1.8-4.9l-0.8-6l-0.8-0.5l-0.5,0.5l-0.8,6
				c-0.2,1.7-0.9,3.4-1.8,4.9c-1,1.5-2.2,2.7-3.7,3.7l-0.8,0.5c-0.3,0-0.3,0.3-0.3,0.5s0,0.3,0.3,0.5l0.8,0.5
				c1.5,0.9,2.7,2.2,3.7,3.7c0.9,1.5,1.6,3.1,1.8,4.9l0.8,6l0.5,0.5l0.8-0.5l0.8-6c0.2-1.7,0.9-3.4,1.8-4.9c1-1.5,2.2-2.7,3.7-3.7
				l0.8-0.5c0.3-0.3,0.3-0.3,0.3-0.5s0-0.5-0.3-0.5L516.7,841.3z"/>
			<path class="st26" d="M765.7,703.9c-1.5-1-2.7-2.3-3.7-3.8c-0.9-1.5-1.6-3.2-1.8-5l-0.8-6H758l-0.8,6c-0.2,1.8-0.9,3.5-1.8,5
				c-0.9,1.5-2.2,2.8-3.7,3.8l-0.8,0.5c-0.3,0-0.3,0.3-0.3,0.5c0,0.3,0,0.3,0.3,0.5h0.8c1.5,1,2.7,2.3,3.6,3.8
				c0.9,1.5,1.6,3.2,1.8,5l0.8,6c0,0.1,0.1,0.3,0.2,0.4c0.1,0.1,0.2,0.2,0.4,0.2c0.5,0,0.5-0.3,0.8-0.5l0.8-6c0.3-1.8,0.9-3.4,1.8-5
				c0.9-1.5,2.2-2.8,3.6-3.8h0.8c0.3-0.3,0.3-0.3,0.3-0.5c0-0.3,0-0.5-0.3-0.5L765.7,703.9z"/>
			<path class="st34" d="M-110.3,503.7c-1.8-1.1-3.3-2.6-4.4-4.3c-1.1-1.8-1.9-3.7-2.2-5.8l-1.1-7.1c0-0.3-0.3-0.5-0.8-0.5l-0.5,0.5
				l-1.1,7.1c-0.3,2.1-1,4.1-2.2,5.8c-1.1,1.8-2.7,3.2-4.4,4.3l-0.8,0.5v0.5v0.5l0.8,0.5c1.8,1.1,3.3,2.6,4.4,4.3s1.9,3.7,2.2,5.8
				l1.1,7.1c0,0.1,0.1,0.3,0.2,0.4c0.1,0.1,0.2,0.2,0.4,0.2c0.5,0,0.8-0.3,0.8-0.5l1.1-7.1c0.3-2.1,1-4.1,2.2-5.8
				c1.1-1.8,2.7-3.2,4.4-4.3l0.8-0.5v-0.5v-0.5L-110.3,503.7z"/>
		</g>
	</g>
</g>
</svg>
