<?xml version="1.0" encoding="utf-8"?>
<!-- Generator: Adobe Illustrator 24.2.1, SVG Export Plug-In . SVG Version: 6.00 Build 0)  -->
<svg version="1.1" id="katman_1" xmlns="http://www.w3.org/2000/svg" xmlns:xlink="http://www.w3.org/1999/xlink" x="0px" y="0px"
	 viewBox="0 0 54.1 54.1" style="enable-background:new 0 0 54.1 54.1;" xml:space="preserve">
<style type="text/css">
	.st0{fill:#FFFFFF;}
</style>
<g>
	<path class="st0" d="M30.3,54.1h-6.6c-0.6,0-1-0.5-1-1V1c0-0.6,0.4-1,1-1l6.6,0c0.5,0,1,0.4,1,1v52.1
		C31.3,53.7,30.9,54.1,30.3,54.1z"/>
	<path class="st0" d="M0,30.3l0-6.6c0-0.6,0.4-1,1-1h52.1c0.5,0,1,0.4,1,1v6.6c0,0.5-0.5,1-1,1H1C0.4,31.3,0,30.9,0,30.3z"/>
</g>
</svg>
