<?xml version="1.0" encoding="utf-8"?>
<!-- Generator: Adobe Illustrator 24.2.1, SVG Export Plug-In . SVG Version: 6.00 Build 0)  -->
<svg version="1.1" id="katman_1" xmlns="http://www.w3.org/2000/svg" xmlns:xlink="http://www.w3.org/1999/xlink" x="0px" y="0px"
	 viewBox="0 0 29 29" style="enable-background:new 0 0 29 29;" xml:space="preserve">
<style type="text/css">
	.st0{opacity:0.8;fill:#32EDC9;enable-background:new    ;}
</style>
<path class="st0" d="M5.2,14.6L0,28.4c0,0,0,0,0,0.3c0,0,0,0,0,0.3c0,0,0,0,0.3,0c0,0,0,0,0.3,0l13.8-5.2h0.3L28.4,29c0,0,0,0,0.3,0
	c0,0,0,0,0.3,0c0,0,0,0,0-0.3c0,0,0,0,0-0.3l-5.2-13.8v-0.3L29,0.6c0,0,0,0,0-0.3c0,0,0,0,0-0.3c0,0,0,0-0.3,0c0,0,0,0-0.3,0
	L14.6,5.2h-0.3L0.6,0c0,0,0,0-0.3,0c0,0,0,0-0.3,0c0,0,0,0,0,0.3c0,0,0,0,0,0.3L5.2,14.6C5.2,14.4,5.2,14.4,5.2,14.6z"/>
</svg>
