<?xml version="1.0" encoding="utf-8"?>
<!-- Generator: Adobe Illustrator 24.2.1, SVG Export Plug-In . SVG Version: 6.00 Build 0)  -->
<svg version="1.1" id="katman_1" xmlns="http://www.w3.org/2000/svg" xmlns:xlink="http://www.w3.org/1999/xlink" x="0px" y="0px"
	 viewBox="0 0 53.4 69.7" style="enable-background:new 0 0 53.4 69.7;" xml:space="preserve">
<style type="text/css">
	.st0{fill:none;}
	.st1{fill:#FFFFFF;}
	.st2{fill:#1B1B29;}
</style>
<g id="Navbar">
	<g>
		<path class="st0" d="M53.3,19.4C53.3,19.4,53.3,19.4,53.3,19.4C53.3,19.5,53.3,19.4,53.3,19.4z"/>
		<path class="st1" d="M4.3,46.3c-0.8,1.6-0.6,2-0.6,2l0.3,20.6c0,1.8,1,0.1,1,0.1l17.8-26.8c0-0.1,0.1-0.1,0.1-0.2
			C13.5,41.8,5,46,4.3,46.3z"/>
		<path class="st1" d="M53.4,19.4C53.4,8.1,44.8,0.6,34.7,0c-0.8-0.1-1.2,0-1.2,0H10.3C8.4,0.1,7.7,1.5,7.7,1.5S0.6,12.1,0.1,13.4
			C-0.4,14.7,0.8,15,0.8,15h31c0,0,0.1,0,0.2,0C32,15,49.1,14.4,53.4,19.4C53.3,19.4,53.3,19.5,53.4,19.4
			C53.3,19.4,53.3,19.4,53.4,19.4c-0.4-0.4-3.6-3.3-17.2-3.3c1.2,0.8,2.1,2,2.1,4.2c0,5.6-5.3,5.6-5.3,5.6H18.5
			c-1.4,0-2.2,1.1-2.2,1.1L4.8,45.4c-0.2,0.3-0.4,0.7-0.5,0.9c7.2-5.5,20.5-5.3,20.5-5.3l0,0c0.1,0,0.1,0,0.1,0h9
			C54.2,39.2,53.4,19.4,53.4,19.4z"/>
		<path class="st2" d="M53.3,19.4C49.1,14.4,32,15,32,15c0.7,0,2.6,0.1,4.2,1.1C49.8,16.1,52.9,19,53.3,19.4z"/>
		<path class="st1" d="M4.2,46.3C4.2,46.3,4.2,46.3,4.2,46.3C4.3,46.3,4.3,46.3,4.2,46.3C4.3,46.3,4.2,46.3,4.2,46.3z"/>
		<path class="st2" d="M4.3,46.3C4.3,46.3,4.3,46.3,4.3,46.3C5,46,13.5,41.8,22.9,42c0.6-0.9,1.5-1,1.8-1.1l0,0
			C24.8,41,11.5,40.7,4.3,46.3z"/>
	</g>
</g>
</svg>
