<?xml version="1.0" encoding="utf-8"?>
<!-- Generator: Adobe Illustrator 24.2.1, SVG Export Plug-In . SVG Version: 6.00 Build 0)  -->
<svg version="1.1" id="katman_1" xmlns="http://www.w3.org/2000/svg" xmlns:xlink="http://www.w3.org/1999/xlink" x="0px" y="0px"
	 viewBox="0 0 368.2 237.1" style="enable-background:new 0 0 368.2 237.1;" xml:space="preserve">
<style type="text/css">
	.st0{fill:#FFFFFF;}
	.st1{fill:none;}
	.st2{fill:#1B1B29;}
</style>
<g id="Top">
	<g>
		<g>
			<path class="st0" d="M0,236.3v-64c0,0,0,0,0,0h27.5c4.7,0,9,0.9,12.5,3c3.4,1.7,6.4,4.3,8.2,7.7c1.7,3.4,3,7.3,3,12
				c0,4.7-0.9,8.6-3,12s-4.7,6-8.6,7.7s-7.7,2.6-12.9,2.6H10.3c0,0,0,0,0,0v-13.3c0,0,0,0,0,0h12.9c2.1,0,3.9-0.4,5.2-1.3
				c1.3-0.9,2.6-1.7,3.4-3c0.9-1.3,1.3-3,1.3-4.7c0-1.7-0.4-3.4-1.3-4.7c-0.9-1.3-1.7-2.1-3.4-3c-1.7-0.9-3-0.9-5.2-0.9h-6
				c0,0,0,0,0,0v49.8c0,0,0,0,0,0C17.2,236.3,0,236.3,0,236.3C0,236.3,0,236.3,0,236.3z"/>
			<path class="st0" d="M77.8,237.1c-6.6,0-11.8-1.4-16.5-5.2c-1.2-1-2.3-2.1-3.3-3.3c-3.7-4.7-5.2-9.9-5.2-16.5
				c0-4.7,0.9-9.5,3-12.9c2.1-3.9,4.7-6.4,8.6-8.6c3.4-2.1,7.7-3,12.9-3c3.4,0,6.9,0.4,9.9,1.7c3,1.3,5.6,2.6,7.3,4.7
				c2.1,2.1,3.9,4.7,4.7,7.7c0.9,3,1.7,6.4,1.7,10.3v3.9c0,0,0,0,0,0H58.4c0,0,0,0,0,0v-9.5c0,0,0,0,0,0h27.1c0,0,0,0,0,0
				c0-1.3-0.4-2.6-0.9-3.4c0,0,0,0,0,0c-0.9-0.9-1.7-1.7-2.6-2.6c-0.9-0.9-2.6-0.9-3.9-0.9s-2.6,0.4-3.9,0.9
				c-1.3,0.4-2.1,1.3-2.6,2.6c-0.9,0.9-0.9,2.1-1.3,3.4c0,0,0,0,0,0v10.3c0,1.7,0.4,3,0.9,4.3c0.4,1.3,1.7,2.1,2.6,3l0,0
				c1.3,0.9,2.6,0.9,4.3,0.9c1.3,0,2.1,0,3.4-0.4c0,0,0,0,0,0c0.9-0.4,1.7-0.9,2.6-1.3c0.9-0.4,1.3-1.3,1.7-2.1c0,0,0,0,0,0h15.9
				c0,0,0,0,0,0c-0.4,3.4-1.7,6-3.9,8.6c-2.1,2.6-4.7,4.3-8.2,5.6C86.4,236.7,82.5,237.1,77.8,237.1z"/>
			<path class="st0" d="M129.3,237.1c-6.6,0-11.8-1.4-16.5-5.2c-1.2-1-2.3-2.1-3.3-3.3c-3.7-4.7-5.2-9.9-5.2-16.5
				c0-4.7,0.9-9.5,3-12.9c2.1-3.9,4.7-6.4,8.6-8.6c3.4-2.1,7.7-3,12.9-3c3.4,0,6.9,0.4,9.9,1.7c3,1.3,5.6,2.6,7.3,4.7
				c2.1,2.1,3.9,4.7,4.7,7.7v0c1.3,3,1.7,6.4,1.7,10.3v3.9c0,0,0,0,0,0H110c0,0,0,0,0,0v-9.5c0,0,0,0,0,0h27.1c0,0,0,0,0,0
				c0-1.3-0.4-2.6-0.9-3.4c0,0,0,0,0,0c-0.9-0.9-1.7-1.7-2.6-2.6c0,0,0,0,0,0c-1.3-0.4-2.6-0.9-3.9-0.9c-1.3,0-2.6,0.4-3.9,0.9
				s-2.1,1.3-2.6,2.6c-0.9,0.9-0.9,2.1-1.3,3.4c0,0,0,0,0,0v10.3c0,1.7,0.4,3,0.9,4.3c0,0,0,0,0,0c0.9,1.3,1.7,2.1,2.6,3
				c0,0,0,0,0,0c1.3,0.9,2.6,0.9,4.3,0.9c1.3,0,2.1,0,3.4-0.4l0,0c0.9-0.4,1.7-0.9,2.6-1.3c0.9-0.4,1.3-1.3,1.7-2.1c0,0,0,0,0,0
				h15.9c0,0,0,0,0,0c-0.4,3.4-1.7,6-3.9,8.6c-2.1,2.6-4.7,4.3-8.2,5.6h0C137.9,236.3,134.1,237.1,129.3,237.1z"/>
			<path class="st0" d="M175.3,209.2v27.1c0,0,0,0,0,0h-17.2c0,0,0,0,0,0v-48.1c0,0,0,0,0,0h16.3c0,0,0,0,0,0v9h0.4
				c0.9-3,3-5.6,5.6-7.3c2.6-1.7,5.6-2.6,9-2.6c3.4,0,6.4,0.9,9,2.1c0,0,0,0,0,0c2.6,1.7,4.3,3.9,6,6.4h0c1.3,2.6,2.1,5.6,2.1,9.5
				v30.5c0,0,0,0,0,0h-17.2c0,0,0,0,0,0v-26.6c0-2.6-0.4-4.3-1.7-5.6c-1.3-1.3-3-2.1-5.2-2.1c-1.3,0-2.6,0.4-3.9,0.9c0,0,0,0,0,0
				c-0.9,0.4-1.7,1.3-2.6,2.6c0,0,0,0,0,0C175.7,206.2,175.3,207.9,175.3,209.2z"/>
			<path class="st0" d="M244.1,215.2v-27.1c0,0,0,0,0,0h17.2c0,0,0,0,0,0v47.7c0,0,0,0,0,0h-16.3c0,0,0,0,0,0v-9h-0.4
				c-0.9,3-3,5.6-5.6,7.3c-2.6,1.7-5.6,2.6-9.5,2.6c-3.4,0-6.4-0.9-8.6-2.1c-2.6-1.7-4.3-3.9-6-6.4l0,0c-1.3-2.6-2.1-5.6-2.1-9.5
				v-30.5c0,0,0,0,0,0h17.2c0,0,0,0,0,0v27.1c0,2.6,0.4,4.3,1.7,5.6c1.3,1.3,3,2.1,5.2,2.1c1.3,0,2.6-0.4,3.9-0.9
				c1.3-0.4,1.7-1.3,2.6-2.6l0,0C243.6,218.2,244.1,216.9,244.1,215.2z"/>
			<path class="st0" d="M283.2,188.2l6.9,15c0,0,0,0,0,0l7.3-15c0,0,0,0,0,0h17.2c0,0,0,0,0,0l-12.9,24.1c0,0,0,0,0,0l13.3,24.1
				c0,0,0,0,0,0h-16.8c0,0,0,0,0,0l-8.2-15c0,0,0,0,0,0l-7.7,15c0,0,0,0,0,0h-17.2c0,0,0,0,0,0l13.7-24.1c0,0,0,0,0,0L266,188.2
				c0,0,0,0,0,0L283.2,188.2C283.2,188.2,283.2,188.2,283.2,188.2z"/>
			<path class="st0" d="M343.3,221.2c-3.4,0-6.9-0.4-9.9-1.7c-3-1.3-5.6-3-7.7-5.2s-3.9-4.7-5.2-7.7c-1.3-3-1.7-6.4-1.7-9.9
				c0-3.4,0.4-6.9,1.7-9.9c1.3-3,3-5.6,5.2-7.7s4.7-3.9,7.7-5.2c3-1.3,6.4-1.7,9.9-1.7s6.9,0.4,9.9,1.7c3,1.3,5.6,3,7.7,5.2
				c2.1,2.1,3.9,4.7,5.2,7.7c1.3,3,2.1,6.4,2.1,9.9c0,3.4-0.9,6.9-2.1,9.9c-1.3,3-3,5.6-5.2,7.7c-2.1,2.1-4.7,3.9-7.7,5.2
				C350.2,220.8,346.7,221.2,343.3,221.2z M343.3,214.4c3.4,0,6.4-0.9,9-2.6c2.6-1.7,4.7-3.9,6.4-6.4c1.7-2.6,2.6-5.6,2.6-9
				s-0.9-6.4-2.6-9c-1.7-2.6-3.9-4.7-6.4-6.4s-5.6-2.6-9-2.6s-6.4,0.9-9,2.6c-2.6,1.7-4.7,3.9-6.4,6.4c-1.7,2.6-2.6,5.6-2.6,9
				s0.9,6.4,2.6,9c1.7,2.6,3.9,4.7,6.4,6.4C336.9,213.5,339.9,214.4,343.3,214.4z M334.3,207.5v-22.8c0,0,0,0,0,0h11.2
				c1.7,0,3.4,0.4,4.7,0.9c1.3,0.4,2.1,1.7,3,2.6c0,0,0,0,0,0c0.9,1.3,0.9,2.6,0.9,4.3s-0.4,3-0.9,3.9c0,0,0,0,0,0
				c-0.9,1.3-1.7,2.1-3,2.6c-1.3,0.4-3,0.9-4.7,0.9h-7.3c0,0,0,0,0,0V195c0,0,0,0,0,0h6c0.9,0,1.7-0.4,2.1-0.9
				c0.4-0.4,0.9-1.3,0.9-2.1c0-0.9-0.4-1.7-0.9-2.1c-0.4-0.4-1.3-0.9-2.1-0.9h-3c0,0,0,0,0,0v18c0,0,0,0,0,0h-6.9V207.5z
				 M349.3,197.2l4.7,10.3c0,0,0,0,0,0h-7.3c0,0,0,0,0,0l-4.3-10.3c0,0,0,0,0,0L349.3,197.2C349.3,197.2,349.3,197.2,349.3,197.2z"
				/>
		</g>
		<g>
			<path class="st1" d="M243.9,43.6C243.9,43.6,243.9,43.7,243.9,43.6C244,43.7,243.9,43.7,243.9,43.6z"/>
			<path class="st0" d="M133.7,104c-1.9,3.5-1.5,4.4-1.5,4.4l0.7,46.3c0,4.1,2.3,0.3,2.3,0.3l40-60.1c0.1-0.2,0.2-0.3,0.3-0.5
				C154.4,93.9,135.3,103.3,133.7,104z"/>
			<path class="st0" d="M244.1,43.6c0-25.5-19.3-42.2-42-43.5C200.4,0,199.4,0,199.4,0h-52.1c-4.3,0.2-5.8,3.4-5.8,3.4
				s-15.9,23.8-17.1,26.7c-1.1,3,1.4,3.6,1.4,3.6h69.6c0,0,0.2,0,0.5,0c0,0,38.4-1.4,47.9,10c0.1,0.1,0.1,0.1,0.1,0.1
				c0,0-0.1-0.1-0.1-0.1c-0.8-0.9-7.9-7.4-38.5-7.4c2.6,1.7,4.7,4.6,4.7,9.4c0,12.6-12,12.7-12,12.7h-32.3c-3.1-0.1-5,2.5-5,2.5
				L135,101.9c-0.5,0.8-0.9,1.5-1.2,2.1c16.2-12.4,46-12,46-12l-0.1,0.1c0.1,0,0.2,0,0.2,0h20.3C245.9,88.1,244.1,43.6,244.1,43.6z"
				/>
			<path class="st2" d="M243.9,43.6c-9.5-11.3-47.9-10-47.9-10c1.5,0,5.9,0.2,9.4,2.5C236,36.2,243.1,42.7,243.9,43.6z"/>
			<path class="st0" d="M133.6,104.1c0,0,0,0,0.1-0.1c0,0,0,0,0,0C133.7,104,133.7,104.1,133.6,104.1z"/>
			<path class="st2" d="M133.8,104C133.8,104,133.8,104,133.8,104c1.5-0.7,20.7-10.1,41.8-9.5c1.4-2.1,3.4-2.3,4.1-2.4l0.1-0.1
				C179.8,92,149.9,91.5,133.8,104z"/>
		</g>
	</g>
</g>
</svg>
