<?xml version="1.0" encoding="utf-8"?>
<!-- Generator: Adobe Illustrator 24.2.1, SVG Export Plug-In . SVG Version: 6.00 Build 0)  -->
<svg version="1.1" id="katman_1" xmlns="http://www.w3.org/2000/svg" xmlns:xlink="http://www.w3.org/1999/xlink" x="0px" y="0px"
	 viewBox="0 0 16 16" style="enable-background:new 0 0 16 16;" xml:space="preserve">
<style type="text/css">
	.st0{opacity:0.8;fill:#FFE424;enable-background:new    ;}
</style>
<path class="st0" d="M2.9,8.1L0,15.7c0,0,0,0,0,0.2c0,0,0,0,0,0.2c0,0,0,0,0.2,0c0,0,0,0,0.2,0l7.6-2.9h0.2l7.6,2.9c0,0,0,0,0.2,0
	c0,0,0,0,0.2,0c0,0,0,0,0-0.2c0,0,0,0,0-0.2l-2.9-7.6V7.9L16,0.3c0,0,0,0,0-0.2c0,0,0,0,0-0.2c0,0,0,0-0.2,0c0,0,0,0-0.2,0L8.1,2.9
	H7.9L0.3,0c0,0,0,0-0.2,0c0,0,0,0-0.2,0c0,0,0,0,0,0.2c0,0,0,0,0,0.2L2.9,8.1C2.9,7.9,2.9,7.9,2.9,8.1z"/>
</svg>
