<?xml version="1.0" encoding="utf-8"?>
<!-- Generator: Adobe Illustrator 24.2.1, SVG Export Plug-In . SVG Version: 6.00 Build 0)  -->
<svg version="1.1" id="katman_1" xmlns="http://www.w3.org/2000/svg" xmlns:xlink="http://www.w3.org/1999/xlink" x="0px" y="0px"
	 viewBox="0 0 810.4 555.1" style="enable-background:new 0 0 810.4 555.1;" xml:space="preserve">
<style type="text/css">
	.st0{fill:#EB459F;}
	.st1{fill:#8CD9FF;}
	.st2{fill:#3F99F2;}
	.st3{fill:#FFE75C;}
	.st4{fill:#FFFFFF;}
	.st5{fill:#FFAB18;}
	.st6{fill:#FF78B9;filter:url(#Adobe_OpacityMaskFilter);}
	.st7{mask:url(#mask0_1535:106841_1_);}
	.st8{fill:#FF78B9;}
	.st9{fill:none;stroke:#EB459F;stroke-width:0.82;stroke-linecap:round;stroke-miterlimit:10;}
	.st10{fill:#FF78B8;}
	.st11{fill:#FFFFFF;stroke:#5865F2;stroke-width:1.79;stroke-miterlimit:10;}
	.st12{fill:none;stroke:#5865F2;stroke-width:1.79;stroke-miterlimit:10;}
	.st13{fill:#E53794;}
	.st14{fill:#2F3136;}
	.st15{fill:#202225;}
	.st16{fill:#18191C;}
	.st17{fill:#404EED;}
	.st18{fill:#3B3D42;}
	.st19{fill:none;stroke:#18191C;stroke-width:3;stroke-miterlimit:10;}
	.st20{fill:#FFFFFF;fill-opacity:6.000000e-02;}
	.st21{opacity:0.2;fill:#FFFFFF;enable-background:new    ;}
	.st22{fill:#A9BCFF;}
	.st23{fill:#FFD635;}
	.st24{fill:#D01582;}
	.st25{fill:#91FFAD;}
	.st26{fill:#939AE5;}
	.st27{fill:#D11583;}
	.st28{fill:none;stroke:#FFC619;stroke-width:0.82;stroke-linecap:round;stroke-miterlimit:10;}
	.st29{fill:#FF8C19;}
	.st30{fill:none;stroke:#000000;stroke-width:0.82;stroke-linecap:round;stroke-linejoin:round;}
	.st31{opacity:0.8;fill:#EA34D0;enable-background:new    ;}
</style>
<g id="Features-1">
	<g>
		<g>
			<path class="st0" d="M210.5,39.7c8.8-6.7,10.8-19,4.4-27.5c-6.4-8.5-18.8-10-27.7-3.2c-8.8,6.7-10.8,19-4.4,27.5
				C189.3,45,201.7,46.4,210.5,39.7z"/>
			<path class="st1" d="M261.2,37.5c1.7-18.8-13.3-35.5-33.5-37.3c-20.2-1.8-37.9,12-39.6,30.8c-1.7,18.8,13.3,35.5,33.5,37.3
				S259.5,56.3,261.2,37.5z"/>
			<path class="st2" d="M227.6,0.2c7.6,0.7,14.9,3.6,20.8,8.4c-0.7,0.9-2.7,6.5,1.4,14l-8.7,4.1c0,0-14.7-27.6-41.3-18.1
				C207.6,2.3,217.6-0.8,227.6,0.2z"/>
			<path d="M268.3,3.7L264,36.1l11.5,8.8l-43.3-4.9L268.3,3.7z"/>
			<path class="st3" d="M236.3,30.3c2.2-5,5.8-9.3,10.4-12.4l21.6-14.2l-33,34.7l40.2,6.5L258,47.4c-5.2,0.8-10.5,0-15.2-2.3
				l-10.7-5.1L236.3,30.3z"/>
			<path d="M212.9,19.1c-1,0.3-2,0.5-2.7,0.7c-0.6,0.1-1.1,0.3-1.6,0.5c-0.5,0.1-0.9,0.4-1.2,0.7c-0.6,0.4-1.1,1.1-2,1.8l-0.1,0.2
				c-0.3,0.3-0.6,0.4-1,0.4c-0.4,0-0.8-0.2-1-0.4c-0.1-0.2-0.2-0.3-0.3-0.5c-0.5-1.3-0.5-2.7,0-4c0.6-1.5,1.7-2.8,3.2-3.4
				c1.4-0.6,3-0.8,4.5-0.3c1.3,0.4,2.4,1.2,3.2,2.2c0.2,0.3,0.3,0.7,0.3,1c-0.1,0.4-0.2,0.7-0.5,0.9C213.3,19,213.1,19.1,212.9,19.1
				L212.9,19.1z"/>
			<path class="st4" d="M209.2,33.2c1.3,5.7,2.1,12,4.8,11.4c2.7-0.6,6.3-7.9,5.1-13.6c-0.5-2.2-1.7-4.1-3.5-5.4
				c-1.8-1.3-4-1.9-6.3-1.7C206.6,24.4,207.9,27.4,209.2,33.2z"/>
			<path class="st5" d="M243.8,26.4c0.7-1.4,0.8-2.8,0.2-3.1c-0.6-0.3-1.7,0.6-2.4,2c-0.7,1.4-0.8,2.8-0.2,3.1
				C242,28.7,243.1,27.8,243.8,26.4z"/>
			<defs>
				<filter id="Adobe_OpacityMaskFilter" filterUnits="userSpaceOnUse" x="182.7" y="1.9" width="28.2" height="46">
					<feColorMatrix  type="matrix" values="1 0 0 0 0  0 1 0 0 0  0 0 1 0 0  0 0 0 1 0"/>
				</filter>
			</defs>
			<mask maskUnits="userSpaceOnUse" x="182.7" y="1.9" width="28.2" height="46" id="mask0_1535:106841_1_">
				<path class="st6" d="M210.9,2.3c0,0-25.5,18.9-19.7,45.5c-2.1-1-3.9-2.5-5.1-4.5c-1.2-2-1.9-4.2-1.9-6.6
					c-0.1-6.2,1.2-12.4,3.9-18.1c2.7-5.6,6.7-10.5,11.6-14.4c1.3-1,2.9-1.8,4.5-2.2c1.6-0.4,3.3-0.5,5-0.2L210.9,2.3z"/>
			</mask>
			<g class="st7">
				<path class="st8" d="M210.9,2.3c0,0-25.5,18.9-19.7,45.5c-2.1-1-3.9-2.5-5.1-4.5c-1.2-2-1.9-4.2-1.9-6.6
					c-0.1-6.2,1.2-12.4,3.9-18.1c2.7-5.6,6.7-10.5,11.6-14.4c1.3-1,2.9-1.8,4.5-2.2c1.6-0.4,3.3-0.5,5-0.2L210.9,2.3z"/>
				<path class="st9" d="M208,9.7c0,0-8.9-4.5-15.8,0"/>
				<path class="st9" d="M201.2,19.2l-12.3-4.5"/>
				<path class="st9" d="M196.1,30c-0.6-0.2-8.4-2.6-11.4-7.8"/>
				<path class="st9" d="M183.1,31.3c2.9,4.3,6.8,7.9,11.3,10.4"/>
			</g>
			<path d="M219.4,33.9c-0.7-1.8-1.7-2.9-2.8-2.9c-2,0-3.6,3.3-3.6,7.5c-0.1,2.1,0.4,4.2,1.5,6C216.6,43.5,219.2,38.7,219.4,33.9z"
				/>
			<path class="st10" d="M96.7,228.3c9.5,3.6,18.2,9.1,25.5,16.2c7.3,7.1,13.1,15.5,17.1,24.9c3.9,9.4,5.9,19.5,5.9,29.6
				c-0.1,10.2-2.2,20.2-6.3,29.6c-3.9,9.3-9.6,17.6-17,24.5c-7.3,6.9-16,12.1-25.5,15.4c-9.5,3.3-19.6,4.5-29.6,3.5
				c-10-0.9-19.7-4-28.4-8.9C22.2,353.8,9.9,339,4,321.3c-6-17.7-5.2-36.9,2.2-54c7.2-16.9,20.6-30.4,37.5-37.6
				C60.5,222.4,79.5,221.9,96.7,228.3z"/>
			<path class="st11" d="M65.2,252.6c3-7.4-2.7-16.8-12.7-20.8c-10-4.1-20.6-1.4-23.6,6.1c-3,7.4,2.7,16.8,12.7,20.8
				C51.6,262.7,62.2,260,65.2,252.6z"/>
			<path class="st11" d="M50.6,287.9c3.2-7.8-2.5-17.5-12.7-21.7c-10.2-4.1-21.1-1.2-24.2,6.7s2.5,17.5,12.7,21.7
				C36.6,298.8,47.5,295.8,50.6,287.9z"/>
			<path d="M43.1,278c0.4-2.2-1.7-4.4-4.6-4.9c-2.9-0.5-5.6,1-6,3.2c-0.4,2.2,1.7,4.4,4.6,4.9C40.1,281.6,42.7,280.2,43.1,278z"/>
			<path d="M59.7,248.6c0.9-1.8-0.5-4.4-3.1-5.7c-2.6-1.3-5.5-0.9-6.5,0.9c-0.9,1.8,0.5,4.4,3.1,5.7
				C55.9,250.8,58.8,250.4,59.7,248.6z"/>
			<path class="st12" d="M33.4,264.3l3.5-8.2"/>
			<path d="M56.8,275.3l6.5-12.6c0.2-0.3,0.4-0.6,0.7-0.8c0.3-0.2,0.6-0.4,1-0.5c0.4-0.1,0.7-0.1,1.1,0c0.4,0.1,0.7,0.2,1,0.5
				c5.3,4,15.4,13.7-7.7,17.2c-0.5,0.1-0.9,0-1.4-0.2c-0.4-0.2-0.8-0.5-1.1-0.9c-0.3-0.4-0.4-0.8-0.5-1.3
				C56.5,276.1,56.6,275.7,56.8,275.3z"/>
			<path class="st13" d="M67.5,270.5c-2.3,2.2-4,4.9-5,7.9c12.8-2.6,12.6-7.6,9.6-11.7C70.5,267.8,68.9,269,67.5,270.5z"/>
			<path class="st14" d="M769.7,50.5H100.5c-13.9,0-25.3,11.3-25.3,25.3v404c0,13.9,11.3,25.3,25.3,25.3h669.2
				c13.9,0,25.3-11.3,25.3-25.3v-404C794.9,61.8,783.6,50.5,769.7,50.5z"/>
			<path class="st15" d="M369.9,50.5H181.6V505h188.4V50.5z"/>
			<path class="st16" d="M181.8,50.5H99.5c-6.7,0-13.1,2.7-17.9,7.4c-4.7,4.7-7.4,11.2-7.4,17.9v404c0,6.7,2.7,13.1,7.4,17.9
				c4.7,4.7,11.2,7.4,17.9,7.4h82.4V50.5z"/>
			<path class="st4" d="M74.2,182.3h4.2c0.6,0,1.1,0.1,1.6,0.3c0.5,0.2,1,0.5,1.4,0.9c0.4,0.4,0.7,0.9,0.9,1.4
				c0.2,0.5,0.3,1.1,0.3,1.6v58.8c0,1.1-0.5,2.1-1.3,2.9s-1.8,1.2-2.9,1.2h-4.2V182.3z"/>
			<path class="st17" d="M145,182.3h-33.6c-9.3,0-16.8,7.5-16.8,16.8v33.6c0,9.3,7.5,16.8,16.8,16.8H145c9.3,0,16.8-7.5,16.8-16.8
				v-33.6C161.8,189.8,154.3,182.3,145,182.3z"/>
			<path class="st14" d="M128.2,163.7c18.6,0,33.6-15.1,33.6-33.6s-15.1-33.6-33.6-33.6c-18.6,0-33.6,15.1-33.6,33.6
				S109.6,163.7,128.2,163.7z"/>
			<path class="st18" d="M424.9,145.2c18.6,0,33.6-15.1,33.6-33.6S443.4,78,424.9,78s-33.6,15.1-33.6,33.6S406.3,145.2,424.9,145.2z
				"/>
			<path class="st14" d="M128.2,335.3c18.6,0,33.6-15,33.6-33.6c0-18.6-15.1-33.6-33.6-33.6c-18.6,0-33.6,15.1-33.6,33.6
				C94.6,320.2,109.6,335.3,128.2,335.3z"/>
			<path class="st14" d="M99.5,50.5c-1.6,0-3.2,0.2-4.8,0.5c0.3,8.7,4,17,10.3,23c6.3,6,14.7,9.4,23.5,9.3
				c8.7-0.1,17.1-3.5,23.3-9.6c6.2-6.1,9.8-14.4,10-23.2H99.5z"/>
			<path class="st19" d="M173.6,165.3h196.2"/>
			<path class="st20" d="M759.7,416.1H405.2c-7.5,0-13.6,6.1-13.6,13.6v38.8c0,7.5,6.1,13.6,13.6,13.6h354.5
				c7.5,0,13.6-6.1,13.6-13.6v-38.8C773.3,422.2,767.2,416.1,759.7,416.1z"/>
			<path class="st20" d="M668.6,78H490.3c-6.6,0-12,5.4-12,12c0,6.6,5.4,12,12,12h178.2c6.6,0,12-5.4,12-12
				C680.6,83.4,675.2,78,668.6,78z"/>
			<path class="st20" d="M668.6,235.5H490.3c-6.6,0-12,5.4-12,12c0,6.6,5.4,12,12,12h178.2c6.6,0,12-5.4,12-12
				C680.6,240.8,675.2,235.5,668.6,235.5z"/>
			<path class="st20" d="M332.6,94.4H259c-7.7,0-13.9,6.2-13.9,13.9v0c0,7.7,6.2,13.9,13.9,13.9h73.5c7.7,0,13.9-6.2,13.9-13.9v0
				C346.4,100.6,340.2,94.4,332.6,94.4z"/>
			<path class="st20" d="M333.1,198.6H220c-7.7,0-13.9,6.2-13.9,13.9v0c0,7.7,6.2,13.9,13.9,13.9h113.1c7.7,0,13.9-6.2,13.9-13.9v0
				C346.9,204.8,340.7,198.6,333.1,198.6z"/>
			<path class="st20" d="M333.1,254.2H220c-7.7,0-13.9,6.2-13.9,13.9v0c0,7.7,6.2,13.9,13.9,13.9h113.1c7.7,0,13.9-6.2,13.9-13.9v0
				C346.9,260.4,340.7,254.2,333.1,254.2z"/>
			<path class="st20" d="M333.1,309.8H220c-7.7,0-13.9,6.2-13.9,13.9v0c0,7.7,6.2,13.9,13.9,13.9h113.1c7.7,0,13.9-6.2,13.9-13.9v0
				C346.9,316,340.7,309.8,333.1,309.8z"/>
			<path class="st18" d="M424.9,302.7c18.6,0,33.6-15.1,33.6-33.6c0-18.6-15-33.6-33.6-33.6s-33.6,15.1-33.6,33.6
				C391.2,287.6,406.3,302.7,424.9,302.7z"/>
			<path class="st20" d="M219.7,122.2c7.7,0,14-6.3,14-14s-6.3-14-14-14c-7.7,0-14,6.3-14,14S211.9,122.2,219.7,122.2z"/>
			<path class="st21" d="M94.6,214.8l36.3-32.6h-12.4l-23.9,21.5V214.8z"/>
			<path class="st21" d="M145,182.3h-9.3l-41,36.8v13.6c0,0.8,0.1,1.6,0.2,2.4l57.1-51.3C149.9,182.8,147.5,182.3,145,182.3z"/>
			<path class="st17" d="M350.8,30.4L165.5,62.1l19.1,111.5l185.4-31.7L350.8,30.4z"/>
			<path class="st17" d="M694.9,281.9H497.4c-8.4,0-15.3,6.8-15.3,15.3v87.1c0,8.4,6.8,15.3,15.3,15.3h197.5
				c8.4,0,15.3-6.8,15.3-15.3v-87.1C710.2,288.8,703.3,281.9,694.9,281.9z"/>
			<path class="st22" d="M615.9,334.6l-33.1-14.8c-0.8-0.4-1.8-0.5-2.7-0.5c-0.9,0.1-1.8,0.4-2.6,0.9c-0.8,0.5-1.4,1.2-1.8,2
				c-0.4,0.8-0.7,1.7-0.7,2.6v29.5c0,0.9,0.2,1.8,0.7,2.6c0.4,0.8,1.1,1.5,1.8,2c0.8,0.5,1.7,0.8,2.6,0.9c0.9,0.1,1.8-0.1,2.7-0.5
				l33.1-14.7c1-0.4,1.8-1.1,2.4-2c0.6-0.9,0.9-1.9,0.9-3c0-1.1-0.3-2.1-0.9-3C617.7,335.7,616.8,335,615.9,334.6z"/>
			<path class="st21" d="M482.1,342.2l67.2-60.3h-12.4l-54.8,49.1V342.2z"/>
			<path class="st21" d="M482.1,362.6l89.9-80.7h-18l-71.9,64.5V362.6z"/>
			<path class="st21" d="M641.8,399.6l68.4-61.3V322l-86.4,77.5H641.8z"/>
			<path class="st21" d="M302.1,153.5l57.4-72.3l-1.9-11l-67.8,85.3L302.1,153.5z"/>
			<path class="st21" d="M324.5,149.7l38.4-48.4l-2.7-15.9l-53.5,67.4L324.5,149.7z"/>
			<path class="st21" d="M173.3,108.2l4.4,25.7l67.9-85.5l-28.7,4.9L173.3,108.2z"/>
			<path class="st23" d="M15.4,328.5c1.4,12.2,8.3,47.7,12.1,55.6c3.8,7.9,14,12.4,24.6,4.9c5.8-4.1,46.9-36.4,67.1-52.2
				c3.1-2.4,5.3-5.9,6-9.8c0.7-3.9,0-7.9-2.1-11.3c-1.2-1.9-2.8-3.6-4.6-4.9c-1.9-1.3-4-2.2-6.2-2.6c-2.2-0.4-4.5-0.4-6.7,0.2
				c-2.2,0.5-4.3,1.5-6.1,2.9l-50.8,39.3c-3.7-10.7-6.7-21.7-9-32.8c-1.7-8-8.7-14.3-18.1-8.4C13.6,314.4,14.6,321.7,15.4,328.5z"/>
			<path class="st24" d="M107.7,328.3c2.2,1.8,4.9,2.8,7.7,2.7c2.8-0.1,5.5-1.1,7.6-3l13.3-12.2l-18-15l-10.9,9.9
				c-1.2,1.1-2.2,2.5-2.9,4c-0.7,1.5-1,3.2-1,4.9c0,1.7,0.4,3.3,1.1,4.8C105.3,325.9,106.4,327.2,107.7,328.3z"/>
			<path class="st24" d="M117.5,303.8c0,0,20.5-12.1,22.6-12.2c1.4-0.1,2.8,0.2,4,1c1.2,0.8,2.1,1.9,2.5,3.2c2,5.5,2.9,8.7,3.8,11.3
				c1.1,3.2-0.9,7.2-5.5,10.8c-4.6,3.6-5.2,5.3-15.3,5.1l-10.7-1c-1.2-0.1-2.3-0.5-3.3-1.1c-1-0.6-1.8-1.5-2.4-2.5
				c-0.6-1-0.9-2.1-0.9-3.3c0-1.2,0.2-2.3,0.7-3.4C114.3,308.9,115.8,306.3,117.5,303.8z"/>
			<path class="st24" d="M124.7,314.8l-10.9-0.2c-0.2,0-0.4,0-0.6-0.1c-0.2-0.1-0.4-0.2-0.5-0.4c-0.1-0.2-0.3-0.3-0.3-0.5
				c-0.1-0.2-0.1-0.4-0.1-0.6l0.4-21.4c0-1.7,0.7-3.3,1.9-4.4c1.2-1.2,2.8-1.8,4.5-1.8c1.7,0,3.3,0.7,4.4,1.9
				c1.2,1.2,1.8,2.8,1.8,4.5L124.7,314.8L124.7,314.8z"/>
			<path d="M149,303c-0.5-1.5-1-3.2-1.8-5.5c-0.6,1-1.4,1.8-2.3,2.6l-6,5c-0.5,0.4-0.8,1-0.9,1.7c-0.1,0.6,0.1,1.3,0.5,1.8
				c0.2,0.3,0.5,0.5,0.7,0.6c0.3,0.2,0.6,0.2,0.9,0.3c0.3,0,0.6,0,1-0.1c0.3-0.1,0.6-0.3,0.8-0.5l6.1-5.1L149,303z"/>
			<path class="st3" d="M311.3,37.9l-0.9-1.7c-1-1.9-2.5-3.4-4.4-4.4c-1.9-0.9-4.1-1.2-6.1-0.9l-14.4,2.9c-2.3,0.5-4.4,1.6-6.1,3.1
				c-1.8,1.5-3.1,3.5-3.9,5.7c-1.2,3.6,0,5.3,2.6,5.9c1.6,0.4,3.3-0.4,4.8-3.2c0,0.4,0,3.2,0,3.4c-0.2,1.2,0,2.4,0.4,3.6
				c0.4,1.1,1.1,2.2,2,3c0.9,0.8,2,1.4,3.1,1.8c1.2,0.3,2.4,0.4,3.6,0.1l11.1-2.3c2.5-0.5,4.8-1.9,6.5-3.9c1.7-2,2.7-4.4,2.9-7
				C312.7,42,312.3,39.8,311.3,37.9z"/>
			<path class="st3" d="M168,59.7l0.2-1.9c0.2-2.1,1.2-4.1,2.7-5.7c1.5-1.5,3.5-2.5,5.6-2.9l14.5-2.2c2.3-0.3,4.7,0,6.8,0.8
				c2.2,0.8,4.1,2.2,5.6,4c2.3,3,1.7,5-0.4,6.3c-1.4,1-3.2,0.8-5.6-1.4c0,0.4,1,2.9,1.2,3.2c0.6,1.1,0.9,2.3,0.9,3.5
				c0,1.2-0.3,2.4-0.8,3.5c-0.5,1.1-1.3,2-2.3,2.7c-1,0.7-2.1,1.2-3.3,1.4l-11.3,1.7c-2.6,0.4-5.2-0.1-7.5-1.4
				c-2.3-1.3-4.1-3.2-5.2-5.6C168.2,64,167.8,61.8,168,59.7z"/>
			<path class="st17" d="M488.5,175.5c-2.2-11.6,0.3-23.6,7-33.3c6.7-9.7,16.9-16.4,28.5-18.6c11.6-2.2,23.6,0.3,33.3,7
				c9.7,6.7,16.4,16.9,18.6,28.5c0.8,4.2,1,8.5,0.5,12.8l-48,39.6c-9.7-0.8-18.8-4.8-26-11.3C495.2,193.7,490.3,185,488.5,175.5z"/>
			<path class="st4" d="M482.1,176.8c-2.5-13.3,0.4-27,8-38.2c7.6-11.2,19.4-18.9,32.7-21.4c13.3-2.5,27,0.4,38.2,8
				c11.2,7.6,18.9,19.4,21.4,32.7c0.5,2.8,0.8,5.6,0.9,8.4l-6.8,5.6c0.4-4.3,0.3-8.6-0.5-12.8c-1.5-8.1-5.3-15.7-10.9-21.8
				c-5.6-6.1-12.8-10.5-20.7-12.8c-8-2.3-16.4-2.2-24.4,0.1c-8,2.3-15.1,6.7-20.7,12.9c-5.6,6.1-9.3,13.7-10.8,21.8
				c-1.5,8.1-0.7,16.5,2.4,24.2c3,7.7,8.1,14.4,14.8,19.4c6.6,5,14.5,8,22.8,8.7l-6.8,5.6c-9.8-2.1-18.8-7-25.8-14.2
				C488.7,195.7,484,186.6,482.1,176.8z"/>
			<path class="st4" d="M572.3,167.1l11.1-0.9l-7.7,6.3l-45.1,37.2l-9.2,7.6l4.7-14.2c3.3-9.9,9.4-18.6,17.6-25
				C552,171.8,561.9,167.9,572.3,167.1z"/>
			<path class="st21" d="M524,123.6c-1.9,0.4-3.8,0.9-5.7,1.5L488,163c-0.4,4.1-0.2,8.3,0.5,12.4c0,0.7,0.3,1.4,0.5,2.1l43.7-54.8
				C529.8,122.7,526.9,123,524,123.6z"/>
			<path class="st21" d="M490.3,182c1.7,4.9,4.3,9.5,7.6,13.5l54.3-67.9c-4.6-2.3-9.6-3.9-14.8-4.5L490.3,182z"/>
			<path class="st3" d="M391.4,76.7c-1.4-0.9-2.5-2-3.4-3.4c-0.9-1.4-1.5-2.9-1.7-4.5l-0.8-5.6c0-0.1-0.1-0.3-0.2-0.3
				c-0.1-0.1-0.2-0.1-0.4-0.1c-0.1,0-0.3,0.1-0.4,0.1c-0.1,0.1-0.2,0.2-0.2,0.3l-0.9,5.6c-0.2,1.6-0.8,3.2-1.7,4.5
				c-0.9,1.4-2.1,2.5-3.4,3.4l-0.7,0.5c-0.1,0-0.2,0.1-0.2,0.2c-0.1,0.1-0.1,0.2-0.1,0.3c0,0.1,0,0.2,0.1,0.3
				c0.1,0.1,0.1,0.2,0.2,0.2l0.7,0.5c1.4,0.9,2.6,2,3.4,3.4c0.9,1.4,1.5,2.9,1.7,4.5l0.9,5.6c0,0.1,0.1,0.2,0.2,0.3
				c0.1,0.1,0.2,0.1,0.4,0.1c0.1,0,0.3,0,0.4-0.1c0.1-0.1,0.2-0.2,0.2-0.3l0.8-5.6c0.2-1.6,0.8-3.1,1.7-4.5c0.9-1.4,2-2.5,3.4-3.4
				l0.7-0.5c0.1-0.1,0.1-0.1,0.2-0.2c0-0.1,0.1-0.2,0.1-0.3c0-0.1,0-0.2-0.1-0.3c0-0.1-0.1-0.2-0.2-0.2L391.4,76.7z"/>
			<path class="st3" d="M744.9,302.5c-1.4-0.9-2.5-2.1-3.4-3.4c-0.9-1.4-1.5-2.9-1.7-4.5L739,289c0-0.1-0.1-0.3-0.2-0.4
				c-0.1-0.1-0.2-0.1-0.4-0.1c-0.1,0-0.3,0-0.4,0.1c-0.1,0.1-0.2,0.2-0.2,0.3l-0.9,5.6c-0.2,1.6-0.8,3.2-1.7,4.6
				c-0.9,1.4-2.1,2.5-3.4,3.4l-0.7,0.4c-0.1,0-0.2,0.1-0.2,0.2c-0.1,0.1-0.1,0.2-0.1,0.3c0,0.1,0,0.2,0.1,0.3
				c0.1,0.1,0.1,0.2,0.2,0.2l0.7,0.5c1.4,0.9,2.6,2.1,3.4,3.5c0.9,1.4,1.5,3,1.7,4.6l0.9,5.6c0,0.1,0.1,0.3,0.2,0.3
				c0.1,0.1,0.2,0.1,0.4,0.1c0.1,0,0.3,0,0.4-0.1c0.1-0.1,0.2-0.2,0.2-0.4l0.8-5.6c0.2-1.6,0.8-3.2,1.7-4.6c0.9-1.4,2.1-2.6,3.5-3.5
				l0.7-0.5c0.1-0.1,0.2-0.1,0.2-0.2c0.1-0.1,0.1-0.2,0.1-0.3c0-0.1,0-0.2-0.1-0.3c0-0.1-0.1-0.2-0.2-0.2L744.9,302.5z"/>
			<path class="st4" d="M429.5,325.8c-1.4-0.9-2.5-2.1-3.4-3.4c-0.9-1.4-1.5-2.9-1.7-4.5l-0.8-5.6c0-0.1-0.1-0.3-0.2-0.3
				s-0.2-0.1-0.4-0.1c-0.1,0-0.3,0-0.4,0.1c-0.1,0.1-0.2,0.2-0.2,0.3l-0.8,5.6c-0.2,1.6-0.8,3.2-1.7,4.5c-0.9,1.4-2.1,2.5-3.4,3.4
				l-0.7,0.5c-0.1,0.1-0.1,0.1-0.2,0.2s-0.1,0.2-0.1,0.3c0,0.1,0,0.2,0.1,0.3s0.1,0.2,0.2,0.2l0.7,0.5c1.4,0.9,2.6,2,3.4,3.4
				c0.9,1.4,1.5,2.9,1.7,4.5l0.8,5.6c0,0.1,0.1,0.3,0.2,0.4c0.1,0.1,0.2,0.1,0.4,0.2c0.1,0,0.3-0.1,0.4-0.2c0.1-0.1,0.2-0.2,0.2-0.4
				l0.8-5.6c0.2-1.6,0.8-3.2,1.7-4.5c0.9-1.4,2.1-2.5,3.4-3.4l0.7-0.5c0.1-0.1,0.1-0.1,0.2-0.2c0-0.1,0.1-0.2,0.1-0.3
				c0-0.1,0-0.2-0.1-0.3c0-0.1-0.1-0.2-0.2-0.2L429.5,325.8z"/>
			<path class="st25" d="M172.2,166.9c-1.4-0.9-2.5-2.1-3.4-3.4c-0.9-1.4-1.5-2.9-1.7-4.5l-0.9-5.6c0-0.1-0.1-0.3-0.2-0.3
				c-0.1-0.1-0.2-0.1-0.4-0.1c-0.1,0-0.3,0-0.4,0.1c-0.1,0.1-0.2,0.2-0.2,0.4l-0.9,5.6c-0.2,1.6-0.8,3.2-1.7,4.5s-2.1,2.5-3.4,3.4
				l-0.7,0.5c-0.1,0.1-0.1,0.1-0.2,0.2c0,0.1-0.1,0.2-0.1,0.3c0,0.1,0,0.2,0.1,0.3c0,0.1,0.1,0.2,0.2,0.2l0.7,0.4
				c1.4,0.9,2.5,2.1,3.4,3.4c0.9,1.4,1.5,2.9,1.7,4.5l0.8,5.6c0,0.1,0.1,0.3,0.2,0.4c0.1,0.1,0.2,0.1,0.4,0.1c0.1,0,0.3,0,0.4-0.1
				c0.1-0.1,0.2-0.2,0.2-0.3l0.9-5.6c0.2-1.6,0.8-3.2,1.7-4.5c0.9-1.4,2.1-2.5,3.4-3.4l0.7-0.4c0.1-0.1,0.1-0.1,0.2-0.2
				c0-0.1,0.1-0.2,0.1-0.3c0-0.1,0-0.2-0.1-0.3c0-0.1-0.1-0.2-0.2-0.2L172.2,166.9z"/>
			<path class="st2" d="M379.7,26.8c-1.9-1.2-3.4-2.8-4.7-4.6c-1.2-1.9-2-4-2.3-6.1l-1.1-7.5c0-0.2-0.1-0.3-0.3-0.4
				c-0.1-0.1-0.3-0.2-0.5-0.2c-0.2,0-0.4,0.1-0.5,0.2c-0.1,0.1-0.2,0.3-0.3,0.4L369,16c-0.3,2.2-1.1,4.3-2.3,6.1
				c-1.2,1.9-2.8,3.4-4.6,4.6l-1,0.6c-0.1,0.1-0.2,0.2-0.3,0.3c-0.1,0.1-0.1,0.2-0.1,0.4c0,0.1,0,0.3,0.1,0.4
				c0.1,0.1,0.2,0.2,0.3,0.3l1,0.6c1.9,1.2,3.4,2.8,4.6,4.6c1.2,1.9,2,4,2.3,6.1l1.1,7.5c0,0.2,0.1,0.3,0.3,0.5
				c0.1,0.1,0.3,0.2,0.5,0.2c0.2,0,0.4-0.1,0.5-0.2c0.1-0.1,0.2-0.3,0.3-0.5l1.1-7.5c0.3-2.2,1.1-4.3,2.3-6.1
				c1.2-1.9,2.8-3.4,4.7-4.6l1-0.6c0.1-0.1,0.2-0.2,0.3-0.3c0.1-0.1,0.1-0.2,0.1-0.4c0-0.1,0-0.2-0.1-0.4c-0.1-0.1-0.1-0.2-0.3-0.3
				L379.7,26.8z"/>
			<path class="st2" d="M730.9,264.1c-1.9-1.2-3.4-2.8-4.7-4.6c-1.2-1.9-2-4-2.3-6.2l-1-7.5c0-0.2-0.1-0.3-0.3-0.5
				c-0.1-0.1-0.3-0.2-0.5-0.2c-0.2,0-0.4,0.1-0.5,0.2c-0.1,0.1-0.2,0.3-0.3,0.5l-1.1,7.5c-0.3,2.2-1.1,4.3-2.3,6.1
				c-1.2,1.9-2.8,3.4-4.6,4.7l-1,0.6c-0.1,0.1-0.2,0.2-0.3,0.3c-0.1,0.1-0.1,0.2-0.1,0.4c0,0.1,0,0.3,0.1,0.4
				c0.1,0.1,0.1,0.2,0.3,0.3l1,0.6c1.9,1.2,3.4,2.8,4.7,4.6c1.2,1.9,2,3.9,2.3,6.1l1.1,7.5c0,0.2,0.1,0.3,0.3,0.5
				c0.1,0.1,0.3,0.2,0.5,0.2c0.2,0,0.4-0.1,0.5-0.2c0.1-0.1,0.2-0.3,0.3-0.5l1.1-7.5c0.3-2.2,1.1-4.3,2.3-6.1
				c1.2-1.9,2.8-3.4,4.7-4.6l1-0.6c0.1-0.1,0.2-0.2,0.2-0.3c0.1-0.1,0.1-0.2,0.1-0.4c0-0.1,0-0.2-0.1-0.4c-0.1-0.1-0.1-0.2-0.2-0.3
				L730.9,264.1z"/>
			<path class="st10" d="M457.4,357.4c-1.9-1.2-3.4-2.8-4.7-4.6c-1.2-1.9-2-4-2.3-6.2l-1.1-7.5c0-0.2-0.1-0.3-0.3-0.5
				c-0.1-0.1-0.3-0.2-0.5-0.2c-0.2,0-0.4,0.1-0.5,0.2c-0.1,0.1-0.2,0.3-0.3,0.5l-1.1,7.5c-0.3,2.2-1.1,4.3-2.3,6.1
				c-1.2,1.9-2.8,3.4-4.6,4.7l-1,0.6c-0.1,0.1-0.2,0.2-0.3,0.3c-0.1,0.1-0.1,0.2-0.1,0.4c0,0.1,0,0.3,0.1,0.4
				c0.1,0.1,0.1,0.2,0.3,0.3l1,0.6c1.9,1.2,3.4,2.8,4.6,4.6s2,3.9,2.3,6.1l1.1,7.5c0,0.2,0.1,0.3,0.3,0.5c0.1,0.1,0.3,0.2,0.5,0.2
				c0.2,0,0.4-0.1,0.5-0.2c0.1-0.1,0.2-0.3,0.3-0.5l1.1-7.5c0.3-2.2,1.1-4.3,2.3-6.1c1.2-1.9,2.8-3.4,4.7-4.6l1-0.6
				c0.1-0.1,0.2-0.2,0.2-0.3c0.1-0.1,0.1-0.2,0.1-0.4c0-0.1,0-0.2-0.1-0.4c-0.1-0.1-0.1-0.2-0.2-0.3L457.4,357.4z"/>
			<path class="st23" d="M808.1,378.5c-3.3-1.9-6.9-3.3-10.6-4.1c-0.8-0.2-1.7-0.2-2.5,0.1c-0.8,0.2-1.5,0.7-2.1,1.3
				c-3.4,3.9-7.6,7-12.4,8.9l1.9-6.3c0.3-0.7,0.4-1.5,0.2-2.2c-0.2-0.7-0.8-1.3-1.5-1.7c-0.7-0.3-1.5-0.4-2.2-0.2
				c-0.7,0.2-1.3,0.8-1.7,1.5l-5.8,8.9l-3.2,4.5c0,0-45.8,51-50.5,58.8l7.6,17.8l54-64.5l1.8-1.8c3.1,1,6.4,1.2,9.7,0.7
				c3.2-0.5,6.3-1.9,8.9-3.8c3.9-3.2,7.2-6.9,10-11.1c0.3-0.5,0.5-1.1,0.6-1.8c0.1-0.6,0.1-1.3-0.1-1.9c-0.2-0.6-0.4-1.2-0.8-1.7
				C809.1,379.2,808.6,378.8,808.1,378.5z"/>
			<path class="st23" d="M656.6,445.1l-15.2,12.1c-0.9,0.7-1.9,1.2-3.1,1.3c-1.1,0.1-2.3-0.1-3.3-0.6c-8.2-4-31.6-15.1-31.6-15.1
				l-5.1-2.1l-9.7-4.4c-0.7-0.4-1.4-0.4-2.2-0.2c-0.7,0.2-1.3,0.7-1.7,1.3c-0.4,0.6-0.5,1.4-0.3,2.1c0.2,0.7,0.6,1.4,1.2,1.8
				l2.5,1.9c-1,0.5-2.1,0.8-3.2,0.8c-1.1,0-2.2-0.3-3.2-0.8c-3-2.1-6.2-3.9-9.5-5.4c-0.4-0.1-0.8-0.2-1.2-0.1
				c-0.4,0.1-0.8,0.3-1,0.6c-2.3,2.2-4,4.9-5.1,7.8c-0.4,1.2-2.9,9.2-1,10.5s5.7,3.2,18.3,4.8c1.8,0.2,3.6,0.2,5.4,0
				c2.8-0.3,5.4-1.2,7.6-2.8c0.7-0.5,1.6-0.8,2.5-0.8c0.9,0,1.8,0.4,2.4,1c8.9,7.7,24.7,20.3,34.7,20.8
				c13.4,0.8,36.1-20.5,53.7-40.1C672.8,431.1,669.2,435.1,656.6,445.1z"/>
			<path class="st26" d="M639.5,322.5c-1.4-0.9-2.5-2.1-3.4-3.4s-1.4-2.9-1.7-4.5l-0.9-5.6c0-0.1-0.1-0.3-0.2-0.3
				c-0.1-0.1-0.2-0.1-0.4-0.1c-0.1,0-0.3,0-0.4,0.1c-0.1,0.1-0.2,0.2-0.2,0.4l-0.8,5.6c-0.2,1.6-0.8,3.2-1.7,4.5
				c-0.9,1.4-2.1,2.5-3.4,3.4l-0.7,0.4c-0.1,0.1-0.1,0.1-0.2,0.2c0,0.1-0.1,0.2-0.1,0.3c0,0.1,0,0.2,0.1,0.3c0,0.1,0.1,0.2,0.2,0.2
				l0.7,0.5c1.4,0.9,2.5,2.1,3.4,3.4c0.9,1.4,1.5,2.9,1.7,4.5l0.8,5.6c0,0.1,0.1,0.3,0.2,0.4c0.1,0.1,0.2,0.1,0.4,0.1
				c0.1,0,0.3,0,0.4-0.1c0.1-0.1,0.2-0.2,0.2-0.3l0.9-5.6c0.2-1.6,0.8-3.2,1.7-4.5c0.9-1.4,2.1-2.5,3.4-3.4l0.7-0.5
				c0.1-0.1,0.1-0.1,0.2-0.2c0-0.1,0.1-0.2,0.1-0.3c0-0.1,0-0.2-0.1-0.3c0-0.1-0.1-0.2-0.2-0.2L639.5,322.5z"/>
			<path class="st4" d="M679.8,436.9l37.3-1.3c16.8,22.3,9.8,32.6,3.5,46.6h-55.3c0,0-1.9-6.8-3.4-12.6
				C658.9,457.7,661.6,448.5,679.8,436.9z"/>
			<path class="st27" d="M690.2,399.4l53-11.6c-16.4,37-29.9,44-39.6,42.6C694,429.1,688.9,415.8,690.2,399.4z"/>
			<path class="st27" d="M690.2,399.4l-30.2-30.9c-0.9,40.6,6.9,49.3,13.9,51.7C681,422.7,686.9,415.3,690.2,399.4z"/>
			<path class="st3" d="M657.6,398.2c6.6-17,48-29.2,56.6-26.1c8.6,3.2,31.3,31.3,27.5,49.5c-3.8,18.1-25.3,26.8-50.1,20.6
				S650.6,416.5,657.6,398.2z"/>
			<path class="st3" d="M712,386c14.2-11.5,27.6-16.9,45.4-22.3c13.5-4.1,13.3-16.6-2.2-17.2c-15.5-0.6-33.7,12-44.2,25.3
				c-9.5-25.7-10.4-34.5-23.1-34.2s-19.5,12.6-21.7,18.4c-1.7,4.6-1.7,8.4,5.2,10.1c6.9,1.7,12.1-2.8,15.8-8.8
				c3.6,9.4,8,18.4,13.2,27.1C703.9,389.8,705.6,391.4,712,386z"/>
			<path class="st28" d="M701.1,371.2l-8.1-19.7"/>
			<path class="st29" d="M690.2,399.4c-1.3,16.4,3.8,29.7,13.4,31.1c8.5,1.2,20-4.1,33.8-30.6c-1.6-3.3-3.5-6.4-5.5-9.5L690.2,399.4
				z"/>
			<path class="st29" d="M660.8,393c2.1,20,7.9,25.4,13.2,27.2c7,2.4,12.9-4.9,16.2-20.8L674,382.8C669,385.4,664.6,388.8,660.8,393
				z"/>
			<path class="st30" d="M674.7,399.1l-2.3-4.5"/>
			<path class="st30" d="M673.8,401.5l-4.4-4.1"/>
			<path class="st30" d="M709.5,408.4l4.2-4.7"/>
			<path class="st30" d="M709.1,411l9.1-3.3"/>
			<path class="st4" d="M708.9,419.1c3.8-2,5-7.2,2.6-11.8c-2.3-4.5-7.3-6.6-11.1-4.7c-3.8,2-5,7.2-2.6,11.8
				C700.1,418.9,705,421,708.9,419.1z"/>
			<path class="st4" d="M671.8,402.4c-0.5-4.7,2-8.5,5.6-8.7c2.1,0.2,4.1,1.1,5.6,2.6s2.5,3.5,2.7,5.6c0.9,5-1.6,9.5-5.7,9.5
				C676.1,411.4,672.3,407.4,671.8,402.4z"/>
			<path d="M680.3,401.9c0.4-1.8-0.4-3.5-1.8-3.9c-1.4-0.3-2.9,0.9-3.3,2.7c-0.4,1.8,0.4,3.6,1.8,3.9
				C678.4,404.9,679.9,403.7,680.3,401.9z"/>
			<path d="M705.5,408c0.4-1.8-0.4-3.6-1.8-3.9c-1.4-0.3-2.9,0.9-3.3,2.7c-0.4,1.8,0.4,3.5,1.8,3.9
				C703.7,411.1,705.1,409.8,705.5,408z"/>
			<path d="M679.8,425.8c3.2,10.8,8.9,5.5,11.7,1.9c0.2-0.2,0.3-0.5,0.3-0.8c0-0.3,0-0.6-0.1-0.9c-0.1-0.3-0.3-0.5-0.5-0.7
				c-0.2-0.2-0.5-0.3-0.8-0.4l-8.6-1.4c-0.3-0.1-0.6,0-0.9,0.1c-0.3,0.1-0.5,0.3-0.7,0.5c-0.2,0.2-0.3,0.5-0.4,0.8
				C679.7,425.3,679.7,425.6,679.8,425.8z"/>
			<path d="M693.6,348.1c0.1-0.1,0.3-0.2,0.4-0.3c0.2-0.1,0.3-0.1,0.5-0.1c0.2,0,0.4,0,0.5,0.1c0.2,0.1,0.3,0.1,0.5,0.3
				c0.1,0.1,0.2,0.3,0.3,0.4c0.1,0.2,0.1,0.3,0.1,0.5c0,0.2,0,0.4-0.1,0.5s-0.1,0.3-0.3,0.5c-2.6,3.3-5,6.7-7.1,10.3l-1.2-3.2
				C689.3,354,691.3,351,693.6,348.1z"/>
			<path class="st28" d="M755.9,357.5c-16.2,1.9-31.3,9.1-43,20.6"/>
			<path class="st29" d="M691,414.7c-1.7-9.1-1.2-10.4-5.3-1.7l-0.8-0.2l3.3-13.5h1.9l3.8,2l-2,13.4L691,414.7z"/>
			<path class="st10" d="M685,427.4c-1.5,0-2.9,0.4-4.2,1.2c2.8,5.9,6.7,3.6,9.3,0.8c-0.7-0.7-1.5-1.2-2.3-1.5
				C686.9,427.5,685.9,427.3,685,427.4z"/>
		</g>
		<path class="st31" d="M769.5,541.9l2.9,12.8c0,0,0,0,0.1,0.2c0,0,0,0,0.1,0.2c0,0,0,0,0.2-0.1c0,0,0,0,0.2-0.1l7.6-10.7l0.2-0.1
			l12.8-2.9c0,0,0,0,0.2-0.1c0,0,0,0,0.2-0.1c0,0,0,0-0.1-0.2c0,0,0,0-0.1-0.2l-10.7-7.6l-0.1-0.2l-2.9-12.8c0,0,0,0-0.1-0.2
			c0,0,0,0-0.1-0.2c0,0,0,0-0.2,0.1c0,0,0,0-0.2,0.1l-7.6,10.7l-0.2,0.1l-12.8,2.9c0,0,0,0-0.2,0.1c0,0,0,0-0.2,0.1c0,0,0,0,0.1,0.2
			c0,0,0,0,0.1,0.2L769.5,541.9C769.3,541.7,769.3,541.7,769.5,541.9z"/>
	</g>
</g>
</svg>
