<?xml version="1.0" encoding="utf-8"?>
<!-- Generator: Adobe Illustrator 24.2.1, SVG Export Plug-In . SVG Version: 6.00 Build 0)  -->
<svg version="1.1" id="katman_1" xmlns="http://www.w3.org/2000/svg" xmlns:xlink="http://www.w3.org/1999/xlink" x="0px" y="0px"
	 viewBox="0 0 841.2 416.9" style="enable-background:new 0 0 841.2 416.9;" xml:space="preserve">
<style type="text/css">
	.st0{fill:#212B9D;}
	.st1{fill:#404EED;}
	.st2{fill-rule:evenodd;clip-rule:evenodd;fill:#FFFFFF;}
	.st3{fill:#FFFFFF;}
	.st4{fill:#EA4E7B;}
	.st5{fill:#75E84F;}
	.st6{fill:#E5E551;}
</style>
<g id="Features-3">
	<g>
		<g>
			<path class="st0" d="M200.4,288.3H13c-7.2,0-13-5.9-13-13v-59.4c0-7.1,5.8-13,13-13h187.4c7.1,0,13,5.9,13,13v59.4
				C213.4,282.4,207.6,288.3,200.4,288.3z"/>
			<path class="st1" d="M200.4,278.2H13c-7.2,0-13-5.9-13-13v-59.4c0-7.2,5.8-13,13-13h187.4c7.1,0,13,5.8,13,13v59.4
				C213.4,272.4,207.6,278.2,200.4,278.2z"/>
		</g>
		<path class="st2" d="M17.8,203.5c-3.9,0-7.1,3.2-7.1,7.1v49.8c0,3.9,3.2,7.1,7.1,7.1h49.8c3.9,0,7.1-3.2,7.1-7.1v-49.8
			c0-3.9-3.2-7.1-7.1-7.1H17.8z M60.1,222.7l-5-5L24.9,248l5,5L60.1,222.7z"/>
		<g>
			<path class="st3" d="M103.3,223.2l-6.6,24.5h-4.7l6.6-24.5H103.3z"/>
			<path class="st3" d="M104.9,250.4v-21.1h5.5v2.7h0.1c0.2-0.5,0.5-1,0.9-1.4s0.9-0.8,1.4-1c0.6-0.3,1.2-0.4,2-0.4
				c1,0,2,0.3,2.9,0.8c0.9,0.5,1.7,1.4,2.2,2.5s0.9,2.7,0.9,4.5c0,1.8-0.3,3.2-0.8,4.4c-0.5,1.2-1.3,2-2.2,2.6
				c-0.9,0.6-1.9,0.9-3,0.9c-0.7,0-1.4-0.1-1.9-0.4c-0.6-0.2-1-0.6-1.4-1s-0.7-0.9-0.9-1.4h-0.1v8.3H104.9z M110.3,237
				c0,0.7,0.1,1.4,0.3,1.9s0.5,1,0.8,1.3c0.4,0.3,0.8,0.4,1.3,0.4c0.5,0,0.9-0.1,1.3-0.4c0.4-0.3,0.6-0.7,0.8-1.2
				c0.2-0.5,0.3-1.2,0.3-2s-0.1-1.4-0.3-2c-0.2-0.5-0.5-1-0.8-1.2c-0.4-0.3-0.8-0.4-1.3-0.4c-0.5,0-0.9,0.1-1.3,0.4
				c-0.4,0.3-0.6,0.7-0.8,1.2S110.3,236.2,110.3,237z"/>
			<path class="st3" d="M123.1,244.6v-15.3h5.3v2.9h0.2c0.3-1.1,0.7-1.9,1.3-2.4c0.6-0.5,1.3-0.7,2.1-0.7c0.2,0,0.5,0,0.7,0.1
				c0.2,0,0.5,0.1,0.7,0.2v4.7c-0.3-0.1-0.6-0.2-1-0.2c-0.4,0-0.7-0.1-1-0.1c-0.5,0-1,0.1-1.5,0.4c-0.4,0.2-0.8,0.6-1,1
				c-0.2,0.4-0.4,0.9-0.4,1.5v8H123.1z"/>
			<path class="st3" d="M141.7,244.9c-1.7,0-3.1-0.3-4.3-1c-1.2-0.7-2.1-1.6-2.7-2.8c-0.6-1.2-0.9-2.6-0.9-4.1s0.3-2.9,0.9-4.1
				c0.6-1.2,1.5-2.1,2.7-2.8c1.2-0.7,2.6-1,4.3-1s3.1,0.3,4.3,1c1.2,0.7,2.1,1.6,2.7,2.8c0.6,1.2,0.9,2.6,0.9,4.1s-0.3,2.9-0.9,4.1
				c-0.6,1.2-1.5,2.1-2.7,2.8C144.8,244.6,143.4,244.9,141.7,244.9z M141.8,240.8c0.5,0,0.9-0.2,1.2-0.5c0.3-0.3,0.6-0.8,0.8-1.3
				c0.2-0.6,0.3-1.3,0.3-2.1c0-0.8-0.1-1.5-0.3-2.1c-0.2-0.6-0.4-1-0.8-1.3c-0.3-0.3-0.7-0.5-1.2-0.5c-0.5,0-0.9,0.2-1.3,0.5
				s-0.6,0.8-0.8,1.3s-0.3,1.3-0.3,2.1c0,0.8,0.1,1.5,0.3,2.1c0.2,0.6,0.5,1,0.8,1.3S141.3,240.8,141.8,240.8z"/>
			<path class="st3" d="M161.1,229.3v4h-10.3v-4H161.1z M152.8,244.6v-15.8c0-1.3,0.2-2.3,0.7-3.1c0.5-0.8,1.1-1.5,1.9-1.9
				c0.8-0.4,1.8-0.6,2.9-0.6c0.7,0,1.4,0.1,2,0.2c0.7,0.1,1.2,0.2,1.5,0.3l-0.8,4c-0.2-0.1-0.4-0.1-0.7-0.1c-0.3,0-0.5-0.1-0.7-0.1
				c-0.5,0-0.9,0.1-1,0.3c-0.2,0.2-0.3,0.5-0.3,0.9v16H152.8z"/>
			<path class="st3" d="M163.2,244.6v-15.3h5.5v15.3H163.2z M166,227.7c-0.8,0-1.4-0.2-1.9-0.7s-0.8-1.1-0.8-1.8s0.3-1.3,0.8-1.8
				c0.5-0.5,1.2-0.7,1.9-0.7c0.8,0,1.4,0.2,1.9,0.7c0.5,0.5,0.8,1.1,0.8,1.8s-0.3,1.3-0.8,1.8C167.4,227.5,166.7,227.7,166,227.7z"
				/>
			<path class="st3" d="M177,224.2v20.4h-5.5v-20.4H177z"/>
			<path class="st3" d="M187.2,244.9c-1.6,0-3-0.3-4.2-0.9c-1.2-0.6-2.1-1.5-2.7-2.7c-0.6-1.2-1-2.6-1-4.2c0-1.6,0.3-3,1-4.2
				s1.5-2.1,2.7-2.8c1.2-0.7,2.5-1,4.1-1c1.2,0,2.2,0.2,3.1,0.5c0.9,0.4,1.7,0.9,2.4,1.6s1.2,1.5,1.5,2.5s0.5,2.1,0.5,3.3v1.3H181
				v-3h8.6c0-0.4-0.1-0.8-0.3-1.2c-0.2-0.3-0.5-0.6-0.9-0.8s-0.8-0.3-1.2-0.3c-0.4,0-0.9,0.1-1.2,0.3c-0.4,0.2-0.7,0.5-0.9,0.8
				c-0.2,0.3-0.3,0.7-0.4,1.2v3.3c0,0.5,0.1,0.9,0.3,1.3s0.5,0.7,0.9,0.9s0.9,0.3,1.4,0.3c0.4,0,0.7-0.1,1-0.2
				c0.3-0.1,0.6-0.3,0.8-0.5c0.2-0.2,0.4-0.4,0.5-0.7h5c-0.2,1.1-0.6,2-1.2,2.8c-0.6,0.8-1.5,1.4-2.6,1.8
				C189.8,244.7,188.6,244.9,187.2,244.9z"/>
		</g>
		<g>
			<path class="st0" d="M565.1,416.9H257.2c-7.1,0-13-5.8-13-13V289.1c0-7.2,5.8-13,13-13h307.9c7.1,0,13,5.8,13,13v114.8
				C578.1,411,572.3,416.9,565.1,416.9z"/>
			<path class="st1" d="M565.1,400.3H257.2c-7.1,0-13-5.9-13-13V272.5c0-7.1,5.8-13,13-13h307.9c7.1,0,13,5.9,13,13v114.8
				C578.1,394.4,572.3,400.3,565.1,400.3z"/>
		</g>
		<path class="st2" d="M279.4,277.1c-9.6,0-17.5,7.9-17.5,17.5v70.5c0,9.6,7.9,17.5,17.5,17.5h70.5c9.6,0,17.5-7.9,17.5-17.5v-70.5
			c0-9.6-7.9-17.5-17.5-17.5H279.4z M339.3,304.6L339.3,304.6c-2.3-2.3-5.9-2.3-8.2,0l-41.7,41.7c-2.3,2.3-2.3,5.9,0,8.2l0,0
			c2.3,2.3,5.9,2.3,8.2,0l41.7-41.7C341.5,310.6,341.5,306.9,339.3,304.6z"/>
		<g>
			<path class="st3" d="M414.6,309.6L403.7,350H396l10.9-40.3H414.6z"/>
			<path class="st3" d="M440.2,327.9h-8.4c0-0.5-0.2-1-0.5-1.3c-0.3-0.4-0.7-0.7-1.2-0.9s-1-0.3-1.7-0.3c-0.8,0-1.4,0.1-2,0.4
				c-0.6,0.3-0.8,0.7-0.8,1.2c0,0.4,0.2,0.7,0.5,1c0.3,0.3,1,0.6,1.9,0.7l5.1,0.9c2.6,0.5,4.5,1.3,5.8,2.4c1.3,1.1,1.9,2.6,1.9,4.5
				c0,1.8-0.5,3.4-1.6,4.7c-1.1,1.3-2.5,2.3-4.3,3.1c-1.8,0.7-3.9,1.1-6.2,1.1c-3.9,0-6.9-0.8-9.1-2.4s-3.4-3.7-3.6-6.3h9
				c0.1,0.8,0.5,1.4,1.2,1.9c0.7,0.4,1.5,0.6,2.6,0.6c0.8,0,1.5-0.1,2.1-0.4c0.5-0.3,0.8-0.7,0.8-1.2c0-0.5-0.2-0.9-0.7-1.2
				c-0.5-0.3-1.2-0.5-2.2-0.7l-4.5-0.8c-2.6-0.4-4.5-1.3-5.8-2.6c-1.3-1.3-1.9-2.9-1.9-4.9c0-1.8,0.5-3.2,1.4-4.5s2.3-2.2,4-2.8
				s3.8-1,6.2-1c3.7,0,6.5,0.8,8.6,2.3C439,323.1,440.1,325.2,440.2,327.9z"/>
			<path class="st3" d="M459.4,319.6v6.6h-16.6v-6.6H459.4z M446,313.6h9.1v23.2c0,0.4,0.1,0.6,0.2,0.9c0.1,0.2,0.3,0.4,0.6,0.5
				s0.6,0.2,1,0.2c0.3,0,0.6,0,1-0.1c0.4-0.1,0.6-0.1,0.8-0.2l1.3,6.4c-0.4,0.1-1,0.3-1.7,0.4c-0.8,0.2-1.6,0.3-2.7,0.3
				c-2.1,0.1-3.8-0.1-5.2-0.7c-1.4-0.5-2.5-1.4-3.2-2.6c-0.7-1.2-1.1-2.6-1-4.4V313.6z"/>
			<path class="st3" d="M470.2,345.3c-1.6,0-3-0.3-4.3-0.8c-1.2-0.5-2.2-1.3-2.9-2.4c-0.7-1.1-1.1-2.5-1.1-4.1
				c0-1.4,0.2-2.6,0.7-3.5c0.5-1,1.1-1.8,2-2.4c0.8-0.6,1.8-1.1,3-1.4s2.3-0.5,3.6-0.6c1.4-0.1,2.6-0.2,3.4-0.4
				c0.9-0.2,1.5-0.4,1.9-0.7c0.4-0.3,0.6-0.7,0.6-1.2v-0.1c0-0.7-0.3-1.2-0.8-1.5c-0.5-0.4-1.2-0.5-1.9-0.5c-0.9,0-1.6,0.2-2.1,0.6
				c-0.5,0.4-0.9,1-1,1.7h-8.4c0.1-1.5,0.6-3,1.5-4.3c0.9-1.3,2.1-2.3,3.8-3.1s3.8-1.2,6.3-1.2c1.8,0,3.4,0.2,4.9,0.6s2.7,1,3.7,1.8
				s1.8,1.6,2.3,2.6c0.5,1,0.8,2.1,0.8,3.3v17.3h-8.5v-3.6h-0.2c-0.5,0.9-1.1,1.7-1.8,2.3c-0.7,0.6-1.5,1-2.5,1.3
				C472.3,345.2,471.2,345.3,470.2,345.3z M473.1,339.6c0.7,0,1.3-0.1,1.9-0.4s1.1-0.7,1.5-1.2s0.6-1.2,0.6-2v-2.1
				c-0.2,0.1-0.5,0.2-0.8,0.3c-0.3,0.1-0.6,0.2-0.9,0.2c-0.3,0.1-0.6,0.1-1,0.2c-0.3,0.1-0.7,0.1-1,0.2c-0.7,0.1-1.3,0.3-1.7,0.5
				c-0.4,0.2-0.8,0.5-1,0.9s-0.3,0.8-0.3,1.2c0,0.7,0.2,1.2,0.7,1.6C471.7,339.4,472.3,339.6,473.1,339.6z"/>
			<path class="st3" d="M505.5,319.6v6.6h-16.6v-6.6H505.5z M492.1,313.6h9.1v23.2c0,0.4,0.1,0.6,0.2,0.9c0.1,0.2,0.3,0.4,0.6,0.5
				s0.6,0.2,1,0.2c0.3,0,0.6,0,1-0.1c0.4-0.1,0.6-0.1,0.8-0.2l1.3,6.4c-0.4,0.1-1,0.3-1.7,0.4c-0.8,0.2-1.6,0.3-2.7,0.3
				c-2.1,0.1-3.8-0.1-5.2-0.7c-1.4-0.5-2.5-1.4-3.2-2.6c-0.7-1.2-1.1-2.6-1-4.4V313.6z"/>
			<path class="st3" d="M532.1,327.9h-8.4c0-0.5-0.2-1-0.5-1.3c-0.3-0.4-0.7-0.7-1.2-0.9s-1-0.3-1.7-0.3c-0.8,0-1.4,0.1-2,0.4
				c-0.6,0.3-0.8,0.7-0.8,1.2c0,0.4,0.2,0.7,0.5,1c0.3,0.3,1,0.6,1.9,0.7l5.1,0.9c2.6,0.5,4.5,1.3,5.8,2.4c1.3,1.1,1.9,2.6,1.9,4.5
				c0,1.8-0.5,3.4-1.6,4.7c-1.1,1.3-2.5,2.3-4.3,3.1c-1.8,0.7-3.9,1.1-6.2,1.1c-3.9,0-6.9-0.8-9.1-2.4c-2.2-1.6-3.4-3.7-3.6-6.3h9
				c0.1,0.8,0.5,1.4,1.2,1.9c0.7,0.4,1.5,0.6,2.6,0.6c0.8,0,1.5-0.1,2.1-0.4c0.5-0.3,0.8-0.7,0.8-1.2c0-0.5-0.2-0.9-0.7-1.2
				c-0.5-0.3-1.2-0.5-2.2-0.7l-4.5-0.8c-2.6-0.4-4.5-1.3-5.8-2.6c-1.3-1.3-1.9-2.9-1.9-4.9c0-1.8,0.5-3.2,1.4-4.5s2.3-2.2,4-2.8
				s3.8-1,6.2-1c3.7,0,6.5,0.8,8.6,2.3C530.8,323.1,532,325.2,532.1,327.9z"/>
		</g>
		<g>
			<path class="st0" d="M828.2,225.7H255.1c-7.2,0-13-5.8-13-13V66.3c0-7.1,5.8-13,13-13h573.1c7.1,0,13,5.8,13,13v146.4
				C841.2,219.8,835.3,225.7,828.2,225.7z"/>
			<path class="st1" d="M828.2,205.3H255.1c-7.2,0-13-5.8-13-13V46c0-7.1,5.8-13,13-13h573.1c7.1,0,13,5.9,13,13v146.4
				C841.2,199.5,835.3,205.3,828.2,205.3z"/>
		</g>
		<path class="st2" d="M278,54.5c-7.9,0-14.4,6.5-14.4,14.4v100.5c0,7.9,6.5,14.4,14.4,14.4h100.5c7.9,0,14.4-6.5,14.4-14.4V68.9
			c0-7.9-6.5-14.4-14.4-14.4H278z M363.5,93.3l-10.1-10.1l-61,61l10.1,10.1L363.5,93.3z"/>
		<g>
			<path class="st3" d="M450.6,94.4l-13.3,49.4h-9.4l13.3-49.4H450.6z"/>
			<path class="st3" d="M464.9,96.4v41.2h-11.1V96.4H464.9z"/>
			<path class="st3" d="M485.3,138.2c-3.3,0-6.1-0.6-8.5-1.9c-2.4-1.3-4.2-3.1-5.5-5.5c-1.3-2.4-1.9-5.2-1.9-8.6
				c0-3.2,0.6-6,1.9-8.4c1.3-2.4,3.1-4.2,5.5-5.6c2.3-1.3,5.1-2,8.3-2c2.3,0,4.5,0.4,6.3,1.1c1.9,0.7,3.5,1.8,4.9,3.2
				c1.3,1.4,2.4,3,3.1,5s1.1,4.2,1.1,6.6v2.6h-27.6v-6.1h17.4c0-0.9-0.2-1.7-0.7-2.3c-0.4-0.7-1-1.2-1.8-1.6
				c-0.7-0.4-1.6-0.6-2.5-0.6c-0.9,0-1.7,0.2-2.5,0.6c-0.8,0.4-1.4,0.9-1.8,1.6c-0.5,0.7-0.7,1.5-0.7,2.4v6.6c0,1,0.2,1.9,0.6,2.7
				s1,1.4,1.8,1.8c0.8,0.4,1.7,0.7,2.8,0.7c0.8,0,1.5-0.1,2.1-0.3s1.2-0.5,1.6-0.9c0.5-0.4,0.8-0.9,1-1.5h10.1
				c-0.3,2.1-1.2,4-2.5,5.6s-3,2.8-5.2,3.7C490.7,137.7,488.2,138.2,485.3,138.2z"/>
			<path class="st3" d="M513.6,138.1c-2,0-3.7-0.3-5.2-1c-1.5-0.7-2.7-1.6-3.6-3c-0.9-1.3-1.3-3-1.3-5.1c0-1.7,0.3-3.1,0.9-4.3
				c0.6-1.2,1.4-2.2,2.4-3c1-0.8,2.2-1.3,3.6-1.8c1.4-0.4,2.9-0.7,4.5-0.8c1.7-0.1,3.1-0.3,4.2-0.5c1.1-0.2,1.8-0.5,2.3-0.8
				s0.7-0.8,0.7-1.4v-0.1c0-0.8-0.3-1.4-0.9-1.9s-1.4-0.6-2.4-0.6c-1.1,0-1.9,0.2-2.6,0.7c-0.7,0.5-1.1,1.2-1.2,2.1h-10.2
				c0.1-1.9,0.7-3.6,1.8-5.2c1.1-1.6,2.6-2.9,4.7-3.8c2.1-1,4.6-1.4,7.7-1.4c2.2,0,4.2,0.3,6,0.8s3.3,1.2,4.5,2.2
				c1.2,0.9,2.2,2,2.8,3.2c0.7,1.2,1,2.6,1,4v21.2h-10.4v-4.3h-0.2c-0.6,1.2-1.4,2.1-2.2,2.8c-0.9,0.7-1.9,1.2-3,1.6
				C516.1,137.9,514.9,138.1,513.6,138.1z M517.2,131.1c0.8,0,1.6-0.2,2.4-0.5c0.7-0.3,1.4-0.9,1.8-1.5c0.5-0.7,0.7-1.5,0.7-2.4
				v-2.6c-0.3,0.1-0.6,0.2-0.9,0.3s-0.7,0.2-1,0.3c-0.4,0.1-0.8,0.2-1.2,0.3c-0.4,0.1-0.8,0.2-1.3,0.2c-0.9,0.1-1.6,0.4-2.1,0.7
				c-0.5,0.3-0.9,0.7-1.2,1.1c-0.3,0.4-0.4,0.9-0.4,1.5c0,0.9,0.3,1.5,0.9,2C515.5,130.8,516.3,131.1,517.2,131.1z"/>
			<path class="st3" d="M549.7,138c-2.2,0-4.2-0.6-6.1-1.7c-1.8-1.2-3.3-2.9-4.4-5.3s-1.7-5.3-1.7-8.9c0-3.7,0.6-6.8,1.7-9.1
				s2.7-4,4.5-5.1c1.8-1.1,3.8-1.6,5.8-1.6c1.5,0,2.9,0.3,4,0.8s2.1,1.2,2.9,2.1s1.4,1.8,1.8,2.9h0.2V96.4h11.1v41.2h-11v-5.1h-0.2
				c-0.4,1-1,2-1.8,2.8c-0.8,0.8-1.8,1.5-2.9,2C552.4,137.8,551.1,138,549.7,138z M553.8,129.5c1,0,1.9-0.3,2.6-0.9s1.3-1.4,1.7-2.5
				c0.4-1.1,0.6-2.4,0.6-3.9c0-1.5-0.2-2.8-0.6-3.9c-0.4-1.1-1-1.9-1.7-2.5s-1.6-0.9-2.6-0.9s-1.9,0.3-2.6,0.9s-1.3,1.4-1.7,2.5
				c-0.4,1.1-0.6,2.4-0.6,3.9s0.2,2.8,0.6,3.9c0.4,1.1,0.9,1.9,1.7,2.5S552.7,129.5,553.8,129.5z"/>
			<path class="st3" d="M589.8,138.2c-3.3,0-6.1-0.6-8.5-1.9c-2.4-1.3-4.2-3.1-5.5-5.5c-1.3-2.4-1.9-5.2-1.9-8.6
				c0-3.2,0.6-6,1.9-8.4c1.3-2.4,3.1-4.2,5.5-5.6c2.3-1.3,5.1-2,8.3-2c2.3,0,4.5,0.4,6.3,1.1c1.9,0.7,3.5,1.8,4.9,3.2
				c1.3,1.4,2.4,3,3.1,5s1.1,4.2,1.1,6.6v2.6h-27.6v-6.1h17.4c0-0.9-0.2-1.7-0.7-2.3c-0.4-0.7-1-1.2-1.8-1.6
				c-0.7-0.4-1.6-0.6-2.5-0.6c-0.9,0-1.7,0.2-2.5,0.6c-0.8,0.4-1.4,0.9-1.8,1.6c-0.5,0.7-0.7,1.5-0.7,2.4v6.6c0,1,0.2,1.9,0.6,2.7
				s1,1.4,1.8,1.8c0.8,0.4,1.7,0.7,2.8,0.7c0.8,0,1.5-0.1,2.1-0.3s1.2-0.5,1.6-0.9c0.5-0.4,0.8-0.9,1-1.5H605
				c-0.3,2.1-1.2,4-2.5,5.6s-3,2.8-5.2,3.7C595.2,137.7,592.7,138.2,589.8,138.2z"/>
			<path class="st3" d="M609.5,137.6v-30.9h10.8v5.9h0.3c0.6-2.2,1.5-3.8,2.7-4.8c1.2-1,2.7-1.5,4.3-1.5c0.5,0,1,0,1.4,0.1
				c0.5,0.1,0.9,0.2,1.4,0.3v9.5c-0.5-0.2-1.2-0.3-2-0.4c-0.8-0.1-1.5-0.1-2.1-0.1c-1.1,0-2.1,0.2-2.9,0.7c-0.9,0.5-1.5,1.2-2,2.1
				c-0.5,0.9-0.7,1.9-0.7,3.1v16.1H609.5z"/>
			<path class="st3" d="M633.9,137.6V96.4H645v15.7h0.2c0.4-1,1-2,1.8-2.9s1.7-1.6,2.9-2.1s2.5-0.8,4-0.8c2,0,4,0.5,5.8,1.6
				c1.8,1.1,3.3,2.8,4.5,5.1s1.7,5.4,1.7,9.1c0,3.6-0.6,6.5-1.7,8.9s-2.6,4.1-4.4,5.3c-1.8,1.2-3.9,1.7-6.1,1.7
				c-1.4,0-2.7-0.2-3.9-0.7c-1.1-0.5-2.1-1.1-2.9-2c-0.8-0.8-1.4-1.8-1.8-2.8h-0.2v5.1H633.9z M644.8,122.1c0,1.5,0.2,2.8,0.6,3.9
				c0.4,1.1,1,1.9,1.7,2.5s1.6,0.9,2.6,0.9s1.9-0.3,2.6-0.9s1.3-1.4,1.7-2.5c0.4-1.1,0.6-2.4,0.6-3.9s-0.2-2.8-0.6-3.9
				c-0.4-1.1-0.9-1.9-1.7-2.5s-1.6-0.9-2.6-0.9s-1.9,0.3-2.6,0.9s-1.3,1.4-1.7,2.5C645,119.3,644.8,120.6,644.8,122.1z"/>
			<path class="st3" d="M685.5,138.2c-3.4,0-6.2-0.7-8.6-2c-2.4-1.3-4.2-3.2-5.5-5.6c-1.3-2.4-1.9-5.2-1.9-8.3s0.6-6,1.9-8.3
				c1.3-2.4,3.1-4.3,5.5-5.6c2.4-1.3,5.3-2,8.6-2c3.4,0,6.2,0.7,8.6,2c2.4,1.3,4.2,3.2,5.5,5.6c1.3,2.4,1.9,5.2,1.9,8.3
				s-0.6,5.9-1.9,8.3s-3.1,4.3-5.5,5.6C691.8,137.5,688.9,138.2,685.5,138.2z M685.6,129.9c0.9,0,1.8-0.3,2.4-0.9s1.2-1.5,1.6-2.7
				s0.6-2.6,0.6-4.2c0-1.6-0.2-3-0.6-4.2s-0.9-2.1-1.6-2.7s-1.5-0.9-2.4-0.9c-1,0-1.8,0.3-2.6,0.9c-0.7,0.6-1.3,1.5-1.6,2.7
				c-0.4,1.2-0.6,2.6-0.6,4.2c0,1.6,0.2,3,0.6,4.2c0.4,1.2,0.9,2.1,1.6,2.7C683.8,129.6,684.6,129.9,685.6,129.9z"/>
			<path class="st3" d="M714.7,138.1c-2,0-3.7-0.3-5.2-1c-1.5-0.7-2.7-1.6-3.6-3c-0.9-1.3-1.3-3-1.3-5.1c0-1.7,0.3-3.1,0.9-4.3
				c0.6-1.2,1.4-2.2,2.4-3c1-0.8,2.2-1.3,3.6-1.8c1.4-0.4,2.9-0.7,4.5-0.8c1.7-0.1,3.1-0.3,4.2-0.5c1.1-0.2,1.8-0.5,2.3-0.8
				s0.7-0.8,0.7-1.4v-0.1c0-0.8-0.3-1.4-0.9-1.9s-1.4-0.6-2.4-0.6c-1.1,0-1.9,0.2-2.6,0.7c-0.7,0.5-1.1,1.2-1.2,2.1h-10.2
				c0.1-1.9,0.7-3.6,1.8-5.2c1.1-1.6,2.6-2.9,4.7-3.8c2.1-1,4.6-1.4,7.7-1.4c2.2,0,4.2,0.3,6,0.8s3.3,1.2,4.5,2.2
				c1.2,0.9,2.2,2,2.8,3.2c0.7,1.2,1,2.6,1,4v21.2h-10.4v-4.3h-0.2c-0.6,1.2-1.4,2.1-2.2,2.8c-0.9,0.7-1.9,1.2-3,1.6
				C717.3,137.9,716,138.1,714.7,138.1z M718.3,131.1c0.8,0,1.6-0.2,2.4-0.5c0.7-0.3,1.4-0.9,1.8-1.5c0.5-0.7,0.7-1.5,0.7-2.4v-2.6
				c-0.3,0.1-0.6,0.2-0.9,0.3s-0.7,0.2-1,0.3c-0.4,0.1-0.8,0.2-1.2,0.3c-0.4,0.1-0.8,0.2-1.3,0.2c-0.9,0.1-1.6,0.4-2.1,0.7
				c-0.5,0.3-0.9,0.7-1.2,1.1c-0.3,0.4-0.4,0.9-0.4,1.5c0,0.9,0.3,1.5,0.9,2C716.6,130.8,717.4,131.1,718.3,131.1z"/>
			<path class="st3" d="M739.6,137.6v-30.9h10.8v5.9h0.3c0.6-2.2,1.5-3.8,2.7-4.8c1.2-1,2.7-1.5,4.3-1.5c0.5,0,1,0,1.4,0.1
				c0.5,0.1,0.9,0.2,1.4,0.3v9.5c-0.5-0.2-1.2-0.3-2-0.4c-0.8-0.1-1.5-0.1-2.1-0.1c-1.1,0-2.1,0.2-2.9,0.7c-0.9,0.5-1.5,1.2-2,2.1
				c-0.5,0.9-0.7,1.9-0.7,3.1v16.1H739.6z"/>
			<path class="st3" d="M773.6,138c-2.2,0-4.2-0.6-6.1-1.7c-1.8-1.2-3.3-2.9-4.4-5.3s-1.7-5.3-1.7-8.9c0-3.7,0.6-6.8,1.7-9.1
				s2.7-4,4.5-5.1c1.8-1.1,3.8-1.6,5.8-1.6c1.5,0,2.9,0.3,4,0.8s2.1,1.2,2.9,2.1s1.4,1.8,1.8,2.9h0.2V96.4h11.1v41.2h-11v-5.1h-0.2
				c-0.4,1-1,2-1.8,2.8c-0.8,0.8-1.8,1.5-2.9,2C776.3,137.8,775,138,773.6,138z M777.7,129.5c1,0,1.9-0.3,2.6-0.9s1.3-1.4,1.7-2.5
				c0.4-1.1,0.6-2.4,0.6-3.9c0-1.5-0.2-2.8-0.6-3.9c-0.4-1.1-1-1.9-1.7-2.5s-1.6-0.9-2.6-0.9s-1.9,0.3-2.6,0.9s-1.3,1.4-1.7,2.5
				c-0.4,1.1-0.6,2.4-0.6,3.9s0.2,2.8,0.6,3.9c0.4,1.1,0.9,1.9,1.7,2.5S776.6,129.5,777.7,129.5z"/>
		</g>
		<path class="st4" d="M174.8,117.8c-1.5-1-2.8-2.3-3.7-3.8c-1-1.5-1.6-3.2-1.8-5l-0.9-6.2c0-0.1-0.1-0.3-0.2-0.4
			c-0.1-0.1-0.3-0.1-0.4-0.1c-0.2,0-0.3,0-0.4,0.1c-0.1,0.1-0.2,0.2-0.2,0.4l-0.9,6.2c-0.3,1.8-0.9,3.5-1.9,5
			c-1,1.5-2.3,2.8-3.8,3.8l-0.8,0.5c-0.1,0.1-0.2,0.1-0.2,0.2c0,0.1-0.1,0.2-0.1,0.3c0,0.1,0,0.2,0.1,0.3c0,0.1,0.1,0.2,0.2,0.2
			l0.8,0.5c1.5,1,2.8,2.3,3.8,3.8c1,1.5,1.6,3.2,1.9,5l0.9,6.2c0,0.2,0.1,0.3,0.2,0.4c0.1,0.1,0.3,0.1,0.4,0.1
			c0.1,0,0.3-0.1,0.4-0.2c0.1-0.1,0.2-0.2,0.2-0.4l0.9-6.2c0.3-1.8,0.9-3.5,1.9-5c1-1.5,2.3-2.8,3.8-3.8l0.8-0.5
			c0.1-0.1,0.2-0.1,0.2-0.2c0-0.1,0.1-0.2,0.1-0.3c0-0.1,0-0.2-0.1-0.3c0-0.1-0.1-0.2-0.2-0.2L174.8,117.8z"/>
		<path class="st5" d="M170.7,343.2c-2.1-1.4-3.9-3.3-5.3-5.4c-1.4-2.2-2.3-4.6-2.6-7.1l-1.3-8.7c0-0.2-0.1-0.4-0.3-0.5
			c-0.2-0.1-0.4-0.2-0.6-0.2c-0.2,0-0.4,0.1-0.6,0.2c-0.2,0.1-0.3,0.3-0.3,0.6l-1.3,8.7c-0.4,2.5-1.3,5-2.7,7.1
			c-1.4,2.2-3.2,4-5.4,5.4l-1.1,0.7c-0.1,0.1-0.2,0.2-0.3,0.3c-0.1,0.1-0.1,0.3-0.1,0.4c0,0.1,0,0.3,0.1,0.4
			c0.1,0.1,0.2,0.2,0.3,0.3l1.1,0.7c2.2,1.4,4,3.2,5.4,5.4c1.4,2.2,2.3,4.6,2.7,7.1l1.3,8.8c0,0.2,0.1,0.4,0.3,0.6
			c0.2,0.1,0.4,0.2,0.6,0.2c0.2,0,0.4-0.1,0.6-0.2c0.2-0.1,0.3-0.3,0.3-0.5l1.3-8.8c0.4-2.5,1.3-5,2.7-7.1c1.4-2.2,3.2-4,5.4-5.4
			l1.1-0.7c0.1-0.1,0.2-0.2,0.3-0.3c0.1-0.1,0.1-0.3,0.1-0.4c0-0.1,0-0.3-0.1-0.4c-0.1-0.1-0.2-0.2-0.3-0.3L170.7,343.2z"/>
		<path class="st6" d="M770.3,31.1c-3-2-5.6-4.6-7.5-7.7c-1.9-3.1-3.2-6.5-3.7-10.1l-1.9-12.3c0-0.3-0.2-0.6-0.4-0.8
			C756.6,0.1,756.3,0,756,0c-0.3,0-0.6,0.1-0.8,0.3c-0.2,0.2-0.4,0.5-0.4,0.8L753,13.4c-0.5,3.6-1.8,7-3.8,10.1
			c-2,3.1-4.6,5.7-7.6,7.6l-1.6,1c-0.2,0.1-0.3,0.3-0.4,0.5c-0.1,0.2-0.1,0.4-0.2,0.6c0,0.2,0,0.4,0.1,0.6c0.1,0.2,0.2,0.3,0.4,0.5
			l1.6,1.1c3,2,5.6,4.6,7.6,7.6c2,3,3.3,6.5,3.8,10.1l1.8,12.4c0,0.3,0.2,0.6,0.4,0.8c0.2,0.2,0.5,0.3,0.8,0.3
			c0.3,0,0.6-0.1,0.8-0.3c0.2-0.2,0.4-0.5,0.4-0.8l1.9-12.4c0.5-3.6,1.8-7,3.8-10.1c2-3,4.6-5.6,7.6-7.6l1.6-1.1
			c0.2-0.1,0.3-0.3,0.4-0.5c0.1-0.2,0.1-0.4,0.1-0.6c0-0.2-0.1-0.4-0.2-0.6c-0.1-0.2-0.2-0.3-0.4-0.5L770.3,31.1z"/>
	</g>
</g>
</svg>
